<svg width="260" height="260" viewBox="0 0 260 260" fill="none" xmlns="http://www.w3.org/2000/svg">
<path d="M39.5014 28.2572C31.5422 40.3459 30 57.181 30 57.181C30 57.181 125.013 114.943 133.666 120.589C141.514 125.626 141.514 134.382 133.666 139.369C125.013 144.912 30 202.733 30 202.733C30 202.733 31.5422 219.603 39.5014 231.743C46.9979 243.249 60.86 250 60.86 250C60.86 250 213.292 153.616 223.367 144.877C231.815 137.467 231.815 122.448 223.367 115.037C213.301 106.281 60.86 10 60.86 10C60.86 10 46.9979 16.7683 39.5014 28.2572" fill="#DC6655"/>
</svg>
