<svg width="300" height="200" viewBox="0 0 300 200" fill="none" xmlns="http://www.w3.org/2000/svg">
<rect width="300" height="200" rx="6" fill="#F5F5F5"/>
<path d="M30.7715 67.0273H37.2266V69H28.3008V54.7812H30.7715V67.0273ZM38.4473 63.6191C38.4473 62.584 38.6523 61.653 39.0625 60.8262C39.4727 59.9928 40.0488 59.3548 40.791 58.9121C41.5332 58.4629 42.3861 58.2383 43.3496 58.2383C44.7754 58.2383 45.931 58.6973 46.8164 59.6152C47.7083 60.5332 48.1901 61.7507 48.2617 63.2676L48.2715 63.8242C48.2715 64.8659 48.0697 65.7969 47.666 66.6172C47.2689 67.4375 46.696 68.0723 45.9473 68.5215C45.2051 68.9707 44.3457 69.1953 43.3691 69.1953C41.8783 69.1953 40.6836 68.7005 39.7852 67.7109C38.8932 66.7148 38.4473 65.39 38.4473 63.7363V63.6191ZM40.8203 63.8242C40.8203 64.9115 41.0449 65.7643 41.4941 66.3828C41.9434 66.9948 42.5684 67.3008 43.3691 67.3008C44.1699 67.3008 44.7917 66.9883 45.2344 66.3633C45.6836 65.7383 45.9082 64.8236 45.9082 63.6191C45.9082 62.5514 45.6771 61.7051 45.2148 61.0801C44.7591 60.4551 44.1374 60.1426 43.3496 60.1426C42.5749 60.1426 41.9596 60.4518 41.5039 61.0703C41.0482 61.6823 40.8203 62.6003 40.8203 63.8242ZM55.8105 60.6016C55.498 60.5495 55.1758 60.5234 54.8438 60.5234C53.7565 60.5234 53.0241 60.9401 52.6465 61.7734V69H50.2734V58.4336H52.5391L52.5977 59.6152C53.1706 58.6973 53.9648 58.2383 54.9805 58.2383C55.319 58.2383 55.599 58.2839 55.8203 58.375L55.8105 60.6016ZM61.7676 69.1953C60.2637 69.1953 59.043 68.7233 58.1055 67.7793C57.1745 66.8288 56.709 65.5658 56.709 63.9902V63.6973C56.709 62.6426 56.9108 61.7018 57.3145 60.875C57.7246 60.0417 58.2975 59.3939 59.0332 58.9316C59.7689 58.4694 60.5892 58.2383 61.4941 58.2383C62.9329 58.2383 64.043 58.6973 64.8242 59.6152C65.612 60.5332 66.0059 61.832 66.0059 63.5117V64.4688H59.1016C59.1732 65.3411 59.4629 66.0312 59.9707 66.5391C60.485 67.0469 61.1296 67.3008 61.9043 67.3008C62.9915 67.3008 63.877 66.8613 64.5605 65.9824L65.8398 67.2031C65.4167 67.8346 64.8503 68.3262 64.1406 68.6777C63.4375 69.0228 62.6465 69.1953 61.7676 69.1953ZM61.4844 60.1426C60.8333 60.1426 60.306 60.3704 59.9023 60.8262C59.5052 61.2819 59.2513 61.9167 59.1406 62.7305H63.6621V62.5547C63.61 61.7604 63.3984 61.1615 63.0273 60.7578C62.6562 60.3477 62.1419 60.1426 61.4844 60.1426ZM70.0879 58.4336L70.1562 59.5371C70.8984 58.6712 71.9141 58.2383 73.2031 58.2383C74.6159 58.2383 75.5827 58.7786 76.1035 59.8594C76.8717 58.7786 77.9525 58.2383 79.3457 58.2383C80.5111 58.2383 81.377 58.5605 81.9434 59.2051C82.5163 59.8496 82.8092 60.8001 82.8223 62.0566V69H80.4492V62.125C80.4492 61.4544 80.3027 60.9629 80.0098 60.6504C79.7168 60.3379 79.2318 60.1816 78.5547 60.1816C78.0143 60.1816 77.5716 60.3281 77.2266 60.6211C76.888 60.9076 76.6504 61.2852 76.5137 61.7539L76.5234 69H74.1504V62.0469C74.1178 60.8034 73.4831 60.1816 72.2461 60.1816C71.2956 60.1816 70.6217 60.569 70.2246 61.3438V69H67.8516V58.4336H70.0879ZM92.7637 69H90.3906V58.4336H92.7637V69ZM90.2441 55.6895C90.2441 55.3249 90.3581 55.0221 90.5859 54.7812C90.8203 54.5404 91.1523 54.4199 91.582 54.4199C92.0117 54.4199 92.3438 54.5404 92.5781 54.7812C92.8125 55.0221 92.9297 55.3249 92.9297 55.6895C92.9297 56.0475 92.8125 56.347 92.5781 56.5879C92.3438 56.8223 92.0117 56.9395 91.582 56.9395C91.1523 56.9395 90.8203 56.8223 90.5859 56.5879C90.3581 56.347 90.2441 56.0475 90.2441 55.6895ZM104.609 63.8242C104.609 65.4583 104.238 66.7637 103.496 67.7402C102.754 68.7103 101.758 69.1953 100.508 69.1953C99.349 69.1953 98.4212 68.8145 97.7246 68.0527V73.0625H95.3516V58.4336H97.5391L97.6367 59.5078C98.3333 58.6615 99.2806 58.2383 100.479 58.2383C101.768 58.2383 102.777 58.7201 103.506 59.6836C104.242 60.6406 104.609 61.972 104.609 63.6777V63.8242ZM102.246 63.6191C102.246 62.5645 102.035 61.7279 101.611 61.1094C101.195 60.4909 100.596 60.1816 99.8145 60.1816C98.8444 60.1816 98.1478 60.582 97.7246 61.3828V66.0703C98.1543 66.8906 98.8574 67.3008 99.834 67.3008C100.589 67.3008 101.178 66.998 101.602 66.3926C102.031 65.7806 102.246 64.8561 102.246 63.6191ZM112.549 66.1289C112.549 65.7057 112.373 65.3835 112.021 65.1621C111.676 64.9408 111.1 64.7454 110.293 64.5762C109.486 64.4069 108.812 64.1921 108.271 63.9316C107.087 63.3587 106.494 62.5286 106.494 61.4414C106.494 60.5299 106.878 59.7682 107.646 59.1562C108.415 58.5443 109.391 58.2383 110.576 58.2383C111.839 58.2383 112.858 58.5508 113.633 59.1758C114.414 59.8008 114.805 60.6113 114.805 61.6074H112.432C112.432 61.1517 112.262 60.7741 111.924 60.4746C111.585 60.1686 111.136 60.0156 110.576 60.0156C110.055 60.0156 109.629 60.1361 109.297 60.377C108.971 60.6178 108.809 60.9401 108.809 61.3438C108.809 61.7083 108.962 61.9915 109.268 62.1934C109.574 62.3952 110.192 62.6003 111.123 62.8086C112.054 63.0104 112.783 63.2546 113.311 63.541C113.844 63.821 114.238 64.1595 114.492 64.5566C114.753 64.9538 114.883 65.4355 114.883 66.002C114.883 66.9525 114.489 67.724 113.701 68.3164C112.913 68.9023 111.882 69.1953 110.605 69.1953C109.74 69.1953 108.968 69.0391 108.291 68.7266C107.614 68.4141 107.087 67.9844 106.709 67.4375C106.331 66.8906 106.143 66.3014 106.143 65.6699H108.447C108.48 66.2298 108.691 66.6628 109.082 66.9688C109.473 67.2682 109.99 67.418 110.635 67.418C111.26 67.418 111.735 67.3008 112.061 67.0664C112.386 66.8255 112.549 66.513 112.549 66.1289ZM123.359 67.9648C122.663 68.7852 121.673 69.1953 120.391 69.1953C119.245 69.1953 118.376 68.86 117.783 68.1895C117.197 67.5189 116.904 66.5488 116.904 65.2793V58.4336H119.277V65.25C119.277 66.5911 119.834 67.2617 120.947 67.2617C122.1 67.2617 122.878 66.8483 123.281 66.0215V58.4336H125.654V69H123.418L123.359 67.9648ZM130.303 58.4336L130.371 59.5371C131.113 58.6712 132.129 58.2383 133.418 58.2383C134.831 58.2383 135.798 58.7786 136.318 59.8594C137.087 58.7786 138.167 58.2383 139.561 58.2383C140.726 58.2383 141.592 58.5605 142.158 59.2051C142.731 59.8496 143.024 60.8001 143.037 62.0566V69H140.664V62.125C140.664 61.4544 140.518 60.9629 140.225 60.6504C139.932 60.3379 139.447 60.1816 138.77 60.1816C138.229 60.1816 137.786 60.3281 137.441 60.6211C137.103 60.9076 136.865 61.2852 136.729 61.7539L136.738 69H134.365V62.0469C134.333 60.8034 133.698 60.1816 132.461 60.1816C131.51 60.1816 130.837 60.569 130.439 61.3438V69H128.066V58.4336H130.303ZM150.01 63.6387C150.01 62.0111 150.387 60.7057 151.143 59.7227C151.898 58.7331 152.91 58.2383 154.18 58.2383C155.299 58.2383 156.204 58.6289 156.895 59.4102V54H159.268V69H157.119L157.002 67.9062C156.292 68.7656 155.345 69.1953 154.16 69.1953C152.923 69.1953 151.921 68.6973 151.152 67.7012C150.391 66.7051 150.01 65.3509 150.01 63.6387ZM152.383 63.8438C152.383 64.918 152.588 65.7578 152.998 66.3633C153.415 66.9622 154.004 67.2617 154.766 67.2617C155.736 67.2617 156.445 66.8288 156.895 65.9629V61.4512C156.458 60.6048 155.755 60.1816 154.785 60.1816C154.017 60.1816 153.424 60.4876 153.008 61.0996C152.591 61.7051 152.383 62.6198 152.383 63.8438ZM161.299 63.6191C161.299 62.584 161.504 61.653 161.914 60.8262C162.324 59.9928 162.9 59.3548 163.643 58.9121C164.385 58.4629 165.238 58.2383 166.201 58.2383C167.627 58.2383 168.783 58.6973 169.668 59.6152C170.56 60.5332 171.042 61.7507 171.113 63.2676L171.123 63.8242C171.123 64.8659 170.921 65.7969 170.518 66.6172C170.12 67.4375 169.548 68.0723 168.799 68.5215C168.057 68.9707 167.197 69.1953 166.221 69.1953C164.73 69.1953 163.535 68.7005 162.637 67.7109C161.745 66.7148 161.299 65.39 161.299 63.7363V63.6191ZM163.672 63.8242C163.672 64.9115 163.896 65.7643 164.346 66.3828C164.795 66.9948 165.42 67.3008 166.221 67.3008C167.021 67.3008 167.643 66.9883 168.086 66.3633C168.535 65.7383 168.76 64.8236 168.76 63.6191C168.76 62.5514 168.529 61.7051 168.066 61.0801C167.611 60.4551 166.989 60.1426 166.201 60.1426C165.426 60.1426 164.811 60.4518 164.355 61.0703C163.9 61.6823 163.672 62.6003 163.672 63.8242ZM175.654 69H173.281V54H175.654V69ZM177.803 63.6191C177.803 62.584 178.008 61.653 178.418 60.8262C178.828 59.9928 179.404 59.3548 180.146 58.9121C180.889 58.4629 181.742 58.2383 182.705 58.2383C184.131 58.2383 185.286 58.6973 186.172 59.6152C187.064 60.5332 187.546 61.7507 187.617 63.2676L187.627 63.8242C187.627 64.8659 187.425 65.7969 187.021 66.6172C186.624 67.4375 186.051 68.0723 185.303 68.5215C184.561 68.9707 183.701 69.1953 182.725 69.1953C181.234 69.1953 180.039 68.7005 179.141 67.7109C178.249 66.7148 177.803 65.39 177.803 63.7363V63.6191ZM180.176 63.8242C180.176 64.9115 180.4 65.7643 180.85 66.3828C181.299 66.9948 181.924 67.3008 182.725 67.3008C183.525 67.3008 184.147 66.9883 184.59 66.3633C185.039 65.7383 185.264 64.8236 185.264 63.6191C185.264 62.5514 185.033 61.7051 184.57 61.0801C184.115 60.4551 183.493 60.1426 182.705 60.1426C181.93 60.1426 181.315 60.4518 180.859 61.0703C180.404 61.6823 180.176 62.6003 180.176 63.8242ZM195.166 60.6016C194.854 60.5495 194.531 60.5234 194.199 60.5234C193.112 60.5234 192.38 60.9401 192.002 61.7734V69H189.629V58.4336H191.895L191.953 59.6152C192.526 58.6973 193.32 58.2383 194.336 58.2383C194.674 58.2383 194.954 58.2839 195.176 58.375L195.166 60.6016ZM207.568 66.1289C207.568 65.7057 207.393 65.3835 207.041 65.1621C206.696 64.9408 206.12 64.7454 205.312 64.5762C204.505 64.4069 203.831 64.1921 203.291 63.9316C202.106 63.3587 201.514 62.5286 201.514 61.4414C201.514 60.5299 201.898 59.7682 202.666 59.1562C203.434 58.5443 204.411 58.2383 205.596 58.2383C206.859 58.2383 207.878 58.5508 208.652 59.1758C209.434 59.8008 209.824 60.6113 209.824 61.6074H207.451C207.451 61.1517 207.282 60.7741 206.943 60.4746C206.605 60.1686 206.156 60.0156 205.596 60.0156C205.075 60.0156 204.648 60.1361 204.316 60.377C203.991 60.6178 203.828 60.9401 203.828 61.3438C203.828 61.7083 203.981 61.9915 204.287 62.1934C204.593 62.3952 205.212 62.6003 206.143 62.8086C207.074 63.0104 207.803 63.2546 208.33 63.541C208.864 63.821 209.258 64.1595 209.512 64.5566C209.772 64.9538 209.902 65.4355 209.902 66.002C209.902 66.9525 209.508 67.724 208.721 68.3164C207.933 68.9023 206.901 69.1953 205.625 69.1953C204.759 69.1953 203.988 69.0391 203.311 68.7266C202.633 68.4141 202.106 67.9844 201.729 67.4375C201.351 66.8906 201.162 66.3014 201.162 65.6699H203.467C203.499 66.2298 203.711 66.6628 204.102 66.9688C204.492 67.2682 205.01 67.418 205.654 67.418C206.279 67.418 206.755 67.3008 207.08 67.0664C207.406 66.8255 207.568 66.513 207.568 66.1289ZM214.502 69H212.129V58.4336H214.502V69ZM211.982 55.6895C211.982 55.3249 212.096 55.0221 212.324 54.7812C212.559 54.5404 212.891 54.4199 213.32 54.4199C213.75 54.4199 214.082 54.5404 214.316 54.7812C214.551 55.0221 214.668 55.3249 214.668 55.6895C214.668 56.0475 214.551 56.347 214.316 56.5879C214.082 56.8223 213.75 56.9395 213.32 56.9395C212.891 56.9395 212.559 56.8223 212.324 56.5879C212.096 56.347 211.982 56.0475 211.982 55.6895ZM220.068 55.8652V58.4336H221.934V60.1914H220.068V66.0898C220.068 66.4935 220.146 66.7865 220.303 66.9688C220.465 67.1445 220.752 67.2324 221.162 67.2324C221.436 67.2324 221.712 67.1999 221.992 67.1348V68.9707C221.452 69.1204 220.931 69.1953 220.43 69.1953C218.607 69.1953 217.695 68.1895 217.695 66.1777V60.1914H215.957V58.4336H217.695V55.8652H220.068ZM235.049 69C234.945 68.7982 234.854 68.4694 234.775 68.0137C234.02 68.8014 233.096 69.1953 232.002 69.1953C230.941 69.1953 230.075 68.8926 229.404 68.2871C228.734 67.6816 228.398 66.9329 228.398 66.041C228.398 64.9147 228.815 64.0521 229.648 63.4531C230.488 62.8477 231.686 62.5449 233.242 62.5449H234.697V61.8516C234.697 61.3047 234.544 60.8685 234.238 60.543C233.932 60.2109 233.467 60.0449 232.842 60.0449C232.301 60.0449 231.859 60.1816 231.514 60.4551C231.169 60.722 230.996 61.0638 230.996 61.4805H228.623C228.623 60.901 228.815 60.3607 229.199 59.8594C229.583 59.3516 230.104 58.9544 230.762 58.668C231.426 58.3815 232.165 58.2383 232.979 58.2383C234.215 58.2383 235.202 58.5508 235.938 59.1758C236.673 59.7943 237.051 60.6667 237.07 61.793V66.5586C237.07 67.5091 237.204 68.2676 237.471 68.834V69H235.049ZM232.441 67.291C232.91 67.291 233.35 67.1771 233.76 66.9492C234.176 66.7214 234.489 66.4154 234.697 66.0312V64.0391H233.418C232.539 64.0391 231.878 64.1921 231.436 64.498C230.993 64.804 230.771 65.237 230.771 65.7969C230.771 66.2526 230.921 66.6172 231.221 66.8906C231.527 67.1576 231.934 67.291 232.441 67.291ZM241.787 58.4336L241.855 59.5371C242.598 58.6712 243.613 58.2383 244.902 58.2383C246.315 58.2383 247.282 58.7786 247.803 59.8594C248.571 58.7786 249.652 58.2383 251.045 58.2383C252.21 58.2383 253.076 58.5605 253.643 59.2051C254.215 59.8496 254.508 60.8001 254.521 62.0566V69H252.148V62.125C252.148 61.4544 252.002 60.9629 251.709 60.6504C251.416 60.3379 250.931 60.1816 250.254 60.1816C249.714 60.1816 249.271 60.3281 248.926 60.6211C248.587 60.9076 248.35 61.2852 248.213 61.7539L248.223 69H245.85V62.0469C245.817 60.8034 245.182 60.1816 243.945 60.1816C242.995 60.1816 242.321 60.569 241.924 61.3438V69H239.551V58.4336H241.787ZM261.611 69.1953C260.107 69.1953 258.887 68.7233 257.949 67.7793C257.018 66.8288 256.553 65.5658 256.553 63.9902V63.6973C256.553 62.6426 256.755 61.7018 257.158 60.875C257.568 60.0417 258.141 59.3939 258.877 58.9316C259.613 58.4694 260.433 58.2383 261.338 58.2383C262.777 58.2383 263.887 58.6973 264.668 59.6152C265.456 60.5332 265.85 61.832 265.85 63.5117V64.4688H258.945C259.017 65.3411 259.307 66.0312 259.814 66.5391C260.329 67.0469 260.973 67.3008 261.748 67.3008C262.835 67.3008 263.721 66.8613 264.404 65.9824L265.684 67.2031C265.26 67.8346 264.694 68.3262 263.984 68.6777C263.281 69.0228 262.49 69.1953 261.611 69.1953ZM261.328 60.1426C260.677 60.1426 260.15 60.3704 259.746 60.8262C259.349 61.2819 259.095 61.9167 258.984 62.7305H263.506V62.5547C263.454 61.7604 263.242 61.1615 262.871 60.7578C262.5 60.3477 261.986 60.1426 261.328 60.1426ZM270.674 55.8652V58.4336H272.539V60.1914H270.674V66.0898C270.674 66.4935 270.752 66.7865 270.908 66.9688C271.071 67.1445 271.357 67.2324 271.768 67.2324C272.041 67.2324 272.318 67.1999 272.598 67.1348V68.9707C272.057 69.1204 271.536 69.1953 271.035 69.1953C269.212 69.1953 268.301 68.1895 268.301 66.1777V60.1914H266.562V58.4336H268.301V55.8652H270.674ZM37.7109 103.391C37.5703 104.594 37.125 105.523 36.375 106.18C35.6302 106.831 34.638 107.156 33.3984 107.156C32.0547 107.156 30.9766 106.674 30.1641 105.711C29.3568 104.747 28.9531 103.458 28.9531 101.844V100.75C28.9531 99.6927 29.1406 98.763 29.5156 97.9609C29.8958 97.1589 30.4323 96.5443 31.125 96.1172C31.8177 95.6849 32.6198 95.4688 33.5312 95.4688C34.7396 95.4688 35.7083 95.8073 36.4375 96.4844C37.1667 97.1562 37.5911 98.0885 37.7109 99.2812H36.2031C36.0729 98.375 35.7891 97.7188 35.3516 97.3125C34.9193 96.9062 34.3125 96.7031 33.5312 96.7031C32.5729 96.7031 31.8203 97.0573 31.2734 97.7656C30.7318 98.474 30.4609 99.4818 30.4609 100.789V101.891C30.4609 103.125 30.7188 104.107 31.2344 104.836C31.75 105.565 32.4714 105.93 33.3984 105.93C34.2318 105.93 34.8698 105.742 35.3125 105.367C35.7604 104.987 36.0573 104.328 36.2031 103.391H37.7109ZM39.1562 102.695C39.1562 101.867 39.3177 101.122 39.6406 100.461C39.9688 99.7995 40.4219 99.2891 41 98.9297C41.5833 98.5703 42.2474 98.3906 42.9922 98.3906C44.1432 98.3906 45.0729 98.7891 45.7812 99.5859C46.4948 100.383 46.8516 101.443 46.8516 102.766V102.867C46.8516 103.69 46.6927 104.43 46.375 105.086C46.0625 105.737 45.612 106.245 45.0234 106.609C44.4401 106.974 43.7682 107.156 43.0078 107.156C41.862 107.156 40.9323 106.758 40.2188 105.961C39.5104 105.164 39.1562 104.109 39.1562 102.797V102.695ZM40.6094 102.867C40.6094 103.805 40.8255 104.557 41.2578 105.125C41.6953 105.693 42.2786 105.977 43.0078 105.977C43.7422 105.977 44.3255 105.69 44.7578 105.117C45.1901 104.539 45.4062 103.732 45.4062 102.695C45.4062 101.768 45.1849 101.018 44.7422 100.445C44.3047 99.8672 43.7214 99.5781 42.9922 99.5781C42.2786 99.5781 41.7031 99.862 41.2656 100.43C40.8281 100.997 40.6094 101.81 40.6094 102.867ZM50.0312 98.5469L50.0781 99.6094C50.724 98.7969 51.5677 98.3906 52.6094 98.3906C54.3958 98.3906 55.2969 99.3984 55.3125 101.414V107H53.8672V101.406C53.862 100.797 53.7214 100.346 53.4453 100.055C53.1745 99.763 52.75 99.6172 52.1719 99.6172C51.7031 99.6172 51.2917 99.7422 50.9375 99.9922C50.5833 100.242 50.3073 100.57 50.1094 100.977V107H48.6641V98.5469H50.0312ZM62.4141 104.758C62.4141 104.367 62.2656 104.065 61.9688 103.852C61.6771 103.633 61.1641 103.445 60.4297 103.289C59.7005 103.133 59.1198 102.945 58.6875 102.727C58.2604 102.508 57.9427 102.247 57.7344 101.945C57.5312 101.643 57.4297 101.284 57.4297 100.867C57.4297 100.174 57.7214 99.5885 58.3047 99.1094C58.8932 98.6302 59.6432 98.3906 60.5547 98.3906C61.513 98.3906 62.2891 98.638 62.8828 99.1328C63.4818 99.6276 63.7812 100.26 63.7812 101.031H62.3281C62.3281 100.635 62.1589 100.294 61.8203 100.008C61.487 99.7214 61.0651 99.5781 60.5547 99.5781C60.0286 99.5781 59.6172 99.6927 59.3203 99.9219C59.0234 100.151 58.875 100.451 58.875 100.82C58.875 101.169 59.013 101.432 59.2891 101.609C59.5651 101.786 60.0625 101.956 60.7812 102.117C61.5052 102.279 62.0911 102.471 62.5391 102.695C62.987 102.919 63.3177 103.19 63.5312 103.508C63.75 103.82 63.8594 104.203 63.8594 104.656C63.8594 105.411 63.5573 106.018 62.9531 106.477C62.349 106.93 61.5651 107.156 60.6016 107.156C59.9245 107.156 59.3255 107.036 58.8047 106.797C58.2839 106.557 57.875 106.224 57.5781 105.797C57.2865 105.365 57.1406 104.898 57.1406 104.398H58.5859C58.612 104.883 58.8047 105.268 59.1641 105.555C59.5286 105.836 60.0078 105.977 60.6016 105.977C61.1484 105.977 61.5859 105.867 61.9141 105.648C62.2474 105.424 62.4141 105.128 62.4141 104.758ZM69.25 107.156C68.1042 107.156 67.1719 106.781 66.4531 106.031C65.7344 105.276 65.375 104.268 65.375 103.008V102.742C65.375 101.904 65.5339 101.156 65.8516 100.5C66.1745 99.8385 66.6224 99.3229 67.1953 98.9531C67.7734 98.5781 68.3984 98.3906 69.0703 98.3906C70.1693 98.3906 71.0234 98.7526 71.6328 99.4766C72.2422 100.201 72.5469 101.237 72.5469 102.586V103.188H66.8203C66.8411 104.021 67.0833 104.695 67.5469 105.211C68.0156 105.721 68.6094 105.977 69.3281 105.977C69.8385 105.977 70.2708 105.872 70.625 105.664C70.9792 105.456 71.2891 105.18 71.5547 104.836L72.4375 105.523C71.7292 106.612 70.6667 107.156 69.25 107.156ZM69.0703 99.5781C68.487 99.5781 67.9974 99.7917 67.6016 100.219C67.2057 100.641 66.9609 101.234 66.8672 102H71.1016V101.891C71.0599 101.156 70.862 100.589 70.5078 100.188C70.1536 99.7812 69.6745 99.5781 69.0703 99.5781ZM77.6172 105.977C78.1328 105.977 78.5833 105.82 78.9688 105.508C79.3542 105.195 79.5677 104.805 79.6094 104.336H80.9766C80.9505 104.82 80.7839 105.281 80.4766 105.719C80.1693 106.156 79.7578 106.505 79.2422 106.766C78.7318 107.026 78.1901 107.156 77.6172 107.156C76.4661 107.156 75.5495 106.773 74.8672 106.008C74.1901 105.237 73.8516 104.185 73.8516 102.852V102.609C73.8516 101.786 74.0026 101.055 74.3047 100.414C74.6068 99.7734 75.0391 99.276 75.6016 98.9219C76.1693 98.5677 76.8385 98.3906 77.6094 98.3906C78.5573 98.3906 79.3438 98.6745 79.9688 99.2422C80.599 99.8099 80.9349 100.547 80.9766 101.453H79.6094C79.5677 100.906 79.3594 100.458 78.9844 100.109C78.6146 99.7552 78.1562 99.5781 77.6094 99.5781C76.875 99.5781 76.3047 99.8438 75.8984 100.375C75.4974 100.901 75.2969 101.664 75.2969 102.664V102.938C75.2969 103.911 75.4974 104.661 75.8984 105.188C76.2995 105.714 76.8724 105.977 77.6172 105.977ZM84.5625 96.5V98.5469H86.1406V99.6641H84.5625V104.906C84.5625 105.245 84.6328 105.5 84.7734 105.672C84.9141 105.839 85.1536 105.922 85.4922 105.922C85.6589 105.922 85.888 105.891 86.1797 105.828V107C85.7995 107.104 85.4297 107.156 85.0703 107.156C84.4245 107.156 83.9375 106.961 83.6094 106.57C83.2812 106.18 83.1172 105.625 83.1172 104.906V99.6641H81.5781V98.5469H83.1172V96.5H84.5625ZM91.3438 107.156C90.1979 107.156 89.2656 106.781 88.5469 106.031C87.8281 105.276 87.4688 104.268 87.4688 103.008V102.742C87.4688 101.904 87.6276 101.156 87.9453 100.5C88.2682 99.8385 88.7161 99.3229 89.2891 98.9531C89.8672 98.5781 90.4922 98.3906 91.1641 98.3906C92.263 98.3906 93.1172 98.7526 93.7266 99.4766C94.3359 100.201 94.6406 101.237 94.6406 102.586V103.188H88.9141C88.9349 104.021 89.1771 104.695 89.6406 105.211C90.1094 105.721 90.7031 105.977 91.4219 105.977C91.9323 105.977 92.3646 105.872 92.7188 105.664C93.0729 105.456 93.3828 105.18 93.6484 104.836L94.5312 105.523C93.8229 106.612 92.7604 107.156 91.3438 107.156ZM91.1641 99.5781C90.5807 99.5781 90.0911 99.7917 89.6953 100.219C89.2995 100.641 89.0547 101.234 88.9609 102H93.1953V101.891C93.1536 101.156 92.9557 100.589 92.6016 100.188C92.2474 99.7812 91.7682 99.5781 91.1641 99.5781ZM98.2812 96.5V98.5469H99.8594V99.6641H98.2812V104.906C98.2812 105.245 98.3516 105.5 98.4922 105.672C98.6328 105.839 98.8724 105.922 99.2109 105.922C99.3776 105.922 99.6068 105.891 99.8984 105.828V107C99.5182 107.104 99.1484 107.156 98.7891 107.156C98.1432 107.156 97.6562 106.961 97.3281 106.57C97 106.18 96.8359 105.625 96.8359 104.906V99.6641H95.2969V98.5469H96.8359V96.5H98.2812ZM106.773 106.164C106.211 106.826 105.385 107.156 104.297 107.156C103.396 107.156 102.708 106.896 102.234 106.375C101.766 105.849 101.529 105.073 101.523 104.047V98.5469H102.969V104.008C102.969 105.289 103.49 105.93 104.531 105.93C105.635 105.93 106.37 105.518 106.734 104.695V98.5469H108.18V107H106.805L106.773 106.164ZM114.469 99.8438C114.25 99.8073 114.013 99.7891 113.758 99.7891C112.81 99.7891 112.167 100.193 111.828 101V107H110.383V98.5469H111.789L111.812 99.5234C112.286 98.7682 112.958 98.3906 113.828 98.3906C114.109 98.3906 114.323 98.4271 114.469 98.5V99.8438ZM124.992 107C124.909 106.833 124.841 106.536 124.789 106.109C124.117 106.807 123.315 107.156 122.383 107.156C121.549 107.156 120.865 106.922 120.328 106.453C119.797 105.979 119.531 105.38 119.531 104.656C119.531 103.776 119.865 103.094 120.531 102.609C121.203 102.12 122.146 101.875 123.359 101.875H124.766V101.211C124.766 100.706 124.615 100.305 124.312 100.008C124.01 99.7057 123.565 99.5547 122.977 99.5547C122.461 99.5547 122.029 99.6849 121.68 99.9453C121.331 100.206 121.156 100.521 121.156 100.891H119.703C119.703 100.469 119.852 100.062 120.148 99.6719C120.451 99.276 120.857 98.9635 121.367 98.7344C121.883 98.5052 122.448 98.3906 123.062 98.3906C124.036 98.3906 124.799 98.6354 125.352 99.125C125.904 99.6094 126.19 100.279 126.211 101.133V105.023C126.211 105.799 126.31 106.417 126.508 106.875V107H124.992ZM122.594 105.898C123.047 105.898 123.477 105.781 123.883 105.547C124.289 105.312 124.583 105.008 124.766 104.633V102.898H123.633C121.862 102.898 120.977 103.417 120.977 104.453C120.977 104.906 121.128 105.26 121.43 105.516C121.732 105.771 122.12 105.898 122.594 105.898ZM128.125 102.703C128.125 101.406 128.432 100.365 129.047 99.5781C129.661 98.7865 130.466 98.3906 131.461 98.3906C132.451 98.3906 133.234 98.7292 133.812 99.4062V95H135.258V107H133.93L133.859 106.094C133.281 106.802 132.477 107.156 131.445 107.156C130.466 107.156 129.667 106.755 129.047 105.953C128.432 105.151 128.125 104.104 128.125 102.812V102.703ZM129.57 102.867C129.57 103.826 129.768 104.576 130.164 105.117C130.56 105.659 131.107 105.93 131.805 105.93C132.721 105.93 133.391 105.518 133.812 104.695V100.812C133.38 100.016 132.716 99.6172 131.82 99.6172C131.112 99.6172 130.56 99.8906 130.164 100.438C129.768 100.984 129.57 101.794 129.57 102.867ZM139.078 107H137.633V98.5469H139.078V107ZM137.516 96.3047C137.516 96.0703 137.586 95.8724 137.727 95.7109C137.872 95.5495 138.086 95.4688 138.367 95.4688C138.648 95.4688 138.862 95.5495 139.008 95.7109C139.154 95.8724 139.227 96.0703 139.227 96.3047C139.227 96.5391 139.154 96.7344 139.008 96.8906C138.862 97.0469 138.648 97.125 138.367 97.125C138.086 97.125 137.872 97.0469 137.727 96.8906C137.586 96.7344 137.516 96.5391 137.516 96.3047ZM148.539 102.867C148.539 104.154 148.245 105.19 147.656 105.977C147.068 106.763 146.271 107.156 145.266 107.156C144.24 107.156 143.432 106.831 142.844 106.18V110.25H141.398V98.5469H142.719L142.789 99.4844C143.378 98.7552 144.195 98.3906 145.242 98.3906C146.258 98.3906 147.06 98.7734 147.648 99.5391C148.242 100.305 148.539 101.37 148.539 102.734V102.867ZM147.094 102.703C147.094 101.75 146.891 100.997 146.484 100.445C146.078 99.8932 145.521 99.6172 144.812 99.6172C143.938 99.6172 143.281 100.005 142.844 100.781V104.82C143.276 105.591 143.938 105.977 144.828 105.977C145.521 105.977 146.07 105.703 146.477 105.156C146.888 104.604 147.094 103.786 147.094 102.703ZM151.953 107H150.508V98.5469H151.953V107ZM150.391 96.3047C150.391 96.0703 150.461 95.8724 150.602 95.7109C150.747 95.5495 150.961 95.4688 151.242 95.4688C151.523 95.4688 151.737 95.5495 151.883 95.7109C152.029 95.8724 152.102 96.0703 152.102 96.3047C152.102 96.5391 152.029 96.7344 151.883 96.8906C151.737 97.0469 151.523 97.125 151.242 97.125C150.961 97.125 150.747 97.0469 150.602 96.8906C150.461 96.7344 150.391 96.5391 150.391 96.3047ZM159.195 104.758C159.195 104.367 159.047 104.065 158.75 103.852C158.458 103.633 157.945 103.445 157.211 103.289C156.482 103.133 155.901 102.945 155.469 102.727C155.042 102.508 154.724 102.247 154.516 101.945C154.312 101.643 154.211 101.284 154.211 100.867C154.211 100.174 154.503 99.5885 155.086 99.1094C155.674 98.6302 156.424 98.3906 157.336 98.3906C158.294 98.3906 159.07 98.638 159.664 99.1328C160.263 99.6276 160.562 100.26 160.562 101.031H159.109C159.109 100.635 158.94 100.294 158.602 100.008C158.268 99.7214 157.846 99.5781 157.336 99.5781C156.81 99.5781 156.398 99.6927 156.102 99.9219C155.805 100.151 155.656 100.451 155.656 100.82C155.656 101.169 155.794 101.432 156.07 101.609C156.346 101.786 156.844 101.956 157.562 102.117C158.286 102.279 158.872 102.471 159.32 102.695C159.768 102.919 160.099 103.19 160.312 103.508C160.531 103.82 160.641 104.203 160.641 104.656C160.641 105.411 160.339 106.018 159.734 106.477C159.13 106.93 158.346 107.156 157.383 107.156C156.706 107.156 156.107 107.036 155.586 106.797C155.065 106.557 154.656 106.224 154.359 105.797C154.068 105.365 153.922 104.898 153.922 104.398H155.367C155.393 104.883 155.586 105.268 155.945 105.555C156.31 105.836 156.789 105.977 157.383 105.977C157.93 105.977 158.367 105.867 158.695 105.648C159.029 105.424 159.195 105.128 159.195 104.758ZM165.914 105.977C166.43 105.977 166.88 105.82 167.266 105.508C167.651 105.195 167.865 104.805 167.906 104.336H169.273C169.247 104.82 169.081 105.281 168.773 105.719C168.466 106.156 168.055 106.505 167.539 106.766C167.029 107.026 166.487 107.156 165.914 107.156C164.763 107.156 163.846 106.773 163.164 106.008C162.487 105.237 162.148 104.185 162.148 102.852V102.609C162.148 101.786 162.299 101.055 162.602 100.414C162.904 99.7734 163.336 99.276 163.898 98.9219C164.466 98.5677 165.135 98.3906 165.906 98.3906C166.854 98.3906 167.641 98.6745 168.266 99.2422C168.896 99.8099 169.232 100.547 169.273 101.453H167.906C167.865 100.906 167.656 100.458 167.281 100.109C166.911 99.7552 166.453 99.5781 165.906 99.5781C165.172 99.5781 164.602 99.8438 164.195 100.375C163.794 100.901 163.594 101.664 163.594 102.664V102.938C163.594 103.911 163.794 104.661 164.195 105.188C164.596 105.714 165.169 105.977 165.914 105.977ZM172.469 107H171.023V98.5469H172.469V107ZM170.906 96.3047C170.906 96.0703 170.977 95.8724 171.117 95.7109C171.263 95.5495 171.477 95.4688 171.758 95.4688C172.039 95.4688 172.253 95.5495 172.398 95.7109C172.544 95.8724 172.617 96.0703 172.617 96.3047C172.617 96.5391 172.544 96.7344 172.398 96.8906C172.253 97.0469 172.039 97.125 171.758 97.125C171.477 97.125 171.263 97.0469 171.117 96.8906C170.977 96.7344 170.906 96.5391 170.906 96.3047ZM176.156 98.5469L176.203 99.6094C176.849 98.7969 177.693 98.3906 178.734 98.3906C180.521 98.3906 181.422 99.3984 181.438 101.414V107H179.992V101.406C179.987 100.797 179.846 100.346 179.57 100.055C179.299 99.763 178.875 99.6172 178.297 99.6172C177.828 99.6172 177.417 99.7422 177.062 99.9922C176.708 100.242 176.432 100.57 176.234 100.977V107H174.789V98.5469H176.156ZM183.273 102.703C183.273 101.385 183.578 100.339 184.188 99.5625C184.797 98.7812 185.604 98.3906 186.609 98.3906C187.641 98.3906 188.445 98.7552 189.023 99.4844L189.094 98.5469H190.414V106.797C190.414 107.891 190.089 108.753 189.438 109.383C188.792 110.013 187.922 110.328 186.828 110.328C186.219 110.328 185.622 110.198 185.039 109.938C184.456 109.677 184.01 109.32 183.703 108.867L184.453 108C185.073 108.766 185.831 109.148 186.727 109.148C187.43 109.148 187.977 108.951 188.367 108.555C188.763 108.159 188.961 107.602 188.961 106.883V106.156C188.383 106.823 187.594 107.156 186.594 107.156C185.604 107.156 184.802 106.758 184.188 105.961C183.578 105.164 183.273 104.078 183.273 102.703ZM184.727 102.867C184.727 103.82 184.922 104.57 185.312 105.117C185.703 105.659 186.25 105.93 186.953 105.93C187.865 105.93 188.534 105.516 188.961 104.688V100.828C188.518 100.021 187.854 99.6172 186.969 99.6172C186.266 99.6172 185.716 99.8906 185.32 100.438C184.924 100.984 184.727 101.794 184.727 102.867ZM200.078 107.156C198.932 107.156 198 106.781 197.281 106.031C196.562 105.276 196.203 104.268 196.203 103.008V102.742C196.203 101.904 196.362 101.156 196.68 100.5C197.003 99.8385 197.451 99.3229 198.023 98.9531C198.602 98.5781 199.227 98.3906 199.898 98.3906C200.997 98.3906 201.852 98.7526 202.461 99.4766C203.07 100.201 203.375 101.237 203.375 102.586V103.188H197.648C197.669 104.021 197.911 104.695 198.375 105.211C198.844 105.721 199.438 105.977 200.156 105.977C200.667 105.977 201.099 105.872 201.453 105.664C201.807 105.456 202.117 105.18 202.383 104.836L203.266 105.523C202.557 106.612 201.495 107.156 200.078 107.156ZM199.898 99.5781C199.315 99.5781 198.826 99.7917 198.43 100.219C198.034 100.641 197.789 101.234 197.695 102H201.93V101.891C201.888 101.156 201.69 100.589 201.336 100.188C200.982 99.7812 200.503 99.5781 199.898 99.5781ZM206.625 107H205.18V95H206.625V107ZM210.516 107H209.07V98.5469H210.516V107ZM208.953 96.3047C208.953 96.0703 209.023 95.8724 209.164 95.7109C209.31 95.5495 209.523 95.4688 209.805 95.4688C210.086 95.4688 210.299 95.5495 210.445 95.7109C210.591 95.8724 210.664 96.0703 210.664 96.3047C210.664 96.5391 210.591 96.7344 210.445 96.8906C210.299 97.0469 210.086 97.125 209.805 97.125C209.523 97.125 209.31 97.0469 209.164 96.8906C209.023 96.7344 208.953 96.5391 208.953 96.3047ZM214.797 96.5V98.5469H216.375V99.6641H214.797V104.906C214.797 105.245 214.867 105.5 215.008 105.672C215.148 105.839 215.388 105.922 215.727 105.922C215.893 105.922 216.122 105.891 216.414 105.828V107C216.034 107.104 215.664 107.156 215.305 107.156C214.659 107.156 214.172 106.961 213.844 106.57C213.516 106.18 213.352 105.625 213.352 104.906V99.6641H211.812V98.5469H213.352V96.5H214.797ZM218.023 109.266L217.203 108.703C217.693 108.021 217.948 107.318 217.969 106.594V105.289H219.383V106.422C219.383 106.948 219.253 107.474 218.992 108C218.737 108.526 218.414 108.948 218.023 109.266ZM230.102 104.758C230.102 104.367 229.953 104.065 229.656 103.852C229.365 103.633 228.852 103.445 228.117 103.289C227.388 103.133 226.807 102.945 226.375 102.727C225.948 102.508 225.63 102.247 225.422 101.945C225.219 101.643 225.117 101.284 225.117 100.867C225.117 100.174 225.409 99.5885 225.992 99.1094C226.581 98.6302 227.331 98.3906 228.242 98.3906C229.201 98.3906 229.977 98.638 230.57 99.1328C231.169 99.6276 231.469 100.26 231.469 101.031H230.016C230.016 100.635 229.846 100.294 229.508 100.008C229.174 99.7214 228.753 99.5781 228.242 99.5781C227.716 99.5781 227.305 99.6927 227.008 99.9219C226.711 100.151 226.562 100.451 226.562 100.82C226.562 101.169 226.701 101.432 226.977 101.609C227.253 101.786 227.75 101.956 228.469 102.117C229.193 102.279 229.779 102.471 230.227 102.695C230.674 102.919 231.005 103.19 231.219 103.508C231.438 103.82 231.547 104.203 231.547 104.656C231.547 105.411 231.245 106.018 230.641 106.477C230.036 106.93 229.253 107.156 228.289 107.156C227.612 107.156 227.013 107.036 226.492 106.797C225.971 106.557 225.562 106.224 225.266 105.797C224.974 105.365 224.828 104.898 224.828 104.398H226.273C226.299 104.883 226.492 105.268 226.852 105.555C227.216 105.836 227.695 105.977 228.289 105.977C228.836 105.977 229.273 105.867 229.602 105.648C229.935 105.424 230.102 105.128 230.102 104.758ZM236.938 107.156C235.792 107.156 234.859 106.781 234.141 106.031C233.422 105.276 233.062 104.268 233.062 103.008V102.742C233.062 101.904 233.221 101.156 233.539 100.5C233.862 99.8385 234.31 99.3229 234.883 98.9531C235.461 98.5781 236.086 98.3906 236.758 98.3906C237.857 98.3906 238.711 98.7526 239.32 99.4766C239.93 100.201 240.234 101.237 240.234 102.586V103.188H234.508C234.529 104.021 234.771 104.695 235.234 105.211C235.703 105.721 236.297 105.977 237.016 105.977C237.526 105.977 237.958 105.872 238.312 105.664C238.667 105.456 238.977 105.18 239.242 104.836L240.125 105.523C239.417 106.612 238.354 107.156 236.938 107.156ZM236.758 99.5781C236.174 99.5781 235.685 99.7917 235.289 100.219C234.893 100.641 234.648 101.234 234.555 102H238.789V101.891C238.747 101.156 238.549 100.589 238.195 100.188C237.841 99.7812 237.362 99.5781 236.758 99.5781ZM241.562 102.703C241.562 101.406 241.87 100.365 242.484 99.5781C243.099 98.7865 243.904 98.3906 244.898 98.3906C245.888 98.3906 246.672 98.7292 247.25 99.4062V95H248.695V107H247.367L247.297 106.094C246.719 106.802 245.914 107.156 244.883 107.156C243.904 107.156 243.104 106.755 242.484 105.953C241.87 105.151 241.562 104.104 241.562 102.812V102.703ZM243.008 102.867C243.008 103.826 243.206 104.576 243.602 105.117C243.997 105.659 244.544 105.93 245.242 105.93C246.159 105.93 246.828 105.518 247.25 104.695V100.812C246.818 100.016 246.154 99.6172 245.258 99.6172C244.549 99.6172 243.997 99.8906 243.602 100.438C243.206 100.984 243.008 101.794 243.008 102.867ZM254.562 102.703C254.562 101.406 254.87 100.365 255.484 99.5781C256.099 98.7865 256.904 98.3906 257.898 98.3906C258.888 98.3906 259.672 98.7292 260.25 99.4062V95H261.695V107H260.367L260.297 106.094C259.719 106.802 258.914 107.156 257.883 107.156C256.904 107.156 256.104 106.755 255.484 105.953C254.87 105.151 254.562 104.104 254.562 102.812V102.703ZM256.008 102.867C256.008 103.826 256.206 104.576 256.602 105.117C256.997 105.659 257.544 105.93 258.242 105.93C259.159 105.93 259.828 105.518 260.25 104.695V100.812C259.818 100.016 259.154 99.6172 258.258 99.6172C257.549 99.6172 256.997 99.8906 256.602 100.438C256.206 100.984 256.008 101.794 256.008 102.867ZM263.562 102.695C263.562 101.867 263.724 101.122 264.047 100.461C264.375 99.7995 264.828 99.2891 265.406 98.9297C265.99 98.5703 266.654 98.3906 267.398 98.3906C268.549 98.3906 269.479 98.7891 270.188 99.5859C270.901 100.383 271.258 101.443 271.258 102.766V102.867C271.258 103.69 271.099 104.43 270.781 105.086C270.469 105.737 270.018 106.245 269.43 106.609C268.846 106.974 268.174 107.156 267.414 107.156C266.268 107.156 265.339 106.758 264.625 105.961C263.917 105.164 263.562 104.109 263.562 102.797V102.695ZM265.016 102.867C265.016 103.805 265.232 104.557 265.664 105.125C266.102 105.693 266.685 105.977 267.414 105.977C268.148 105.977 268.732 105.69 269.164 105.117C269.596 104.539 269.812 103.732 269.812 102.695C269.812 101.768 269.591 101.018 269.148 100.445C268.711 99.8672 268.128 99.5781 267.398 99.5781C266.685 99.5781 266.109 99.862 265.672 100.43C265.234 100.997 265.016 101.81 265.016 102.867ZM26.0312 126.156C24.8854 126.156 23.9531 125.781 23.2344 125.031C22.5156 124.276 22.1562 123.268 22.1562 122.008V121.742C22.1562 120.904 22.3151 120.156 22.6328 119.5C22.9557 118.839 23.4036 118.323 23.9766 117.953C24.5547 117.578 25.1797 117.391 25.8516 117.391C26.9505 117.391 27.8047 117.753 28.4141 118.477C29.0234 119.201 29.3281 120.237 29.3281 121.586V122.188H23.6016C23.6224 123.021 23.8646 123.695 24.3281 124.211C24.7969 124.721 25.3906 124.977 26.1094 124.977C26.6198 124.977 27.0521 124.872 27.4062 124.664C27.7604 124.456 28.0703 124.18 28.3359 123.836L29.2188 124.523C28.5104 125.612 27.4479 126.156 26.0312 126.156ZM25.8516 118.578C25.2682 118.578 24.7786 118.792 24.3828 119.219C23.987 119.641 23.7422 120.234 23.6484 121H27.8828V120.891C27.8411 120.156 27.6432 119.589 27.2891 119.188C26.9349 118.781 26.4557 118.578 25.8516 118.578ZM32.5781 126H31.1328V117.547H32.5781V126ZM31.0156 115.305C31.0156 115.07 31.0859 114.872 31.2266 114.711C31.3724 114.549 31.5859 114.469 31.8672 114.469C32.1484 114.469 32.362 114.549 32.5078 114.711C32.6536 114.872 32.7266 115.07 32.7266 115.305C32.7266 115.539 32.6536 115.734 32.5078 115.891C32.362 116.047 32.1484 116.125 31.8672 116.125C31.5859 116.125 31.3724 116.047 31.2266 115.891C31.0859 115.734 31.0156 115.539 31.0156 115.305ZM40.1172 125.164C39.5547 125.826 38.7292 126.156 37.6406 126.156C36.7396 126.156 36.0521 125.896 35.5781 125.375C35.1094 124.849 34.8724 124.073 34.8672 123.047V117.547H36.3125V123.008C36.3125 124.289 36.8333 124.93 37.875 124.93C38.9792 124.93 39.7135 124.518 40.0781 123.695V117.547H41.5234V126H40.1484L40.1172 125.164ZM48.6484 123.758C48.6484 123.367 48.5 123.065 48.2031 122.852C47.9115 122.633 47.3984 122.445 46.6641 122.289C45.9349 122.133 45.3542 121.945 44.9219 121.727C44.4948 121.508 44.1771 121.247 43.9688 120.945C43.7656 120.643 43.6641 120.284 43.6641 119.867C43.6641 119.174 43.9557 118.589 44.5391 118.109C45.1276 117.63 45.8776 117.391 46.7891 117.391C47.7474 117.391 48.5234 117.638 49.1172 118.133C49.7161 118.628 50.0156 119.26 50.0156 120.031H48.5625C48.5625 119.635 48.3932 119.294 48.0547 119.008C47.7214 118.721 47.2995 118.578 46.7891 118.578C46.263 118.578 45.8516 118.693 45.5547 118.922C45.2578 119.151 45.1094 119.451 45.1094 119.82C45.1094 120.169 45.2474 120.432 45.5234 120.609C45.7995 120.786 46.2969 120.956 47.0156 121.117C47.7396 121.279 48.3255 121.471 48.7734 121.695C49.2214 121.919 49.5521 122.19 49.7656 122.508C49.9844 122.82 50.0938 123.203 50.0938 123.656C50.0938 124.411 49.7917 125.018 49.1875 125.477C48.5833 125.93 47.7995 126.156 46.8359 126.156C46.1589 126.156 45.5599 126.036 45.0391 125.797C44.5182 125.557 44.1094 125.224 43.8125 124.797C43.5208 124.365 43.375 123.898 43.375 123.398H44.8203C44.8464 123.883 45.0391 124.268 45.3984 124.555C45.763 124.836 46.2422 124.977 46.8359 124.977C47.3828 124.977 47.8203 124.867 48.1484 124.648C48.4818 124.424 48.6484 124.128 48.6484 123.758ZM53.3359 117.547L53.375 118.484C53.9948 117.755 54.8307 117.391 55.8828 117.391C57.0651 117.391 57.8698 117.844 58.2969 118.75C58.5781 118.344 58.9427 118.016 59.3906 117.766C59.8438 117.516 60.3776 117.391 60.9922 117.391C62.8464 117.391 63.7891 118.372 63.8203 120.336V126H62.375V120.422C62.375 119.818 62.237 119.367 61.9609 119.07C61.6849 118.768 61.2214 118.617 60.5703 118.617C60.0339 118.617 59.5885 118.779 59.2344 119.102C58.8802 119.419 58.6745 119.849 58.6172 120.391V126H57.1641V120.461C57.1641 119.232 56.5625 118.617 55.3594 118.617C54.4115 118.617 53.763 119.021 53.4141 119.828V126H51.9688V117.547H53.3359ZM65.625 121.695C65.625 120.867 65.7865 120.122 66.1094 119.461C66.4375 118.799 66.8906 118.289 67.4688 117.93C68.0521 117.57 68.7161 117.391 69.4609 117.391C70.612 117.391 71.5417 117.789 72.25 118.586C72.9635 119.383 73.3203 120.443 73.3203 121.766V121.867C73.3203 122.69 73.1615 123.43 72.8438 124.086C72.5312 124.737 72.0807 125.245 71.4922 125.609C70.9089 125.974 70.237 126.156 69.4766 126.156C68.3307 126.156 67.401 125.758 66.6875 124.961C65.9792 124.164 65.625 123.109 65.625 121.797V121.695ZM67.0781 121.867C67.0781 122.805 67.2943 123.557 67.7266 124.125C68.1641 124.693 68.7474 124.977 69.4766 124.977C70.2109 124.977 70.7943 124.69 71.2266 124.117C71.6589 123.539 71.875 122.732 71.875 121.695C71.875 120.768 71.6536 120.018 71.2109 119.445C70.7734 118.867 70.1901 118.578 69.4609 118.578C68.7474 118.578 68.1719 118.862 67.7344 119.43C67.2969 119.997 67.0781 120.81 67.0781 121.867ZM74.7812 121.703C74.7812 120.406 75.0885 119.365 75.7031 118.578C76.3177 117.786 77.1224 117.391 78.1172 117.391C79.1068 117.391 79.8906 117.729 80.4688 118.406V114H81.9141V126H80.5859L80.5156 125.094C79.9375 125.802 79.1328 126.156 78.1016 126.156C77.1224 126.156 76.3229 125.755 75.7031 124.953C75.0885 124.151 74.7812 123.104 74.7812 121.812V121.703ZM76.2266 121.867C76.2266 122.826 76.4245 123.576 76.8203 124.117C77.2161 124.659 77.763 124.93 78.4609 124.93C79.3776 124.93 80.0469 124.518 80.4688 123.695V119.812C80.0365 119.016 79.3724 118.617 78.4766 118.617C77.7682 118.617 77.2161 118.891 76.8203 119.438C76.4245 119.984 76.2266 120.794 76.2266 121.867ZM90.0938 115.5V117.547H91.6719V118.664H90.0938V123.906C90.0938 124.245 90.1641 124.5 90.3047 124.672C90.4453 124.839 90.6849 124.922 91.0234 124.922C91.1901 124.922 91.4193 124.891 91.7109 124.828V126C91.3307 126.104 90.9609 126.156 90.6016 126.156C89.9557 126.156 89.4688 125.961 89.1406 125.57C88.8125 125.18 88.6484 124.625 88.6484 123.906V118.664H87.1094V117.547H88.6484V115.5H90.0938ZM96.875 126.156C95.7292 126.156 94.7969 125.781 94.0781 125.031C93.3594 124.276 93 123.268 93 122.008V121.742C93 120.904 93.1589 120.156 93.4766 119.5C93.7995 118.839 94.2474 118.323 94.8203 117.953C95.3984 117.578 96.0234 117.391 96.6953 117.391C97.7943 117.391 98.6484 117.753 99.2578 118.477C99.8672 119.201 100.172 120.237 100.172 121.586V122.188H94.4453C94.4661 123.021 94.7083 123.695 95.1719 124.211C95.6406 124.721 96.2344 124.977 96.9531 124.977C97.4635 124.977 97.8958 124.872 98.25 124.664C98.6042 124.456 98.9141 124.18 99.1797 123.836L100.062 124.523C99.3542 125.612 98.2917 126.156 96.875 126.156ZM96.6953 118.578C96.112 118.578 95.6224 118.792 95.2266 119.219C94.8307 119.641 94.5859 120.234 94.4922 121H98.7266V120.891C98.6849 120.156 98.487 119.589 98.1328 119.188C97.7786 118.781 97.2995 118.578 96.6953 118.578ZM103.211 117.547L103.25 118.484C103.87 117.755 104.706 117.391 105.758 117.391C106.94 117.391 107.745 117.844 108.172 118.75C108.453 118.344 108.818 118.016 109.266 117.766C109.719 117.516 110.253 117.391 110.867 117.391C112.721 117.391 113.664 118.372 113.695 120.336V126H112.25V120.422C112.25 119.818 112.112 119.367 111.836 119.07C111.56 118.768 111.096 118.617 110.445 118.617C109.909 118.617 109.464 118.779 109.109 119.102C108.755 119.419 108.549 119.849 108.492 120.391V126H107.039V120.461C107.039 119.232 106.438 118.617 105.234 118.617C104.286 118.617 103.638 119.021 103.289 119.828V126H101.844V117.547H103.211ZM123.023 121.867C123.023 123.154 122.729 124.19 122.141 124.977C121.552 125.763 120.755 126.156 119.75 126.156C118.724 126.156 117.917 125.831 117.328 125.18V129.25H115.883V117.547H117.203L117.273 118.484C117.862 117.755 118.68 117.391 119.727 117.391C120.742 117.391 121.544 117.773 122.133 118.539C122.727 119.305 123.023 120.37 123.023 121.734V121.867ZM121.578 121.703C121.578 120.75 121.375 119.997 120.969 119.445C120.562 118.893 120.005 118.617 119.297 118.617C118.422 118.617 117.766 119.005 117.328 119.781V123.82C117.76 124.591 118.422 124.977 119.312 124.977C120.005 124.977 120.555 124.703 120.961 124.156C121.372 123.604 121.578 122.786 121.578 121.703ZM124.484 121.695C124.484 120.867 124.646 120.122 124.969 119.461C125.297 118.799 125.75 118.289 126.328 117.93C126.911 117.57 127.576 117.391 128.32 117.391C129.471 117.391 130.401 117.789 131.109 118.586C131.823 119.383 132.18 120.443 132.18 121.766V121.867C132.18 122.69 132.021 123.43 131.703 124.086C131.391 124.737 130.94 125.245 130.352 125.609C129.768 125.974 129.096 126.156 128.336 126.156C127.19 126.156 126.26 125.758 125.547 124.961C124.839 124.164 124.484 123.109 124.484 121.797V121.695ZM125.938 121.867C125.938 122.805 126.154 123.557 126.586 124.125C127.023 124.693 127.607 124.977 128.336 124.977C129.07 124.977 129.654 124.69 130.086 124.117C130.518 123.539 130.734 122.732 130.734 121.695C130.734 120.768 130.513 120.018 130.07 119.445C129.633 118.867 129.049 118.578 128.32 118.578C127.607 118.578 127.031 118.862 126.594 119.43C126.156 119.997 125.938 120.81 125.938 121.867ZM138.078 118.844C137.859 118.807 137.622 118.789 137.367 118.789C136.419 118.789 135.776 119.193 135.438 120V126H133.992V117.547H135.398L135.422 118.523C135.896 117.768 136.568 117.391 137.438 117.391C137.719 117.391 137.932 117.427 138.078 117.5V118.844ZM144.953 126H143.508V117.547H144.953V126ZM143.391 115.305C143.391 115.07 143.461 114.872 143.602 114.711C143.747 114.549 143.961 114.469 144.242 114.469C144.523 114.469 144.737 114.549 144.883 114.711C145.029 114.872 145.102 115.07 145.102 115.305C145.102 115.539 145.029 115.734 144.883 115.891C144.737 116.047 144.523 116.125 144.242 116.125C143.961 116.125 143.747 116.047 143.602 115.891C143.461 115.734 143.391 115.539 143.391 115.305ZM148.641 117.547L148.688 118.609C149.333 117.797 150.177 117.391 151.219 117.391C153.005 117.391 153.906 118.398 153.922 120.414V126H152.477V120.406C152.471 119.797 152.331 119.346 152.055 119.055C151.784 118.763 151.359 118.617 150.781 118.617C150.312 118.617 149.901 118.742 149.547 118.992C149.193 119.242 148.917 119.57 148.719 119.977V126H147.273V117.547H148.641ZM159.492 124.977C160.008 124.977 160.458 124.82 160.844 124.508C161.229 124.195 161.443 123.805 161.484 123.336H162.852C162.826 123.82 162.659 124.281 162.352 124.719C162.044 125.156 161.633 125.505 161.117 125.766C160.607 126.026 160.065 126.156 159.492 126.156C158.341 126.156 157.424 125.773 156.742 125.008C156.065 124.237 155.727 123.185 155.727 121.852V121.609C155.727 120.786 155.878 120.055 156.18 119.414C156.482 118.773 156.914 118.276 157.477 117.922C158.044 117.568 158.714 117.391 159.484 117.391C160.432 117.391 161.219 117.674 161.844 118.242C162.474 118.81 162.81 119.547 162.852 120.453H161.484C161.443 119.906 161.234 119.458 160.859 119.109C160.49 118.755 160.031 118.578 159.484 118.578C158.75 118.578 158.18 118.844 157.773 119.375C157.372 119.901 157.172 120.664 157.172 121.664V121.938C157.172 122.911 157.372 123.661 157.773 124.188C158.174 124.714 158.747 124.977 159.492 124.977ZM166.047 126H164.602V117.547H166.047V126ZM164.484 115.305C164.484 115.07 164.555 114.872 164.695 114.711C164.841 114.549 165.055 114.469 165.336 114.469C165.617 114.469 165.831 114.549 165.977 114.711C166.122 114.872 166.195 115.07 166.195 115.305C166.195 115.539 166.122 115.734 165.977 115.891C165.831 116.047 165.617 116.125 165.336 116.125C165.055 116.125 164.841 116.047 164.695 115.891C164.555 115.734 164.484 115.539 164.484 115.305ZM168.016 121.703C168.016 120.406 168.323 119.365 168.938 118.578C169.552 117.786 170.357 117.391 171.352 117.391C172.341 117.391 173.125 117.729 173.703 118.406V114H175.148V126H173.82L173.75 125.094C173.172 125.802 172.367 126.156 171.336 126.156C170.357 126.156 169.557 125.755 168.938 124.953C168.323 124.151 168.016 123.104 168.016 121.812V121.703ZM169.461 121.867C169.461 122.826 169.659 123.576 170.055 124.117C170.451 124.659 170.997 124.93 171.695 124.93C172.612 124.93 173.281 124.518 173.703 123.695V119.812C173.271 119.016 172.607 118.617 171.711 118.617C171.003 118.617 170.451 118.891 170.055 119.438C169.659 119.984 169.461 120.794 169.461 121.867ZM178.969 126H177.523V117.547H178.969V126ZM177.406 115.305C177.406 115.07 177.477 114.872 177.617 114.711C177.763 114.549 177.977 114.469 178.258 114.469C178.539 114.469 178.753 114.549 178.898 114.711C179.044 114.872 179.117 115.07 179.117 115.305C179.117 115.539 179.044 115.734 178.898 115.891C178.753 116.047 178.539 116.125 178.258 116.125C177.977 116.125 177.763 116.047 177.617 115.891C177.477 115.734 177.406 115.539 177.406 115.305ZM180.938 121.703C180.938 120.406 181.245 119.365 181.859 118.578C182.474 117.786 183.279 117.391 184.273 117.391C185.263 117.391 186.047 117.729 186.625 118.406V114H188.07V126H186.742L186.672 125.094C186.094 125.802 185.289 126.156 184.258 126.156C183.279 126.156 182.479 125.755 181.859 124.953C181.245 124.151 180.938 123.104 180.938 121.812V121.703ZM182.383 121.867C182.383 122.826 182.581 123.576 182.977 124.117C183.372 124.659 183.919 124.93 184.617 124.93C185.534 124.93 186.203 124.518 186.625 123.695V119.812C186.193 119.016 185.529 118.617 184.633 118.617C183.924 118.617 183.372 118.891 182.977 119.438C182.581 119.984 182.383 120.794 182.383 121.867ZM195.539 125.164C194.977 125.826 194.151 126.156 193.062 126.156C192.161 126.156 191.474 125.896 191 125.375C190.531 124.849 190.294 124.073 190.289 123.047V117.547H191.734V123.008C191.734 124.289 192.255 124.93 193.297 124.93C194.401 124.93 195.135 124.518 195.5 123.695V117.547H196.945V126H195.57L195.539 125.164ZM200.516 117.547L200.562 118.609C201.208 117.797 202.052 117.391 203.094 117.391C204.88 117.391 205.781 118.398 205.797 120.414V126H204.352V120.406C204.346 119.797 204.206 119.346 203.93 119.055C203.659 118.763 203.234 118.617 202.656 118.617C202.188 118.617 201.776 118.742 201.422 118.992C201.068 119.242 200.792 119.57 200.594 119.977V126H199.148V117.547H200.516ZM209.938 115.5V117.547H211.516V118.664H209.938V123.906C209.938 124.245 210.008 124.5 210.148 124.672C210.289 124.839 210.529 124.922 210.867 124.922C211.034 124.922 211.263 124.891 211.555 124.828V126C211.174 126.104 210.805 126.156 210.445 126.156C209.799 126.156 209.312 125.961 208.984 125.57C208.656 125.18 208.492 124.625 208.492 123.906V118.664H206.953V117.547H208.492V115.5H209.938ZM222.398 125.164C221.836 125.826 221.01 126.156 219.922 126.156C219.021 126.156 218.333 125.896 217.859 125.375C217.391 124.849 217.154 124.073 217.148 123.047V117.547H218.594V123.008C218.594 124.289 219.115 124.93 220.156 124.93C221.26 124.93 221.995 124.518 222.359 123.695V117.547H223.805V126H222.43L222.398 125.164ZM227.969 115.5V117.547H229.547V118.664H227.969V123.906C227.969 124.245 228.039 124.5 228.18 124.672C228.32 124.839 228.56 124.922 228.898 124.922C229.065 124.922 229.294 124.891 229.586 124.828V126C229.206 126.104 228.836 126.156 228.477 126.156C227.831 126.156 227.344 125.961 227.016 125.57C226.688 125.18 226.523 124.625 226.523 123.906V118.664H224.984V117.547H226.523V115.5H227.969ZM236.781 126H235.336V114H236.781V126ZM244.32 126C244.237 125.833 244.169 125.536 244.117 125.109C243.445 125.807 242.643 126.156 241.711 126.156C240.878 126.156 240.193 125.922 239.656 125.453C239.125 124.979 238.859 124.38 238.859 123.656C238.859 122.776 239.193 122.094 239.859 121.609C240.531 121.12 241.474 120.875 242.688 120.875H244.094V120.211C244.094 119.706 243.943 119.305 243.641 119.008C243.339 118.706 242.893 118.555 242.305 118.555C241.789 118.555 241.357 118.685 241.008 118.945C240.659 119.206 240.484 119.521 240.484 119.891H239.031C239.031 119.469 239.18 119.062 239.477 118.672C239.779 118.276 240.185 117.964 240.695 117.734C241.211 117.505 241.776 117.391 242.391 117.391C243.365 117.391 244.128 117.635 244.68 118.125C245.232 118.609 245.518 119.279 245.539 120.133V124.023C245.539 124.799 245.638 125.417 245.836 125.875V126H244.32ZM241.922 124.898C242.375 124.898 242.805 124.781 243.211 124.547C243.617 124.312 243.911 124.008 244.094 123.633V121.898H242.961C241.19 121.898 240.305 122.417 240.305 123.453C240.305 123.906 240.456 124.26 240.758 124.516C241.06 124.771 241.448 124.898 241.922 124.898ZM254.961 121.867C254.961 123.159 254.664 124.198 254.07 124.984C253.477 125.766 252.68 126.156 251.68 126.156C250.612 126.156 249.786 125.779 249.203 125.023L249.133 126H247.805V114H249.25V118.477C249.833 117.753 250.638 117.391 251.664 117.391C252.69 117.391 253.495 117.779 254.078 118.555C254.667 119.331 254.961 120.393 254.961 121.742V121.867ZM253.516 121.703C253.516 120.719 253.326 119.958 252.945 119.422C252.565 118.885 252.018 118.617 251.305 118.617C250.352 118.617 249.667 119.06 249.25 119.945V123.602C249.693 124.487 250.383 124.93 251.32 124.93C252.013 124.93 252.552 124.661 252.938 124.125C253.323 123.589 253.516 122.781 253.516 121.703ZM256.406 121.695C256.406 120.867 256.568 120.122 256.891 119.461C257.219 118.799 257.672 118.289 258.25 117.93C258.833 117.57 259.497 117.391 260.242 117.391C261.393 117.391 262.323 117.789 263.031 118.586C263.745 119.383 264.102 120.443 264.102 121.766V121.867C264.102 122.69 263.943 123.43 263.625 124.086C263.312 124.737 262.862 125.245 262.273 125.609C261.69 125.974 261.018 126.156 260.258 126.156C259.112 126.156 258.182 125.758 257.469 124.961C256.76 124.164 256.406 123.109 256.406 121.797V121.695ZM257.859 121.867C257.859 122.805 258.076 123.557 258.508 124.125C258.945 124.693 259.529 124.977 260.258 124.977C260.992 124.977 261.576 124.69 262.008 124.117C262.44 123.539 262.656 122.732 262.656 121.695C262.656 120.768 262.435 120.018 261.992 119.445C261.555 118.867 260.971 118.578 260.242 118.578C259.529 118.578 258.953 118.862 258.516 119.43C258.078 119.997 257.859 120.81 257.859 121.867ZM270 118.844C269.781 118.807 269.544 118.789 269.289 118.789C268.341 118.789 267.698 119.193 267.359 120V126H265.914V117.547H267.32L267.344 118.523C267.818 117.768 268.49 117.391 269.359 117.391C269.641 117.391 269.854 117.427 270 117.5V118.844ZM274.688 126.156C273.542 126.156 272.609 125.781 271.891 125.031C271.172 124.276 270.812 123.268 270.812 122.008V121.742C270.812 120.904 270.971 120.156 271.289 119.5C271.612 118.839 272.06 118.323 272.633 117.953C273.211 117.578 273.836 117.391 274.508 117.391C275.607 117.391 276.461 117.753 277.07 118.477C277.68 119.201 277.984 120.237 277.984 121.586V122.188H272.258C272.279 123.021 272.521 123.695 272.984 124.211C273.453 124.721 274.047 124.977 274.766 124.977C275.276 124.977 275.708 124.872 276.062 124.664C276.417 124.456 276.727 124.18 276.992 123.836L277.875 124.523C277.167 125.612 276.104 126.156 274.688 126.156ZM274.508 118.578C273.924 118.578 273.435 118.792 273.039 119.219C272.643 119.641 272.398 120.234 272.305 121H276.539V120.891C276.497 120.156 276.299 119.589 275.945 119.188C275.591 118.781 275.112 118.578 274.508 118.578ZM71.0391 145.156C69.8932 145.156 68.9609 144.781 68.2422 144.031C67.5234 143.276 67.1641 142.268 67.1641 141.008V140.742C67.1641 139.904 67.3229 139.156 67.6406 138.5C67.9635 137.839 68.4115 137.323 68.9844 136.953C69.5625 136.578 70.1875 136.391 70.8594 136.391C71.9583 136.391 72.8125 136.753 73.4219 137.477C74.0312 138.201 74.3359 139.237 74.3359 140.586V141.188H68.6094C68.6302 142.021 68.8724 142.695 69.3359 143.211C69.8047 143.721 70.3984 143.977 71.1172 143.977C71.6276 143.977 72.0599 143.872 72.4141 143.664C72.7682 143.456 73.0781 143.18 73.3438 142.836L74.2266 143.523C73.5182 144.612 72.4557 145.156 71.0391 145.156ZM70.8594 137.578C70.276 137.578 69.7865 137.792 69.3906 138.219C68.9948 138.641 68.75 139.234 68.6562 140H72.8906V139.891C72.849 139.156 72.651 138.589 72.2969 138.188C71.9427 137.781 71.4635 137.578 70.8594 137.578ZM77.9766 134.5V136.547H79.5547V137.664H77.9766V142.906C77.9766 143.245 78.0469 143.5 78.1875 143.672C78.3281 143.839 78.5677 143.922 78.9062 143.922C79.0729 143.922 79.3021 143.891 79.5938 143.828V145C79.2135 145.104 78.8438 145.156 78.4844 145.156C77.8385 145.156 77.3516 144.961 77.0234 144.57C76.6953 144.18 76.5312 143.625 76.5312 142.906V137.664H74.9922V136.547H76.5312V134.5H77.9766ZM84.8672 140.703C84.8672 139.406 85.1745 138.365 85.7891 137.578C86.4036 136.786 87.2083 136.391 88.2031 136.391C89.1927 136.391 89.9766 136.729 90.5547 137.406V133H92V145H90.6719L90.6016 144.094C90.0234 144.802 89.2188 145.156 88.1875 145.156C87.2083 145.156 86.4089 144.755 85.7891 143.953C85.1745 143.151 84.8672 142.104 84.8672 140.812V140.703ZM86.3125 140.867C86.3125 141.826 86.5104 142.576 86.9062 143.117C87.3021 143.659 87.849 143.93 88.5469 143.93C89.4635 143.93 90.1328 143.518 90.5547 142.695V138.812C90.1224 138.016 89.4583 137.617 88.5625 137.617C87.8542 137.617 87.3021 137.891 86.9062 138.438C86.5104 138.984 86.3125 139.794 86.3125 140.867ZM93.8672 140.695C93.8672 139.867 94.0286 139.122 94.3516 138.461C94.6797 137.799 95.1328 137.289 95.7109 136.93C96.2943 136.57 96.9583 136.391 97.7031 136.391C98.8542 136.391 99.7839 136.789 100.492 137.586C101.206 138.383 101.562 139.443 101.562 140.766V140.867C101.562 141.69 101.404 142.43 101.086 143.086C100.773 143.737 100.323 144.245 99.7344 144.609C99.151 144.974 98.4792 145.156 97.7188 145.156C96.5729 145.156 95.6432 144.758 94.9297 143.961C94.2214 143.164 93.8672 142.109 93.8672 140.797V140.695ZM95.3203 140.867C95.3203 141.805 95.5365 142.557 95.9688 143.125C96.4062 143.693 96.9896 143.977 97.7188 143.977C98.4531 143.977 99.0365 143.69 99.4688 143.117C99.901 142.539 100.117 141.732 100.117 140.695C100.117 139.768 99.8958 139.018 99.4531 138.445C99.0156 137.867 98.4323 137.578 97.7031 137.578C96.9896 137.578 96.4141 137.862 95.9766 138.43C95.5391 138.997 95.3203 139.81 95.3203 140.867ZM104.945 145H103.5V133H104.945V145ZM106.883 140.695C106.883 139.867 107.044 139.122 107.367 138.461C107.695 137.799 108.148 137.289 108.727 136.93C109.31 136.57 109.974 136.391 110.719 136.391C111.87 136.391 112.799 136.789 113.508 137.586C114.221 138.383 114.578 139.443 114.578 140.766V140.867C114.578 141.69 114.419 142.43 114.102 143.086C113.789 143.737 113.339 144.245 112.75 144.609C112.167 144.974 111.495 145.156 110.734 145.156C109.589 145.156 108.659 144.758 107.945 143.961C107.237 143.164 106.883 142.109 106.883 140.797V140.695ZM108.336 140.867C108.336 141.805 108.552 142.557 108.984 143.125C109.422 143.693 110.005 143.977 110.734 143.977C111.469 143.977 112.052 143.69 112.484 143.117C112.917 142.539 113.133 141.732 113.133 140.695C113.133 139.768 112.911 139.018 112.469 138.445C112.031 137.867 111.448 137.578 110.719 137.578C110.005 137.578 109.43 137.862 108.992 138.43C108.555 138.997 108.336 139.81 108.336 140.867ZM120.477 137.844C120.258 137.807 120.021 137.789 119.766 137.789C118.818 137.789 118.174 138.193 117.836 139V145H116.391V136.547H117.797L117.82 137.523C118.294 136.768 118.966 136.391 119.836 136.391C120.117 136.391 120.331 136.427 120.477 136.5V137.844ZM125.164 145.156C124.018 145.156 123.086 144.781 122.367 144.031C121.648 143.276 121.289 142.268 121.289 141.008V140.742C121.289 139.904 121.448 139.156 121.766 138.5C122.089 137.839 122.536 137.323 123.109 136.953C123.688 136.578 124.312 136.391 124.984 136.391C126.083 136.391 126.938 136.753 127.547 137.477C128.156 138.201 128.461 139.237 128.461 140.586V141.188H122.734C122.755 142.021 122.997 142.695 123.461 143.211C123.93 143.721 124.523 143.977 125.242 143.977C125.753 143.977 126.185 143.872 126.539 143.664C126.893 143.456 127.203 143.18 127.469 142.836L128.352 143.523C127.643 144.612 126.581 145.156 125.164 145.156ZM124.984 137.578C124.401 137.578 123.911 137.792 123.516 138.219C123.12 138.641 122.875 139.234 122.781 140H127.016V139.891C126.974 139.156 126.776 138.589 126.422 138.188C126.068 137.781 125.589 137.578 124.984 137.578ZM135.469 136.547L135.508 137.484C136.128 136.755 136.964 136.391 138.016 136.391C139.198 136.391 140.003 136.844 140.43 137.75C140.711 137.344 141.076 137.016 141.523 136.766C141.977 136.516 142.51 136.391 143.125 136.391C144.979 136.391 145.922 137.372 145.953 139.336V145H144.508V139.422C144.508 138.818 144.37 138.367 144.094 138.07C143.818 137.768 143.354 137.617 142.703 137.617C142.167 137.617 141.721 137.779 141.367 138.102C141.013 138.419 140.807 138.849 140.75 139.391V145H139.297V139.461C139.297 138.232 138.695 137.617 137.492 137.617C136.544 137.617 135.896 138.021 135.547 138.828V145H134.102V136.547H135.469ZM153.359 145C153.276 144.833 153.208 144.536 153.156 144.109C152.484 144.807 151.682 145.156 150.75 145.156C149.917 145.156 149.232 144.922 148.695 144.453C148.164 143.979 147.898 143.38 147.898 142.656C147.898 141.776 148.232 141.094 148.898 140.609C149.57 140.12 150.513 139.875 151.727 139.875H153.133V139.211C153.133 138.706 152.982 138.305 152.68 138.008C152.378 137.706 151.932 137.555 151.344 137.555C150.828 137.555 150.396 137.685 150.047 137.945C149.698 138.206 149.523 138.521 149.523 138.891H148.07C148.07 138.469 148.219 138.062 148.516 137.672C148.818 137.276 149.224 136.964 149.734 136.734C150.25 136.505 150.815 136.391 151.43 136.391C152.404 136.391 153.167 136.635 153.719 137.125C154.271 137.609 154.557 138.279 154.578 139.133V143.023C154.578 143.799 154.677 144.417 154.875 144.875V145H153.359ZM150.961 143.898C151.414 143.898 151.844 143.781 152.25 143.547C152.656 143.312 152.951 143.008 153.133 142.633V140.898H152C150.229 140.898 149.344 141.417 149.344 142.453C149.344 142.906 149.495 143.26 149.797 143.516C150.099 143.771 150.487 143.898 150.961 143.898ZM156.5 140.703C156.5 139.385 156.805 138.339 157.414 137.562C158.023 136.781 158.831 136.391 159.836 136.391C160.867 136.391 161.672 136.755 162.25 137.484L162.32 136.547H163.641V144.797C163.641 145.891 163.315 146.753 162.664 147.383C162.018 148.013 161.148 148.328 160.055 148.328C159.445 148.328 158.849 148.198 158.266 147.938C157.682 147.677 157.237 147.32 156.93 146.867L157.68 146C158.299 146.766 159.057 147.148 159.953 147.148C160.656 147.148 161.203 146.951 161.594 146.555C161.99 146.159 162.188 145.602 162.188 144.883V144.156C161.609 144.823 160.82 145.156 159.82 145.156C158.831 145.156 158.029 144.758 157.414 143.961C156.805 143.164 156.5 142.078 156.5 140.703ZM157.953 140.867C157.953 141.82 158.148 142.57 158.539 143.117C158.93 143.659 159.477 143.93 160.18 143.93C161.091 143.93 161.76 143.516 162.188 142.688V138.828C161.745 138.021 161.081 137.617 160.195 137.617C159.492 137.617 158.943 137.891 158.547 138.438C158.151 138.984 157.953 139.794 157.953 140.867ZM167.195 136.547L167.242 137.609C167.888 136.797 168.732 136.391 169.773 136.391C171.56 136.391 172.461 137.398 172.477 139.414V145H171.031V139.406C171.026 138.797 170.885 138.346 170.609 138.055C170.339 137.763 169.914 137.617 169.336 137.617C168.867 137.617 168.456 137.742 168.102 137.992C167.747 138.242 167.471 138.57 167.273 138.977V145H165.828V136.547H167.195ZM179.875 145C179.792 144.833 179.724 144.536 179.672 144.109C179 144.807 178.198 145.156 177.266 145.156C176.432 145.156 175.747 144.922 175.211 144.453C174.68 143.979 174.414 143.38 174.414 142.656C174.414 141.776 174.747 141.094 175.414 140.609C176.086 140.12 177.029 139.875 178.242 139.875H179.648V139.211C179.648 138.706 179.497 138.305 179.195 138.008C178.893 137.706 178.448 137.555 177.859 137.555C177.344 137.555 176.911 137.685 176.562 137.945C176.214 138.206 176.039 138.521 176.039 138.891H174.586C174.586 138.469 174.734 138.062 175.031 137.672C175.333 137.276 175.74 136.964 176.25 136.734C176.766 136.505 177.331 136.391 177.945 136.391C178.919 136.391 179.682 136.635 180.234 137.125C180.786 137.609 181.073 138.279 181.094 139.133V143.023C181.094 143.799 181.193 144.417 181.391 144.875V145H179.875ZM177.477 143.898C177.93 143.898 178.359 143.781 178.766 143.547C179.172 143.312 179.466 143.008 179.648 142.633V140.898H178.516C176.745 140.898 175.859 141.417 175.859 142.453C175.859 142.906 176.01 143.26 176.312 143.516C176.615 143.771 177.003 143.898 177.477 143.898ZM192.547 145C192.464 144.833 192.396 144.536 192.344 144.109C191.672 144.807 190.87 145.156 189.938 145.156C189.104 145.156 188.419 144.922 187.883 144.453C187.352 143.979 187.086 143.38 187.086 142.656C187.086 141.776 187.419 141.094 188.086 140.609C188.758 140.12 189.701 139.875 190.914 139.875H192.32V139.211C192.32 138.706 192.169 138.305 191.867 138.008C191.565 137.706 191.12 137.555 190.531 137.555C190.016 137.555 189.583 137.685 189.234 137.945C188.885 138.206 188.711 138.521 188.711 138.891H187.258C187.258 138.469 187.406 138.062 187.703 137.672C188.005 137.276 188.411 136.964 188.922 136.734C189.438 136.505 190.003 136.391 190.617 136.391C191.591 136.391 192.354 136.635 192.906 137.125C193.458 137.609 193.745 138.279 193.766 139.133V143.023C193.766 143.799 193.865 144.417 194.062 144.875V145H192.547ZM190.148 143.898C190.602 143.898 191.031 143.781 191.438 143.547C191.844 143.312 192.138 143.008 192.32 142.633V140.898H191.188C189.417 140.898 188.531 141.417 188.531 142.453C188.531 142.906 188.682 143.26 188.984 143.516C189.286 143.771 189.674 143.898 190.148 143.898ZM197.602 145H196.156V133H197.602V145ZM201.492 145H200.047V136.547H201.492V145ZM199.93 134.305C199.93 134.07 200 133.872 200.141 133.711C200.286 133.549 200.5 133.469 200.781 133.469C201.062 133.469 201.276 133.549 201.422 133.711C201.568 133.872 201.641 134.07 201.641 134.305C201.641 134.539 201.568 134.734 201.422 134.891C201.276 135.047 201.062 135.125 200.781 135.125C200.5 135.125 200.286 135.047 200.141 134.891C200 134.734 199.93 134.539 199.93 134.305ZM203.461 140.703C203.461 139.375 203.766 138.326 204.375 137.555C204.984 136.779 205.802 136.391 206.828 136.391C207.828 136.391 208.617 136.727 209.195 137.398L209.258 136.547H210.586V148.25H209.141V144.219C208.557 144.844 207.781 145.156 206.812 145.156C205.792 145.156 204.977 144.76 204.367 143.969C203.763 143.172 203.461 142.117 203.461 140.805V140.703ZM204.906 140.867C204.906 141.836 205.109 142.596 205.516 143.148C205.927 143.701 206.479 143.977 207.172 143.977C208.031 143.977 208.688 143.596 209.141 142.836V138.695C208.682 137.951 208.031 137.578 207.188 137.578C206.49 137.578 205.935 137.857 205.523 138.414C205.112 138.966 204.906 139.784 204.906 140.867ZM218.125 144.164C217.562 144.826 216.737 145.156 215.648 145.156C214.747 145.156 214.06 144.896 213.586 144.375C213.117 143.849 212.88 143.073 212.875 142.047V136.547H214.32V142.008C214.32 143.289 214.841 143.93 215.883 143.93C216.987 143.93 217.721 143.518 218.086 142.695V136.547H219.531V145H218.156L218.125 144.164ZM226.953 145C226.87 144.833 226.802 144.536 226.75 144.109C226.078 144.807 225.276 145.156 224.344 145.156C223.51 145.156 222.826 144.922 222.289 144.453C221.758 143.979 221.492 143.38 221.492 142.656C221.492 141.776 221.826 141.094 222.492 140.609C223.164 140.12 224.107 139.875 225.32 139.875H226.727V139.211C226.727 138.706 226.576 138.305 226.273 138.008C225.971 137.706 225.526 137.555 224.938 137.555C224.422 137.555 223.99 137.685 223.641 137.945C223.292 138.206 223.117 138.521 223.117 138.891H221.664C221.664 138.469 221.812 138.062 222.109 137.672C222.411 137.276 222.818 136.964 223.328 136.734C223.844 136.505 224.409 136.391 225.023 136.391C225.997 136.391 226.76 136.635 227.312 137.125C227.865 137.609 228.151 138.279 228.172 139.133V143.023C228.172 143.799 228.271 144.417 228.469 144.875V145H226.953ZM224.555 143.898C225.008 143.898 225.438 143.781 225.844 143.547C226.25 143.312 226.544 143.008 226.727 142.633V140.898H225.594C223.823 140.898 222.938 141.417 222.938 142.453C222.938 142.906 223.089 143.26 223.391 143.516C223.693 143.771 224.081 143.898 224.555 143.898ZM230.469 144.242C230.469 143.992 230.542 143.784 230.688 143.617C230.839 143.451 231.062 143.367 231.359 143.367C231.656 143.367 231.88 143.451 232.031 143.617C232.188 143.784 232.266 143.992 232.266 144.242C232.266 144.482 232.188 144.682 232.031 144.844C231.88 145.005 231.656 145.086 231.359 145.086C231.062 145.086 230.839 145.005 230.688 144.844C230.542 144.682 230.469 144.482 230.469 144.242Z" fill="black"/>
</svg>
