<svg width="300" height="200" viewBox="0 0 300 200" fill="none" xmlns="http://www.w3.org/2000/svg">
<rect width="300" height="200" rx="6" fill="#F5F5F5"/>
<path d="M187.667 65H113C111.143 65 109.363 65.7375 108.05 67.0503C106.737 68.363 106 70.1435 106 72V130.333C106 131.571 106.492 132.758 107.367 133.633C108.242 134.508 109.429 135 110.667 135H190C191.238 135 192.425 134.508 193.3 133.633C194.175 132.758 194.667 131.571 194.667 130.333V72C194.667 70.1435 193.929 68.363 192.616 67.0503C191.304 65.7375 189.523 65 187.667 65ZM113 69.6667H187.667C188.286 69.6667 188.879 69.9125 189.317 70.3501C189.754 70.7877 190 71.3812 190 72V116.905L170.108 97.0133C169.675 96.5794 169.16 96.2352 168.594 96.0004C168.027 95.7655 167.42 95.6447 166.807 95.6447C166.193 95.6447 165.586 95.7655 165.02 96.0004C164.453 96.2352 163.938 96.5794 163.505 97.0133L154.848 105.67L137.442 88.2633C137.008 87.8294 136.494 87.4852 135.927 87.2504C135.361 87.0155 134.753 86.8947 134.14 86.8947C133.527 86.8947 132.919 87.0155 132.353 87.2504C131.786 87.4852 131.272 87.8294 130.838 88.2633L110.667 108.447V72C110.667 71.3812 110.912 70.7877 111.35 70.3501C111.788 69.9125 112.381 69.6667 113 69.6667V69.6667ZM113 130.333C112.381 130.333 111.788 130.088 111.35 129.65C110.912 129.212 110.667 128.619 110.667 128V115.05L134.14 91.565L151.5 108.972C151.933 109.406 152.448 109.75 153.015 109.985C153.581 110.219 154.188 110.34 154.802 110.34C155.415 110.34 156.022 110.219 156.589 109.985C157.155 109.75 157.67 109.406 158.103 108.972L166.76 100.315L190 123.508V128C190 128.619 189.754 129.212 189.317 129.65C188.879 130.088 188.286 130.333 187.667 130.333H113Z" fill="#404040"/>
<path d="M177.657 89.3017C179.196 89.3017 180.7 88.8453 181.98 87.9902C183.26 87.1351 184.257 85.9198 184.846 84.4979C185.435 83.076 185.589 81.5114 185.289 80.0019C184.989 78.4924 184.247 77.1058 183.159 76.0175C182.071 74.9292 180.684 74.1881 179.175 73.8878C177.665 73.5876 176.101 73.7417 174.679 74.3307C173.257 74.9196 172.042 75.917 171.186 77.1967C170.331 78.4764 169.875 79.9809 169.875 81.52C169.875 82.5419 170.076 83.5538 170.467 84.4979C170.858 85.442 171.432 86.2999 172.154 87.0225C172.877 87.745 173.735 88.3182 174.679 88.7093C175.623 89.1004 176.635 89.3017 177.657 89.3017V89.3017ZM177.657 78.4166C178.273 78.4166 178.875 78.5993 179.387 78.9416C179.9 79.2839 180.299 79.7704 180.535 80.3396C180.77 80.9088 180.832 81.5351 180.712 82.1394C180.592 82.7436 180.295 83.2986 179.859 83.7343C179.424 84.1699 178.869 84.4666 178.264 84.5868C177.66 84.707 177.034 84.6453 176.465 84.4095C175.895 84.1738 175.409 83.7745 175.067 83.2623C174.724 82.75 174.542 82.1477 174.542 81.5316C174.542 81.1226 174.622 80.7175 174.779 80.3396C174.935 79.9617 175.165 79.6183 175.454 79.329C175.743 79.0398 176.087 78.8103 176.465 78.6538C176.843 78.4972 177.248 78.4166 177.657 78.4166V78.4166Z" fill="#404040"/>
</svg>
