<svg width="300" height="169" viewBox="0 0 300 169" fill="none" xmlns="http://www.w3.org/2000/svg">
<rect width="300" height="168.539" rx="6" fill="#F5F5F5" fill-opacity="0.5"/>
<rect x="0.5" y="0.5" width="299" height="167.539" rx="5.5" stroke="#BDC3C7" stroke-opacity="0.5"/>
<path d="M187.667 49H113C111.143 49 109.363 49.7375 108.05 51.0503C106.737 52.363 106 54.1435 106 56V114.333C106 115.571 106.492 116.758 107.367 117.633C108.242 118.508 109.429 119 110.667 119H190C191.238 119 192.425 118.508 193.3 117.633C194.175 116.758 194.667 115.571 194.667 114.333V56C194.667 54.1435 193.929 52.363 192.616 51.0503C191.304 49.7375 189.523 49 187.667 49ZM113 53.6667H187.667C188.286 53.6667 188.879 53.9125 189.317 54.3501C189.754 54.7877 190 55.3812 190 56V100.905L170.108 81.0133C169.675 80.5794 169.16 80.2352 168.594 80.0004C168.027 79.7655 167.42 79.6447 166.807 79.6447C166.193 79.6447 165.586 79.7655 165.02 80.0004C164.453 80.2352 163.938 80.5794 163.505 81.0133L154.848 89.67L137.442 72.2633C137.008 71.8294 136.494 71.4852 135.927 71.2504C135.361 71.0155 134.753 70.8947 134.14 70.8947C133.527 70.8947 132.919 71.0155 132.353 71.2504C131.786 71.4852 131.272 71.8294 130.838 72.2633L110.667 92.4467V56C110.667 55.3812 110.912 54.7877 111.35 54.3501C111.788 53.9125 112.381 53.6667 113 53.6667V53.6667ZM113 114.333C112.381 114.333 111.788 114.088 111.35 113.65C110.912 113.212 110.667 112.619 110.667 112V99.05L134.14 75.565L151.5 92.9717C151.933 93.4056 152.448 93.7498 153.015 93.9846C153.581 94.2195 154.188 94.3403 154.802 94.3403C155.415 94.3403 156.022 94.2195 156.589 93.9846C157.155 93.7498 157.67 93.4056 158.103 92.9717L166.76 84.315L190 107.508V112C190 112.619 189.754 113.212 189.317 113.65C188.879 114.088 188.286 114.333 187.667 114.333H113Z" fill="#404040"/>
<path d="M177.657 73.3017C179.196 73.3017 180.7 72.8453 181.98 71.9902C183.26 71.1352 184.257 69.9198 184.846 68.4979C185.435 67.076 185.589 65.5114 185.289 64.0019C184.989 62.4924 184.247 61.1058 183.159 60.0175C182.071 58.9292 180.684 58.1881 179.175 57.8878C177.665 57.5876 176.101 57.7417 174.679 58.3307C173.257 58.9196 172.042 59.917 171.186 61.1967C170.331 62.4764 169.875 63.9809 169.875 65.52C169.875 66.5419 170.076 67.5538 170.467 68.4979C170.858 69.442 171.432 70.2999 172.154 71.0225C172.877 71.7451 173.735 72.3183 174.679 72.7093C175.623 73.1004 176.635 73.3017 177.657 73.3017V73.3017ZM177.657 62.4167C178.273 62.4167 178.875 62.5994 179.387 62.9416C179.9 63.2839 180.299 63.7704 180.535 64.3396C180.77 64.9088 180.832 65.5351 180.712 66.1394C180.592 66.7436 180.295 67.2987 179.859 67.7343C179.424 68.1699 178.869 68.4666 178.264 68.5868C177.66 68.707 177.034 68.6453 176.465 68.4095C175.895 68.1738 175.409 67.7745 175.067 67.2623C174.724 66.75 174.542 66.1477 174.542 65.5317C174.542 65.1226 174.622 64.7175 174.779 64.3396C174.935 63.9617 175.165 63.6183 175.454 63.329C175.743 63.0398 176.087 62.8103 176.465 62.6538C176.843 62.4972 177.248 62.4167 177.657 62.4167V62.4167Z" fill="#404040"/>
</svg>
