<svg width="212" height="37" viewBox="0 0 212 37" fill="none" xmlns="http://www.w3.org/2000/svg">
<path d="M165.497 0.00133332L157.927 35.1386C160.515 36.2421 165.139 36.9995 168.895 36.9995C177.428 36.9995 181.949 33.8274 184.179 23.3247C186.416 12.9657 183.514 9.95249 176.361 9.95249C173.468 9.95249 170.876 10.8048 169.303 11.6617L171.792 -5.07658e-06H165.497L165.497 0.00133332ZM165.138 31.0635L167.981 17.8471C168.288 16.3367 170.824 15.4324 173.622 15.4324C178.036 15.4324 179.105 17.0901 177.733 23.4254C176.155 30.713 174.432 31.8729 169.961 31.8729C168.341 31.8729 166.458 31.6217 165.138 31.0635ZM23.3534 3.11575C22.698 6.08018 23.4595 6.58605 26.2507 6.58605C28.9922 6.58605 29.9551 6.08018 30.6172 3.11575C31.1754 0.454372 30.4157 0.0474422 27.6765 0.0474422C24.883 0.0474422 23.9183 0.454372 23.3534 3.11575ZM6.39625 6.37878L5.48122 10.7064H1.16438L0 16.1365H4.31236L1.82648 27.6948C0.20145 35.2854 2.68958 36.9995 8.47744 36.9995C10.6137 36.9995 13.0369 36.6271 14.9108 36.1073L16.0376 30.8459C14.6772 31.2184 12.6622 31.6204 11.1693 31.6204C8.12513 31.6204 7.56107 30.3132 8.22227 27.1455L10.6137 16.1365H19.182L20.3522 10.7064H11.7749L13.2531 3.82082L6.39625 6.37878ZM134.567 23.3766C132.336 33.8838 136.755 37 144.22 37C146.858 37 150.767 36.4418 153.511 35.589L153.562 30.6602C151.429 31.2614 147.924 31.7207 146.098 31.7207C141.581 31.7207 139.7 30.6127 140.814 25.1337H157.521C160.615 12.7141 157.675 9.95294 149.5 9.95294C141.978 9.95294 136.754 13.1179 134.566 23.3766H134.567ZM148.782 14.8817C152.39 14.8817 153.509 15.8339 152.745 20.3607H141.879C143.201 16.137 144.828 14.8817 148.782 14.8817ZM70.4849 23.3766C68.2497 33.8838 72.6677 37 80.133 37C82.7729 37 86.6806 36.4418 89.4221 35.589L89.4762 30.6602C87.3431 31.2614 83.8375 31.7207 82.011 31.7207C77.494 31.7207 75.6129 30.6127 76.7294 25.1337H93.4363C96.5346 12.7141 93.588 9.95294 85.4155 9.95294C77.896 9.95294 72.6682 13.1179 70.4858 23.3766H70.4849ZM84.7037 14.8817C88.3074 14.8817 89.423 15.8339 88.6633 20.3607H77.7949C79.1173 16.137 80.7423 14.8817 84.7037 14.8817ZM50.7751 11.6621C49.5069 10.5027 47.4275 9.95294 44.5302 9.95294C40.4193 9.95294 35.5411 10.9571 32.1451 12.1644L26.9611 36.2945H33.2553L37.5761 16.1849C38.8963 15.8339 40.6225 15.5832 41.9946 15.5832C46.1597 15.5832 46.8674 16.9894 45.6489 22.6671L42.7583 36.2945H49.0525L52.0989 22.0139C52.6074 19.7026 52.761 17.7947 52.6074 16.2843C54.386 15.7824 56.5173 15.5832 57.7851 15.5832C61.9547 15.5832 62.6597 16.9894 61.4439 22.6671L58.5488 36.2945H64.8475L67.8894 22.0139C69.8712 12.818 67.5885 9.95294 60.3292 9.95294C57.3804 9.95294 53.7754 10.654 50.7787 11.6621H50.7751ZM131.117 10.7064C128.222 17.0892 124.664 23.5244 120.962 29.9072C120.962 24.4286 120.501 15.6826 119.891 10.7064H113.748C111.664 15.2846 106.895 24.7832 103.999 29.9072C103.797 23.3252 103.187 16.334 102.271 10.7064H95.62C96.9424 18.5472 97.8534 27.3909 98.4631 36.2949H106.231C108.826 31.6732 112.476 24.481 114.867 19.1493C115.219 23.1698 115.427 31.115 115.371 36.2949H123.193C128.269 28.1967 133.399 18.998 137.515 10.7064H131.117ZM22.1953 10.7064L16.7105 36.2949H23.0046L28.4854 10.7064H22.1912" fill="#4D3B3B"/>
<path d="M192.439 12.6398C191.645 13.846 191.491 15.5259 191.491 15.5259C191.491 15.5259 200.971 21.2894 201.835 21.8528C202.618 22.3555 202.618 23.2291 201.835 23.7267C200.971 24.2798 191.491 30.0493 191.491 30.0493C191.491 30.0493 191.645 31.7326 192.439 32.9439C193.187 34.092 194.57 34.7657 194.57 34.7657C194.57 34.7657 209.78 25.1483 210.785 24.2764C211.628 23.5369 211.628 22.0383 210.785 21.2988C209.781 20.4252 194.57 10.8181 194.57 10.8181C194.57 10.8181 193.187 11.4934 192.439 12.6398Z" fill="#DC6655"/>
</svg>
