<svg width="1066" height="774" viewBox="0 0 1066 774" fill="none" xmlns="http://www.w3.org/2000/svg">
    <path opacity="0.1" d="M995.19 369.87C995.78 363.1 996.09 356.22 996.09 349.27C996.09 240.44 922.25 152.21 831.17 152.21C802.17 152.21 774.83 161.21 751.17 176.96C686.7 126.96 602.53 96.75 510.45 96.75C360.62 96.75 231.74 176.82 174.56 291.65C171.39 291.43 168.19 291.31 164.96 291.31C73.83 291.31 0 379.53 0 488.36C0 528.36 10 565.59 27.14 596.67C27.14 694.58 105.59 773.98 202.36 773.98H324.36L324.9 773.05C332.07 761.41 349.24 758.5 361.2 765.11C364.36 766.85 367.3 769.11 370.83 769.91C384.96 772.91 394.45 750.18 408.75 752.39C415.93 753.5 421.53 760.92 428.75 760.16C433.54 759.65 437.17 755.64 441.67 753.94C448.88 751.2 456.19 755 461.24 761.17C464.17 752.74 464.15 742.75 468.89 735.02C476.06 723.38 493.23 720.47 505.19 727.08C508.35 728.82 511.29 731.08 514.82 731.88C528.95 734.88 538.44 712.15 552.74 714.36C559.92 715.47 565.52 722.89 572.74 722.13C577.53 721.62 581.16 717.61 585.66 715.91C596.88 711.64 608.37 723.23 611.13 734.91C612.199 740.056 612.765 745.294 612.82 750.55C622.5 745.86 630.68 732.67 641.73 734.38C648.91 735.49 654.51 742.91 661.73 742.15C666.52 741.64 670.15 737.63 674.65 735.93C685.87 731.66 697.36 743.25 700.12 754.93C701.59 761.13 701.69 767.57 701.94 773.93H904.09C980.09 773.93 1041.67 711.61 1041.67 634.73C1057.09 604.73 1066 569.45 1066 531.67C1066 464.67 1038 405.47 995.19 369.87Z" fill="#DC6655"/>
    <path d="M623 266C671.049 266 710 227.049 710 179C710 130.951 671.049 92 623 92C574.951 92 536 130.951 536 179C536 227.049 574.951 266 623 266Z" fill="#DC6655"/>
    <path d="M594.99 182.28L622.86 154.41L651.01 182.28H631.88V203.59H614.12V182.42L594.99 182.28Z" fill="white"/>
    <path d="M737.52 401.2C736.343 395.134 733.306 389.585 728.831 385.323C724.357 381.062 718.666 378.3 712.55 377.42C706.433 376.541 700.195 377.587 694.7 380.415C689.206 383.243 684.729 387.711 681.89 393.2C675.834 393.86 670.262 396.815 666.319 401.458C662.376 406.102 660.363 412.079 660.693 418.162C661.024 424.244 663.673 429.969 668.096 434.158C672.519 438.346 678.379 440.68 684.47 440.68H736.13C741.386 440.664 746.424 438.573 750.145 434.86C753.867 431.148 755.971 426.116 756 420.86C756.019 415.841 754.113 411.006 750.676 407.349C747.239 403.692 742.53 401.492 737.52 401.2V401.2ZM714.67 412.92V427.98H702V412.88H688.45L708.32 393.01L728.18 412.88L714.67 412.92Z" fill="white"/>
    <path d="M889.52 648.2C888.343 642.134 885.306 636.585 880.831 632.323C876.357 628.062 870.666 625.3 864.55 624.42C858.433 623.541 852.195 624.587 846.7 627.415C841.206 630.243 836.729 634.711 833.89 640.2C827.834 640.86 822.262 643.815 818.319 648.458C814.376 653.102 812.363 659.079 812.693 665.162C813.024 671.244 815.673 676.969 820.096 681.158C824.519 685.346 830.379 687.68 836.47 687.68H888.13C893.386 687.664 898.424 685.573 902.145 681.86C905.867 678.148 907.971 673.116 908 667.86C908.019 662.841 906.113 658.006 902.676 654.349C899.239 650.692 894.53 648.492 889.52 648.2ZM866.67 659.92V674.98H854V659.88H840.45L860.32 640.01L880.18 659.88L866.67 659.92Z" fill="white"/>
    <path d="M329.45 469.98C327.613 460.611 322.907 452.046 315.983 445.473C309.06 438.899 300.263 434.642 290.812 433.293C281.361 431.943 271.724 433.568 263.237 437.941C254.751 442.314 247.836 449.22 243.45 457.7C234.096 458.727 225.491 463.299 219.404 470.475C213.317 477.651 210.21 486.887 210.722 496.283C211.235 505.679 215.327 514.522 222.158 520.994C228.989 527.466 238.04 531.075 247.45 531.08H327.3C335.437 531.054 343.234 527.808 348.986 522.052C354.738 516.296 357.979 508.497 358 500.36C358.026 492.606 355.082 485.137 349.772 479.487C344.462 473.837 337.19 470.435 329.45 469.98V469.98ZM294.14 488.08V511.42H274.49V488.08H253.61L284.32 457.38L315 488.08H294.14Z" fill="white"/>
    <path d="M673 549.98V525.68L684.2 536.88L687 533.98L671 517.98L655 533.98L657.8 536.78L669 525.68V549.98H673Z" fill="white"/>
    <path d="M114 582.98V558.68L125.2 569.88L128 566.98L112 550.98L96 566.98L98.8 569.78L110 558.68V582.98H114Z" fill="white"/>
    <path d="M672 320.98V302.77L680.4 311.17L682.5 309L670.5 297L658.5 309L660.6 311.1L669 302.77V320.98H672Z" fill="white"/>
    <path d="M453 188.98V170.77L461.4 179.17L463.5 177L451.5 165L439.5 177L441.6 179.1L450 170.77V188.98H453Z" fill="white"/>
    <path d="M371 368.98V350.77L379.4 359.17L381.5 357L369.5 345L357.5 357L359.6 359.1L368 350.77V368.98H371Z" fill="white"/>
    <path d="M885 452.98V434.77L893.4 443.17L895.5 441L883.5 429L871.5 441L873.6 443.1L882 434.77V452.98H885Z" fill="white"/>
    <path d="M353 613.98V595.77L361.4 604.17L363.5 602L351.5 590L339.5 602L341.6 604.1L350 595.77V613.98H353Z" fill="white"/>
    <path d="M789 299C792.314 299 795 296.314 795 293C795 289.686 792.314 287 789 287C785.686 287 783 289.686 783 293C783 296.314 785.686 299 789 299Z" fill="white"/>
    <path d="M224 283C227.314 283 230 280.314 230 277C230 273.686 227.314 271 224 271C220.686 271 218 273.686 218 277C218 280.314 220.686 283 224 283Z" fill="white"/>
    <path d="M401 435C404.314 435 407 432.314 407 429C407 425.686 404.314 423 401 423C397.686 423 395 425.686 395 429C395 432.314 397.686 435 401 435Z" fill="white"/>
    <path d="M925 534C926.657 534 928 532.657 928 531C928 529.343 926.657 528 925 528C923.343 528 922 529.343 922 531C922 532.657 923.343 534 925 534Z" fill="white"/>
    <path d="M700 617C701.657 617 703 615.657 703 614C703 612.343 701.657 611 700 611C698.343 611 697 612.343 697 614C697 615.657 698.343 617 700 617Z" fill="white"/>
    <path d="M315 687C316.657 687 318 685.657 318 684C318 682.343 316.657 681 315 681C313.343 681 312 682.343 312 684C312 685.657 313.343 687 315 687Z" fill="white"/>
    <path d="M96 444C97.6569 444 99 442.657 99 441C99 439.343 97.6569 438 96 438C94.3431 438 93 439.343 93 441C93 442.657 94.3431 444 96 444Z" fill="white"/>
    <path d="M125 380C126.657 380 128 378.657 128 377C128 375.343 126.657 374 125 374C123.343 374 122 375.343 122 377C122 378.657 123.343 380 125 380Z" fill="white"/>
    <path d="M770 716C771.657 716 773 714.657 773 713C773 711.343 771.657 710 770 710C768.343 710 767 711.343 767 713C767 714.657 768.343 716 770 716Z" fill="white"/>
    <path d="M215 612C216.657 612 218 610.657 218 609C218 607.343 216.657 606 215 606C213.343 606 212 607.343 212 609C212 610.657 213.343 612 215 612Z" fill="white"/>
    <path d="M284 337C285.657 337 287 335.657 287 334C287 332.343 285.657 331 284 331C282.343 331 281 332.343 281 334C281 335.657 282.343 337 284 337Z" fill="white"/>
    <path d="M386.5 227.5H371V212H369V227.5H353.5V229.5H369V245H371V229.5H386.5V227.5Z" fill="white"/>
    <path d="M764 513.89H754.61V504.5H753.39V513.89H744V515.11H753.39V524.5H754.61V515.11H764V513.89Z" fill="white"/>
    <path d="M707 688.89H697.61V679.5H696.39V688.89H687V690.11H696.39V699.5H697.61V690.11H707V688.89Z" fill="white"/>
    <path d="M240 666.89H230.61V657.5H229.39V666.89H220V668.11H229.39V677.5H230.61V668.11H240V666.89Z" fill="white"/>
    <path d="M174 490.89H164.61V481.5H163.39V490.89H154V492.11H163.39V501.5H164.61V492.11H174V490.89Z" fill="white"/>
    <path d="M453.46 669.68L453.53 664.05L450.15 664.01L450.08 669.64L444.25 686.48L458.89 686.65L453.46 669.68Z" fill="#3F3D56"/>
    <path d="M468.15 670L468.22 664.23L464.75 664.18L464.68 669.96L458.7 687.23L473.72 687.4L468.15 670Z" fill="#3F3D56"/>
    <path d="M482.75 670.03L482.82 664.4L479.44 664.36L479.37 669.99L473.54 686.83L488.19 687L482.75 670.03Z" fill="#3F3D56"/>
    <path d="M587.17 671.42L587.24 665.64L583.77 665.6L583.7 671.38L577.72 688.64L592.74 688.82L587.17 671.42Z" fill="#3F3D56"/>
    <path d="M602.19 671.6L602.26 665.82L598.79 665.78L598.72 671.56L592.74 688.82L607.76 689L602.19 671.6Z" fill="#3F3D56"/>
    <path d="M617.21 671.78L617.28 666L613.81 665.96L613.74 671.74L607.76 689L622.78 689.18L617.21 671.78Z" fill="#3F3D56"/>
    <path d="M518.99 670.61L519.06 664.83L515.59 664.79L515.52 670.57L509.54 687.83L524.56 688.01L518.99 670.61Z" fill="#3F3D56"/>
    <path d="M534.01 670.79L534.08 665.01L530.62 664.97L530.55 670.75L524.56 688.01L539.58 688.19L534.01 670.79Z" fill="#3F3D56"/>
    <path d="M549.03 670.97L549.1 665.19L545.64 665.15L545.57 670.93L539.58 688.19L554.61 688.37L549.03 670.97Z" fill="#3F3D56"/>
    <path d="M508.76 266.58C508.55 246.68 485.11 211.4 472.46 211.25C459.81 211.1 436.68 245.82 436 265.71H435.4L430.63 665.52L504.01 666.39L508.78 266.59L508.76 266.58Z" fill="#3F3D56"/>
    <path d="M642.8 268.18C642.59 248.28 619.15 213 606.5 212.85C593.85 212.7 570.72 247.42 570.05 267.31H569.45L564.68 667.12L638.06 667.99L642.83 268.19L642.8 268.18Z" fill="#3F3D56"/>
    <path d="M576.86 80.92C576.75 51.75 553.5 0.150009 540.86 9.44998e-06C528.22 -0.149991 504.86 50.89 504.09 80H503.5L496.5 666.24L569.87 667.12L576.87 80.87L576.86 80.92Z" fill="#2F2E41"/>
    <path d="M509.13 395.43L537.01 367.55L565.15 395.43H546.03V416.74H528.26V395.56L509.13 395.43Z" fill="#DC6655"/>
    <g opacity="0.1">
        <path opacity="0.1" d="M574.87 274.92C582.46 257.21 597.28 238.74 606.5 238.85C618.5 238.99 640.12 270.64 642.57 290.85L642.83 269.14C642.62 249.24 619.18 213.96 606.53 213.81C597.43 213.7 582.89 231.69 575.21 249.19L574.87 274.92Z" fill="black"/>
        <path opacity="0.1" d="M435.41 291.7H436.01C436.68 271.81 459.82 237.09 472.46 237.24C480.72 237.34 493.57 252.41 501.56 268.4L503.5 106.04H504.09C504.87 76.88 528.22 25.84 540.86 26.04C552.8 26.18 574.22 72.25 576.64 101.94L576.87 81.94C576.76 52.77 553.51 1.17 540.87 1.02C528.23 0.869998 504.87 51.91 504.1 81.07H503.51L501.57 243.43C493.57 227.43 480.73 212.37 472.47 212.27C459.83 212.12 436.69 246.84 436.02 266.73H435.42L430.65 666.54H430.95L435.41 291.7Z" fill="black"/>
    </g>
    <path d="M540.858 25.3856L540.848 25.3855C537.021 25.34 533.881 28.4057 533.836 32.2327L533.644 48.4216C533.598 52.2486 536.664 55.3879 540.491 55.4333L540.501 55.4334C544.328 55.4789 547.467 52.4132 547.513 48.5862L547.705 32.3973C547.75 28.5703 544.685 25.431 540.858 25.3856Z" fill="#ECECF3"/>
</svg>
