<svg width="300" height="169" viewBox="0 0 300 169" fill="none" xmlns="http://www.w3.org/2000/svg">
<rect width="300" height="168.539" rx="6" fill="#F5F5F5" fill-opacity="0.5"/>
<rect x="0.5" y="0.5" width="299" height="167.539" rx="5.5" stroke="#BDC3C7" stroke-opacity="0.5"/>
<path d="M30.7715 51.0273H37.2266V53H28.3008V38.7812H30.7715V51.0273ZM38.4473 47.6191C38.4473 46.584 38.6523 45.653 39.0625 44.8262C39.4727 43.9928 40.0488 43.3548 40.791 42.9121C41.5332 42.4629 42.3861 42.2383 43.3496 42.2383C44.7754 42.2383 45.931 42.6973 46.8164 43.6152C47.7083 44.5332 48.1901 45.7507 48.2617 47.2676L48.2715 47.8242C48.2715 48.8659 48.0697 49.7969 47.666 50.6172C47.2689 51.4375 46.696 52.0723 45.9473 52.5215C45.2051 52.9707 44.3457 53.1953 43.3691 53.1953C41.8783 53.1953 40.6836 52.7005 39.7852 51.7109C38.8932 50.7148 38.4473 49.39 38.4473 47.7363V47.6191ZM40.8203 47.8242C40.8203 48.9115 41.0449 49.7643 41.4941 50.3828C41.9434 50.9948 42.5684 51.3008 43.3691 51.3008C44.1699 51.3008 44.7917 50.9883 45.2344 50.3633C45.6836 49.7383 45.9082 48.8236 45.9082 47.6191C45.9082 46.5514 45.6771 45.7051 45.2148 45.0801C44.7591 44.4551 44.1374 44.1426 43.3496 44.1426C42.5749 44.1426 41.9596 44.4518 41.5039 45.0703C41.0482 45.6823 40.8203 46.6003 40.8203 47.8242ZM55.8105 44.6016C55.498 44.5495 55.1758 44.5234 54.8438 44.5234C53.7565 44.5234 53.0241 44.9401 52.6465 45.7734V53H50.2734V42.4336H52.5391L52.5977 43.6152C53.1706 42.6973 53.9648 42.2383 54.9805 42.2383C55.319 42.2383 55.599 42.2839 55.8203 42.375L55.8105 44.6016ZM61.7676 53.1953C60.2637 53.1953 59.043 52.7233 58.1055 51.7793C57.1745 50.8288 56.709 49.5658 56.709 47.9902V47.6973C56.709 46.6426 56.9108 45.7018 57.3145 44.875C57.7246 44.0417 58.2975 43.3939 59.0332 42.9316C59.7689 42.4694 60.5892 42.2383 61.4941 42.2383C62.9329 42.2383 64.043 42.6973 64.8242 43.6152C65.612 44.5332 66.0059 45.832 66.0059 47.5117V48.4688H59.1016C59.1732 49.3411 59.4629 50.0312 59.9707 50.5391C60.485 51.0469 61.1296 51.3008 61.9043 51.3008C62.9915 51.3008 63.877 50.8613 64.5605 49.9824L65.8398 51.2031C65.4167 51.8346 64.8503 52.3262 64.1406 52.6777C63.4375 53.0228 62.6465 53.1953 61.7676 53.1953ZM61.4844 44.1426C60.8333 44.1426 60.306 44.3704 59.9023 44.8262C59.5052 45.2819 59.2513 45.9167 59.1406 46.7305H63.6621V46.5547C63.61 45.7604 63.3984 45.1615 63.0273 44.7578C62.6562 44.3477 62.1419 44.1426 61.4844 44.1426ZM70.0879 42.4336L70.1562 43.5371C70.8984 42.6712 71.9141 42.2383 73.2031 42.2383C74.6159 42.2383 75.5827 42.7786 76.1035 43.8594C76.8717 42.7786 77.9525 42.2383 79.3457 42.2383C80.5111 42.2383 81.377 42.5605 81.9434 43.2051C82.5163 43.8496 82.8092 44.8001 82.8223 46.0566V53H80.4492V46.125C80.4492 45.4544 80.3027 44.9629 80.0098 44.6504C79.7168 44.3379 79.2318 44.1816 78.5547 44.1816C78.0143 44.1816 77.5716 44.3281 77.2266 44.6211C76.888 44.9076 76.6504 45.2852 76.5137 45.7539L76.5234 53H74.1504V46.0469C74.1178 44.8034 73.4831 44.1816 72.2461 44.1816C71.2956 44.1816 70.6217 44.569 70.2246 45.3438V53H67.8516V42.4336H70.0879ZM92.7637 53H90.3906V42.4336H92.7637V53ZM90.2441 39.6895C90.2441 39.3249 90.3581 39.0221 90.5859 38.7812C90.8203 38.5404 91.1523 38.4199 91.582 38.4199C92.0117 38.4199 92.3438 38.5404 92.5781 38.7812C92.8125 39.0221 92.9297 39.3249 92.9297 39.6895C92.9297 40.0475 92.8125 40.347 92.5781 40.5879C92.3438 40.8223 92.0117 40.9395 91.582 40.9395C91.1523 40.9395 90.8203 40.8223 90.5859 40.5879C90.3581 40.347 90.2441 40.0475 90.2441 39.6895ZM104.609 47.8242C104.609 49.4583 104.238 50.7637 103.496 51.7402C102.754 52.7103 101.758 53.1953 100.508 53.1953C99.349 53.1953 98.4212 52.8145 97.7246 52.0527V57.0625H95.3516V42.4336H97.5391L97.6367 43.5078C98.3333 42.6615 99.2806 42.2383 100.479 42.2383C101.768 42.2383 102.777 42.7201 103.506 43.6836C104.242 44.6406 104.609 45.972 104.609 47.6777V47.8242ZM102.246 47.6191C102.246 46.5645 102.035 45.7279 101.611 45.1094C101.195 44.4909 100.596 44.1816 99.8145 44.1816C98.8444 44.1816 98.1478 44.582 97.7246 45.3828V50.0703C98.1543 50.8906 98.8574 51.3008 99.834 51.3008C100.589 51.3008 101.178 50.998 101.602 50.3926C102.031 49.7806 102.246 48.8561 102.246 47.6191ZM112.549 50.1289C112.549 49.7057 112.373 49.3835 112.021 49.1621C111.676 48.9408 111.1 48.7454 110.293 48.5762C109.486 48.4069 108.812 48.1921 108.271 47.9316C107.087 47.3587 106.494 46.5286 106.494 45.4414C106.494 44.5299 106.878 43.7682 107.646 43.1562C108.415 42.5443 109.391 42.2383 110.576 42.2383C111.839 42.2383 112.858 42.5508 113.633 43.1758C114.414 43.8008 114.805 44.6113 114.805 45.6074H112.432C112.432 45.1517 112.262 44.7741 111.924 44.4746C111.585 44.1686 111.136 44.0156 110.576 44.0156C110.055 44.0156 109.629 44.1361 109.297 44.377C108.971 44.6178 108.809 44.9401 108.809 45.3438C108.809 45.7083 108.962 45.9915 109.268 46.1934C109.574 46.3952 110.192 46.6003 111.123 46.8086C112.054 47.0104 112.783 47.2546 113.311 47.541C113.844 47.821 114.238 48.1595 114.492 48.5566C114.753 48.9538 114.883 49.4355 114.883 50.002C114.883 50.9525 114.489 51.724 113.701 52.3164C112.913 52.9023 111.882 53.1953 110.605 53.1953C109.74 53.1953 108.968 53.0391 108.291 52.7266C107.614 52.4141 107.087 51.9844 106.709 51.4375C106.331 50.8906 106.143 50.3014 106.143 49.6699H108.447C108.48 50.2298 108.691 50.6628 109.082 50.9688C109.473 51.2682 109.99 51.418 110.635 51.418C111.26 51.418 111.735 51.3008 112.061 51.0664C112.386 50.8255 112.549 50.513 112.549 50.1289ZM123.359 51.9648C122.663 52.7852 121.673 53.1953 120.391 53.1953C119.245 53.1953 118.376 52.86 117.783 52.1895C117.197 51.5189 116.904 50.5488 116.904 49.2793V42.4336H119.277V49.25C119.277 50.5911 119.834 51.2617 120.947 51.2617C122.1 51.2617 122.878 50.8483 123.281 50.0215V42.4336H125.654V53H123.418L123.359 51.9648ZM130.303 42.4336L130.371 43.5371C131.113 42.6712 132.129 42.2383 133.418 42.2383C134.831 42.2383 135.798 42.7786 136.318 43.8594C137.087 42.7786 138.167 42.2383 139.561 42.2383C140.726 42.2383 141.592 42.5605 142.158 43.2051C142.731 43.8496 143.024 44.8001 143.037 46.0566V53H140.664V46.125C140.664 45.4544 140.518 44.9629 140.225 44.6504C139.932 44.3379 139.447 44.1816 138.77 44.1816C138.229 44.1816 137.786 44.3281 137.441 44.6211C137.103 44.9076 136.865 45.2852 136.729 45.7539L136.738 53H134.365V46.0469C134.333 44.8034 133.698 44.1816 132.461 44.1816C131.51 44.1816 130.837 44.569 130.439 45.3438V53H128.066V42.4336H130.303ZM150.01 47.6387C150.01 46.0111 150.387 44.7057 151.143 43.7227C151.898 42.7331 152.91 42.2383 154.18 42.2383C155.299 42.2383 156.204 42.6289 156.895 43.4102V38H159.268V53H157.119L157.002 51.9062C156.292 52.7656 155.345 53.1953 154.16 53.1953C152.923 53.1953 151.921 52.6973 151.152 51.7012C150.391 50.7051 150.01 49.3509 150.01 47.6387ZM152.383 47.8438C152.383 48.918 152.588 49.7578 152.998 50.3633C153.415 50.9622 154.004 51.2617 154.766 51.2617C155.736 51.2617 156.445 50.8288 156.895 49.9629V45.4512C156.458 44.6048 155.755 44.1816 154.785 44.1816C154.017 44.1816 153.424 44.4876 153.008 45.0996C152.591 45.7051 152.383 46.6198 152.383 47.8438ZM161.299 47.6191C161.299 46.584 161.504 45.653 161.914 44.8262C162.324 43.9928 162.9 43.3548 163.643 42.9121C164.385 42.4629 165.238 42.2383 166.201 42.2383C167.627 42.2383 168.783 42.6973 169.668 43.6152C170.56 44.5332 171.042 45.7507 171.113 47.2676L171.123 47.8242C171.123 48.8659 170.921 49.7969 170.518 50.6172C170.12 51.4375 169.548 52.0723 168.799 52.5215C168.057 52.9707 167.197 53.1953 166.221 53.1953C164.73 53.1953 163.535 52.7005 162.637 51.7109C161.745 50.7148 161.299 49.39 161.299 47.7363V47.6191ZM163.672 47.8242C163.672 48.9115 163.896 49.7643 164.346 50.3828C164.795 50.9948 165.42 51.3008 166.221 51.3008C167.021 51.3008 167.643 50.9883 168.086 50.3633C168.535 49.7383 168.76 48.8236 168.76 47.6191C168.76 46.5514 168.529 45.7051 168.066 45.0801C167.611 44.4551 166.989 44.1426 166.201 44.1426C165.426 44.1426 164.811 44.4518 164.355 45.0703C163.9 45.6823 163.672 46.6003 163.672 47.8242ZM175.654 53H173.281V38H175.654V53ZM177.803 47.6191C177.803 46.584 178.008 45.653 178.418 44.8262C178.828 43.9928 179.404 43.3548 180.146 42.9121C180.889 42.4629 181.742 42.2383 182.705 42.2383C184.131 42.2383 185.286 42.6973 186.172 43.6152C187.064 44.5332 187.546 45.7507 187.617 47.2676L187.627 47.8242C187.627 48.8659 187.425 49.7969 187.021 50.6172C186.624 51.4375 186.051 52.0723 185.303 52.5215C184.561 52.9707 183.701 53.1953 182.725 53.1953C181.234 53.1953 180.039 52.7005 179.141 51.7109C178.249 50.7148 177.803 49.39 177.803 47.7363V47.6191ZM180.176 47.8242C180.176 48.9115 180.4 49.7643 180.85 50.3828C181.299 50.9948 181.924 51.3008 182.725 51.3008C183.525 51.3008 184.147 50.9883 184.59 50.3633C185.039 49.7383 185.264 48.8236 185.264 47.6191C185.264 46.5514 185.033 45.7051 184.57 45.0801C184.115 44.4551 183.493 44.1426 182.705 44.1426C181.93 44.1426 181.315 44.4518 180.859 45.0703C180.404 45.6823 180.176 46.6003 180.176 47.8242ZM195.166 44.6016C194.854 44.5495 194.531 44.5234 194.199 44.5234C193.112 44.5234 192.38 44.9401 192.002 45.7734V53H189.629V42.4336H191.895L191.953 43.6152C192.526 42.6973 193.32 42.2383 194.336 42.2383C194.674 42.2383 194.954 42.2839 195.176 42.375L195.166 44.6016ZM207.568 50.1289C207.568 49.7057 207.393 49.3835 207.041 49.1621C206.696 48.9408 206.12 48.7454 205.312 48.5762C204.505 48.4069 203.831 48.1921 203.291 47.9316C202.106 47.3587 201.514 46.5286 201.514 45.4414C201.514 44.5299 201.898 43.7682 202.666 43.1562C203.434 42.5443 204.411 42.2383 205.596 42.2383C206.859 42.2383 207.878 42.5508 208.652 43.1758C209.434 43.8008 209.824 44.6113 209.824 45.6074H207.451C207.451 45.1517 207.282 44.7741 206.943 44.4746C206.605 44.1686 206.156 44.0156 205.596 44.0156C205.075 44.0156 204.648 44.1361 204.316 44.377C203.991 44.6178 203.828 44.9401 203.828 45.3438C203.828 45.7083 203.981 45.9915 204.287 46.1934C204.593 46.3952 205.212 46.6003 206.143 46.8086C207.074 47.0104 207.803 47.2546 208.33 47.541C208.864 47.821 209.258 48.1595 209.512 48.5566C209.772 48.9538 209.902 49.4355 209.902 50.002C209.902 50.9525 209.508 51.724 208.721 52.3164C207.933 52.9023 206.901 53.1953 205.625 53.1953C204.759 53.1953 203.988 53.0391 203.311 52.7266C202.633 52.4141 202.106 51.9844 201.729 51.4375C201.351 50.8906 201.162 50.3014 201.162 49.6699H203.467C203.499 50.2298 203.711 50.6628 204.102 50.9688C204.492 51.2682 205.01 51.418 205.654 51.418C206.279 51.418 206.755 51.3008 207.08 51.0664C207.406 50.8255 207.568 50.513 207.568 50.1289ZM214.502 53H212.129V42.4336H214.502V53ZM211.982 39.6895C211.982 39.3249 212.096 39.0221 212.324 38.7812C212.559 38.5404 212.891 38.4199 213.32 38.4199C213.75 38.4199 214.082 38.5404 214.316 38.7812C214.551 39.0221 214.668 39.3249 214.668 39.6895C214.668 40.0475 214.551 40.347 214.316 40.5879C214.082 40.8223 213.75 40.9395 213.32 40.9395C212.891 40.9395 212.559 40.8223 212.324 40.5879C212.096 40.347 211.982 40.0475 211.982 39.6895ZM220.068 39.8652V42.4336H221.934V44.1914H220.068V50.0898C220.068 50.4935 220.146 50.7865 220.303 50.9688C220.465 51.1445 220.752 51.2324 221.162 51.2324C221.436 51.2324 221.712 51.1999 221.992 51.1348V52.9707C221.452 53.1204 220.931 53.1953 220.43 53.1953C218.607 53.1953 217.695 52.1895 217.695 50.1777V44.1914H215.957V42.4336H217.695V39.8652H220.068ZM235.049 53C234.945 52.7982 234.854 52.4694 234.775 52.0137C234.02 52.8014 233.096 53.1953 232.002 53.1953C230.941 53.1953 230.075 52.8926 229.404 52.2871C228.734 51.6816 228.398 50.9329 228.398 50.041C228.398 48.9147 228.815 48.0521 229.648 47.4531C230.488 46.8477 231.686 46.5449 233.242 46.5449H234.697V45.8516C234.697 45.3047 234.544 44.8685 234.238 44.543C233.932 44.2109 233.467 44.0449 232.842 44.0449C232.301 44.0449 231.859 44.1816 231.514 44.4551C231.169 44.722 230.996 45.0638 230.996 45.4805H228.623C228.623 44.901 228.815 44.3607 229.199 43.8594C229.583 43.3516 230.104 42.9544 230.762 42.668C231.426 42.3815 232.165 42.2383 232.979 42.2383C234.215 42.2383 235.202 42.5508 235.938 43.1758C236.673 43.7943 237.051 44.6667 237.07 45.793V50.5586C237.07 51.5091 237.204 52.2676 237.471 52.834V53H235.049ZM232.441 51.291C232.91 51.291 233.35 51.1771 233.76 50.9492C234.176 50.7214 234.489 50.4154 234.697 50.0312V48.0391H233.418C232.539 48.0391 231.878 48.1921 231.436 48.498C230.993 48.804 230.771 49.237 230.771 49.7969C230.771 50.2526 230.921 50.6172 231.221 50.8906C231.527 51.1576 231.934 51.291 232.441 51.291ZM241.787 42.4336L241.855 43.5371C242.598 42.6712 243.613 42.2383 244.902 42.2383C246.315 42.2383 247.282 42.7786 247.803 43.8594C248.571 42.7786 249.652 42.2383 251.045 42.2383C252.21 42.2383 253.076 42.5605 253.643 43.2051C254.215 43.8496 254.508 44.8001 254.521 46.0566V53H252.148V46.125C252.148 45.4544 252.002 44.9629 251.709 44.6504C251.416 44.3379 250.931 44.1816 250.254 44.1816C249.714 44.1816 249.271 44.3281 248.926 44.6211C248.587 44.9076 248.35 45.2852 248.213 45.7539L248.223 53H245.85V46.0469C245.817 44.8034 245.182 44.1816 243.945 44.1816C242.995 44.1816 242.321 44.569 241.924 45.3438V53H239.551V42.4336H241.787ZM261.611 53.1953C260.107 53.1953 258.887 52.7233 257.949 51.7793C257.018 50.8288 256.553 49.5658 256.553 47.9902V47.6973C256.553 46.6426 256.755 45.7018 257.158 44.875C257.568 44.0417 258.141 43.3939 258.877 42.9316C259.613 42.4694 260.433 42.2383 261.338 42.2383C262.777 42.2383 263.887 42.6973 264.668 43.6152C265.456 44.5332 265.85 45.832 265.85 47.5117V48.4688H258.945C259.017 49.3411 259.307 50.0312 259.814 50.5391C260.329 51.0469 260.973 51.3008 261.748 51.3008C262.835 51.3008 263.721 50.8613 264.404 49.9824L265.684 51.2031C265.26 51.8346 264.694 52.3262 263.984 52.6777C263.281 53.0228 262.49 53.1953 261.611 53.1953ZM261.328 44.1426C260.677 44.1426 260.15 44.3704 259.746 44.8262C259.349 45.2819 259.095 45.9167 258.984 46.7305H263.506V46.5547C263.454 45.7604 263.242 45.1615 262.871 44.7578C262.5 44.3477 261.986 44.1426 261.328 44.1426ZM270.674 39.8652V42.4336H272.539V44.1914H270.674V50.0898C270.674 50.4935 270.752 50.7865 270.908 50.9688C271.071 51.1445 271.357 51.2324 271.768 51.2324C272.041 51.2324 272.318 51.1999 272.598 51.1348V52.9707C272.057 53.1204 271.536 53.1953 271.035 53.1953C269.212 53.1953 268.301 52.1895 268.301 50.1777V44.1914H266.562V42.4336H268.301V39.8652H270.674ZM37.7109 87.3906C37.5703 88.5938 37.125 89.5234 36.375 90.1797C35.6302 90.8307 34.638 91.1562 33.3984 91.1562C32.0547 91.1562 30.9766 90.6745 30.1641 89.7109C29.3568 88.7474 28.9531 87.4583 28.9531 85.8438V84.75C28.9531 83.6927 29.1406 82.763 29.5156 81.9609C29.8958 81.1589 30.4323 80.5443 31.125 80.1172C31.8177 79.6849 32.6198 79.4688 33.5312 79.4688C34.7396 79.4688 35.7083 79.8073 36.4375 80.4844C37.1667 81.1562 37.5911 82.0885 37.7109 83.2812H36.2031C36.0729 82.375 35.7891 81.7188 35.3516 81.3125C34.9193 80.9062 34.3125 80.7031 33.5312 80.7031C32.5729 80.7031 31.8203 81.0573 31.2734 81.7656C30.7318 82.474 30.4609 83.4818 30.4609 84.7891V85.8906C30.4609 87.125 30.7188 88.1068 31.2344 88.8359C31.75 89.5651 32.4714 89.9297 33.3984 89.9297C34.2318 89.9297 34.8698 89.7422 35.3125 89.3672C35.7604 88.987 36.0573 88.3281 36.2031 87.3906H37.7109ZM39.1562 86.6953C39.1562 85.8672 39.3177 85.1224 39.6406 84.4609C39.9688 83.7995 40.4219 83.2891 41 82.9297C41.5833 82.5703 42.2474 82.3906 42.9922 82.3906C44.1432 82.3906 45.0729 82.7891 45.7812 83.5859C46.4948 84.3828 46.8516 85.4427 46.8516 86.7656V86.8672C46.8516 87.6901 46.6927 88.4297 46.375 89.0859C46.0625 89.737 45.612 90.2448 45.0234 90.6094C44.4401 90.974 43.7682 91.1562 43.0078 91.1562C41.862 91.1562 40.9323 90.7578 40.2188 89.9609C39.5104 89.1641 39.1562 88.1094 39.1562 86.7969V86.6953ZM40.6094 86.8672C40.6094 87.8047 40.8255 88.5573 41.2578 89.125C41.6953 89.6927 42.2786 89.9766 43.0078 89.9766C43.7422 89.9766 44.3255 89.6901 44.7578 89.1172C45.1901 88.5391 45.4062 87.7318 45.4062 86.6953C45.4062 85.7682 45.1849 85.0182 44.7422 84.4453C44.3047 83.8672 43.7214 83.5781 42.9922 83.5781C42.2786 83.5781 41.7031 83.862 41.2656 84.4297C40.8281 84.9974 40.6094 85.8099 40.6094 86.8672ZM50.0312 82.5469L50.0781 83.6094C50.724 82.7969 51.5677 82.3906 52.6094 82.3906C54.3958 82.3906 55.2969 83.3984 55.3125 85.4141V91H53.8672V85.4062C53.862 84.7969 53.7214 84.3464 53.4453 84.0547C53.1745 83.763 52.75 83.6172 52.1719 83.6172C51.7031 83.6172 51.2917 83.7422 50.9375 83.9922C50.5833 84.2422 50.3073 84.5703 50.1094 84.9766V91H48.6641V82.5469H50.0312ZM62.4141 88.7578C62.4141 88.3672 62.2656 88.0651 61.9688 87.8516C61.6771 87.6328 61.1641 87.4453 60.4297 87.2891C59.7005 87.1328 59.1198 86.9453 58.6875 86.7266C58.2604 86.5078 57.9427 86.2474 57.7344 85.9453C57.5312 85.6432 57.4297 85.2839 57.4297 84.8672C57.4297 84.1745 57.7214 83.5885 58.3047 83.1094C58.8932 82.6302 59.6432 82.3906 60.5547 82.3906C61.513 82.3906 62.2891 82.638 62.8828 83.1328C63.4818 83.6276 63.7812 84.2604 63.7812 85.0312H62.3281C62.3281 84.6354 62.1589 84.2943 61.8203 84.0078C61.487 83.7214 61.0651 83.5781 60.5547 83.5781C60.0286 83.5781 59.6172 83.6927 59.3203 83.9219C59.0234 84.151 58.875 84.4505 58.875 84.8203C58.875 85.1693 59.013 85.4323 59.2891 85.6094C59.5651 85.7865 60.0625 85.9557 60.7812 86.1172C61.5052 86.2786 62.0911 86.4714 62.5391 86.6953C62.987 86.9193 63.3177 87.1901 63.5312 87.5078C63.75 87.8203 63.8594 88.2031 63.8594 88.6562C63.8594 89.4115 63.5573 90.0182 62.9531 90.4766C62.349 90.9297 61.5651 91.1562 60.6016 91.1562C59.9245 91.1562 59.3255 91.0365 58.8047 90.7969C58.2839 90.5573 57.875 90.224 57.5781 89.7969C57.2865 89.3646 57.1406 88.8984 57.1406 88.3984H58.5859C58.612 88.8828 58.8047 89.2682 59.1641 89.5547C59.5286 89.8359 60.0078 89.9766 60.6016 89.9766C61.1484 89.9766 61.5859 89.8672 61.9141 89.6484C62.2474 89.4245 62.4141 89.1276 62.4141 88.7578ZM69.25 91.1562C68.1042 91.1562 67.1719 90.7812 66.4531 90.0312C65.7344 89.276 65.375 88.2682 65.375 87.0078V86.7422C65.375 85.9036 65.5339 85.1562 65.8516 84.5C66.1745 83.8385 66.6224 83.3229 67.1953 82.9531C67.7734 82.5781 68.3984 82.3906 69.0703 82.3906C70.1693 82.3906 71.0234 82.7526 71.6328 83.4766C72.2422 84.2005 72.5469 85.237 72.5469 86.5859V87.1875H66.8203C66.8411 88.0208 67.0833 88.6953 67.5469 89.2109C68.0156 89.7214 68.6094 89.9766 69.3281 89.9766C69.8385 89.9766 70.2708 89.8724 70.625 89.6641C70.9792 89.4557 71.2891 89.1797 71.5547 88.8359L72.4375 89.5234C71.7292 90.612 70.6667 91.1562 69.25 91.1562ZM69.0703 83.5781C68.487 83.5781 67.9974 83.7917 67.6016 84.2188C67.2057 84.6406 66.9609 85.2344 66.8672 86H71.1016V85.8906C71.0599 85.1562 70.862 84.5885 70.5078 84.1875C70.1536 83.7812 69.6745 83.5781 69.0703 83.5781ZM77.6172 89.9766C78.1328 89.9766 78.5833 89.8203 78.9688 89.5078C79.3542 89.1953 79.5677 88.8047 79.6094 88.3359H80.9766C80.9505 88.8203 80.7839 89.2812 80.4766 89.7188C80.1693 90.1562 79.7578 90.5052 79.2422 90.7656C78.7318 91.026 78.1901 91.1562 77.6172 91.1562C76.4661 91.1562 75.5495 90.7734 74.8672 90.0078C74.1901 89.237 73.8516 88.1849 73.8516 86.8516V86.6094C73.8516 85.7865 74.0026 85.0547 74.3047 84.4141C74.6068 83.7734 75.0391 83.276 75.6016 82.9219C76.1693 82.5677 76.8385 82.3906 77.6094 82.3906C78.5573 82.3906 79.3438 82.6745 79.9688 83.2422C80.599 83.8099 80.9349 84.5469 80.9766 85.4531H79.6094C79.5677 84.9062 79.3594 84.4583 78.9844 84.1094C78.6146 83.7552 78.1562 83.5781 77.6094 83.5781C76.875 83.5781 76.3047 83.8438 75.8984 84.375C75.4974 84.901 75.2969 85.6641 75.2969 86.6641V86.9375C75.2969 87.9115 75.4974 88.6615 75.8984 89.1875C76.2995 89.7135 76.8724 89.9766 77.6172 89.9766ZM84.5625 80.5V82.5469H86.1406V83.6641H84.5625V88.9062C84.5625 89.2448 84.6328 89.5 84.7734 89.6719C84.9141 89.8385 85.1536 89.9219 85.4922 89.9219C85.6589 89.9219 85.888 89.8906 86.1797 89.8281V91C85.7995 91.1042 85.4297 91.1562 85.0703 91.1562C84.4245 91.1562 83.9375 90.9609 83.6094 90.5703C83.2812 90.1797 83.1172 89.625 83.1172 88.9062V83.6641H81.5781V82.5469H83.1172V80.5H84.5625ZM91.3438 91.1562C90.1979 91.1562 89.2656 90.7812 88.5469 90.0312C87.8281 89.276 87.4688 88.2682 87.4688 87.0078V86.7422C87.4688 85.9036 87.6276 85.1562 87.9453 84.5C88.2682 83.8385 88.7161 83.3229 89.2891 82.9531C89.8672 82.5781 90.4922 82.3906 91.1641 82.3906C92.263 82.3906 93.1172 82.7526 93.7266 83.4766C94.3359 84.2005 94.6406 85.237 94.6406 86.5859V87.1875H88.9141C88.9349 88.0208 89.1771 88.6953 89.6406 89.2109C90.1094 89.7214 90.7031 89.9766 91.4219 89.9766C91.9323 89.9766 92.3646 89.8724 92.7188 89.6641C93.0729 89.4557 93.3828 89.1797 93.6484 88.8359L94.5312 89.5234C93.8229 90.612 92.7604 91.1562 91.3438 91.1562ZM91.1641 83.5781C90.5807 83.5781 90.0911 83.7917 89.6953 84.2188C89.2995 84.6406 89.0547 85.2344 88.9609 86H93.1953V85.8906C93.1536 85.1562 92.9557 84.5885 92.6016 84.1875C92.2474 83.7812 91.7682 83.5781 91.1641 83.5781ZM98.2812 80.5V82.5469H99.8594V83.6641H98.2812V88.9062C98.2812 89.2448 98.3516 89.5 98.4922 89.6719C98.6328 89.8385 98.8724 89.9219 99.2109 89.9219C99.3776 89.9219 99.6068 89.8906 99.8984 89.8281V91C99.5182 91.1042 99.1484 91.1562 98.7891 91.1562C98.1432 91.1562 97.6562 90.9609 97.3281 90.5703C97 90.1797 96.8359 89.625 96.8359 88.9062V83.6641H95.2969V82.5469H96.8359V80.5H98.2812ZM106.773 90.1641C106.211 90.8255 105.385 91.1562 104.297 91.1562C103.396 91.1562 102.708 90.8958 102.234 90.375C101.766 89.849 101.529 89.0729 101.523 88.0469V82.5469H102.969V88.0078C102.969 89.2891 103.49 89.9297 104.531 89.9297C105.635 89.9297 106.37 89.5182 106.734 88.6953V82.5469H108.18V91H106.805L106.773 90.1641ZM114.469 83.8438C114.25 83.8073 114.013 83.7891 113.758 83.7891C112.81 83.7891 112.167 84.1927 111.828 85V91H110.383V82.5469H111.789L111.812 83.5234C112.286 82.7682 112.958 82.3906 113.828 82.3906C114.109 82.3906 114.323 82.4271 114.469 82.5V83.8438ZM124.992 91C124.909 90.8333 124.841 90.5365 124.789 90.1094C124.117 90.8073 123.315 91.1562 122.383 91.1562C121.549 91.1562 120.865 90.9219 120.328 90.4531C119.797 89.9792 119.531 89.3802 119.531 88.6562C119.531 87.776 119.865 87.0938 120.531 86.6094C121.203 86.1198 122.146 85.875 123.359 85.875H124.766V85.2109C124.766 84.7057 124.615 84.3047 124.312 84.0078C124.01 83.7057 123.565 83.5547 122.977 83.5547C122.461 83.5547 122.029 83.6849 121.68 83.9453C121.331 84.2057 121.156 84.5208 121.156 84.8906H119.703C119.703 84.4688 119.852 84.0625 120.148 83.6719C120.451 83.276 120.857 82.9635 121.367 82.7344C121.883 82.5052 122.448 82.3906 123.062 82.3906C124.036 82.3906 124.799 82.6354 125.352 83.125C125.904 83.6094 126.19 84.2786 126.211 85.1328V89.0234C126.211 89.7995 126.31 90.4167 126.508 90.875V91H124.992ZM122.594 89.8984C123.047 89.8984 123.477 89.7812 123.883 89.5469C124.289 89.3125 124.583 89.0078 124.766 88.6328V86.8984H123.633C121.862 86.8984 120.977 87.4167 120.977 88.4531C120.977 88.9062 121.128 89.2604 121.43 89.5156C121.732 89.7708 122.12 89.8984 122.594 89.8984ZM128.125 86.7031C128.125 85.4062 128.432 84.3646 129.047 83.5781C129.661 82.7865 130.466 82.3906 131.461 82.3906C132.451 82.3906 133.234 82.7292 133.812 83.4062V79H135.258V91H133.93L133.859 90.0938C133.281 90.8021 132.477 91.1562 131.445 91.1562C130.466 91.1562 129.667 90.7552 129.047 89.9531C128.432 89.151 128.125 88.1042 128.125 86.8125V86.7031ZM129.57 86.8672C129.57 87.8255 129.768 88.5755 130.164 89.1172C130.56 89.6589 131.107 89.9297 131.805 89.9297C132.721 89.9297 133.391 89.5182 133.812 88.6953V84.8125C133.38 84.0156 132.716 83.6172 131.82 83.6172C131.112 83.6172 130.56 83.8906 130.164 84.4375C129.768 84.9844 129.57 85.7943 129.57 86.8672ZM139.078 91H137.633V82.5469H139.078V91ZM137.516 80.3047C137.516 80.0703 137.586 79.8724 137.727 79.7109C137.872 79.5495 138.086 79.4688 138.367 79.4688C138.648 79.4688 138.862 79.5495 139.008 79.7109C139.154 79.8724 139.227 80.0703 139.227 80.3047C139.227 80.5391 139.154 80.7344 139.008 80.8906C138.862 81.0469 138.648 81.125 138.367 81.125C138.086 81.125 137.872 81.0469 137.727 80.8906C137.586 80.7344 137.516 80.5391 137.516 80.3047ZM148.539 86.8672C148.539 88.1536 148.245 89.1901 147.656 89.9766C147.068 90.763 146.271 91.1562 145.266 91.1562C144.24 91.1562 143.432 90.8307 142.844 90.1797V94.25H141.398V82.5469H142.719L142.789 83.4844C143.378 82.7552 144.195 82.3906 145.242 82.3906C146.258 82.3906 147.06 82.7734 147.648 83.5391C148.242 84.3047 148.539 85.3698 148.539 86.7344V86.8672ZM147.094 86.7031C147.094 85.75 146.891 84.9974 146.484 84.4453C146.078 83.8932 145.521 83.6172 144.812 83.6172C143.938 83.6172 143.281 84.0052 142.844 84.7812V88.8203C143.276 89.5911 143.938 89.9766 144.828 89.9766C145.521 89.9766 146.07 89.7031 146.477 89.1562C146.888 88.6042 147.094 87.7865 147.094 86.7031ZM151.953 91H150.508V82.5469H151.953V91ZM150.391 80.3047C150.391 80.0703 150.461 79.8724 150.602 79.7109C150.747 79.5495 150.961 79.4688 151.242 79.4688C151.523 79.4688 151.737 79.5495 151.883 79.7109C152.029 79.8724 152.102 80.0703 152.102 80.3047C152.102 80.5391 152.029 80.7344 151.883 80.8906C151.737 81.0469 151.523 81.125 151.242 81.125C150.961 81.125 150.747 81.0469 150.602 80.8906C150.461 80.7344 150.391 80.5391 150.391 80.3047ZM159.195 88.7578C159.195 88.3672 159.047 88.0651 158.75 87.8516C158.458 87.6328 157.945 87.4453 157.211 87.2891C156.482 87.1328 155.901 86.9453 155.469 86.7266C155.042 86.5078 154.724 86.2474 154.516 85.9453C154.312 85.6432 154.211 85.2839 154.211 84.8672C154.211 84.1745 154.503 83.5885 155.086 83.1094C155.674 82.6302 156.424 82.3906 157.336 82.3906C158.294 82.3906 159.07 82.638 159.664 83.1328C160.263 83.6276 160.562 84.2604 160.562 85.0312H159.109C159.109 84.6354 158.94 84.2943 158.602 84.0078C158.268 83.7214 157.846 83.5781 157.336 83.5781C156.81 83.5781 156.398 83.6927 156.102 83.9219C155.805 84.151 155.656 84.4505 155.656 84.8203C155.656 85.1693 155.794 85.4323 156.07 85.6094C156.346 85.7865 156.844 85.9557 157.562 86.1172C158.286 86.2786 158.872 86.4714 159.32 86.6953C159.768 86.9193 160.099 87.1901 160.312 87.5078C160.531 87.8203 160.641 88.2031 160.641 88.6562C160.641 89.4115 160.339 90.0182 159.734 90.4766C159.13 90.9297 158.346 91.1562 157.383 91.1562C156.706 91.1562 156.107 91.0365 155.586 90.7969C155.065 90.5573 154.656 90.224 154.359 89.7969C154.068 89.3646 153.922 88.8984 153.922 88.3984H155.367C155.393 88.8828 155.586 89.2682 155.945 89.5547C156.31 89.8359 156.789 89.9766 157.383 89.9766C157.93 89.9766 158.367 89.8672 158.695 89.6484C159.029 89.4245 159.195 89.1276 159.195 88.7578ZM165.914 89.9766C166.43 89.9766 166.88 89.8203 167.266 89.5078C167.651 89.1953 167.865 88.8047 167.906 88.3359H169.273C169.247 88.8203 169.081 89.2812 168.773 89.7188C168.466 90.1562 168.055 90.5052 167.539 90.7656C167.029 91.026 166.487 91.1562 165.914 91.1562C164.763 91.1562 163.846 90.7734 163.164 90.0078C162.487 89.237 162.148 88.1849 162.148 86.8516V86.6094C162.148 85.7865 162.299 85.0547 162.602 84.4141C162.904 83.7734 163.336 83.276 163.898 82.9219C164.466 82.5677 165.135 82.3906 165.906 82.3906C166.854 82.3906 167.641 82.6745 168.266 83.2422C168.896 83.8099 169.232 84.5469 169.273 85.4531H167.906C167.865 84.9062 167.656 84.4583 167.281 84.1094C166.911 83.7552 166.453 83.5781 165.906 83.5781C165.172 83.5781 164.602 83.8438 164.195 84.375C163.794 84.901 163.594 85.6641 163.594 86.6641V86.9375C163.594 87.9115 163.794 88.6615 164.195 89.1875C164.596 89.7135 165.169 89.9766 165.914 89.9766ZM172.469 91H171.023V82.5469H172.469V91ZM170.906 80.3047C170.906 80.0703 170.977 79.8724 171.117 79.7109C171.263 79.5495 171.477 79.4688 171.758 79.4688C172.039 79.4688 172.253 79.5495 172.398 79.7109C172.544 79.8724 172.617 80.0703 172.617 80.3047C172.617 80.5391 172.544 80.7344 172.398 80.8906C172.253 81.0469 172.039 81.125 171.758 81.125C171.477 81.125 171.263 81.0469 171.117 80.8906C170.977 80.7344 170.906 80.5391 170.906 80.3047ZM176.156 82.5469L176.203 83.6094C176.849 82.7969 177.693 82.3906 178.734 82.3906C180.521 82.3906 181.422 83.3984 181.438 85.4141V91H179.992V85.4062C179.987 84.7969 179.846 84.3464 179.57 84.0547C179.299 83.763 178.875 83.6172 178.297 83.6172C177.828 83.6172 177.417 83.7422 177.062 83.9922C176.708 84.2422 176.432 84.5703 176.234 84.9766V91H174.789V82.5469H176.156ZM183.273 86.7031C183.273 85.3854 183.578 84.3385 184.188 83.5625C184.797 82.7812 185.604 82.3906 186.609 82.3906C187.641 82.3906 188.445 82.7552 189.023 83.4844L189.094 82.5469H190.414V90.7969C190.414 91.8906 190.089 92.7526 189.438 93.3828C188.792 94.013 187.922 94.3281 186.828 94.3281C186.219 94.3281 185.622 94.1979 185.039 93.9375C184.456 93.6771 184.01 93.3203 183.703 92.8672L184.453 92C185.073 92.7656 185.831 93.1484 186.727 93.1484C187.43 93.1484 187.977 92.9505 188.367 92.5547C188.763 92.1589 188.961 91.6016 188.961 90.8828V90.1562C188.383 90.8229 187.594 91.1562 186.594 91.1562C185.604 91.1562 184.802 90.7578 184.188 89.9609C183.578 89.1641 183.273 88.0781 183.273 86.7031ZM184.727 86.8672C184.727 87.8203 184.922 88.5703 185.312 89.1172C185.703 89.6589 186.25 89.9297 186.953 89.9297C187.865 89.9297 188.534 89.5156 188.961 88.6875V84.8281C188.518 84.0208 187.854 83.6172 186.969 83.6172C186.266 83.6172 185.716 83.8906 185.32 84.4375C184.924 84.9844 184.727 85.7943 184.727 86.8672ZM200.078 91.1562C198.932 91.1562 198 90.7812 197.281 90.0312C196.562 89.276 196.203 88.2682 196.203 87.0078V86.7422C196.203 85.9036 196.362 85.1562 196.68 84.5C197.003 83.8385 197.451 83.3229 198.023 82.9531C198.602 82.5781 199.227 82.3906 199.898 82.3906C200.997 82.3906 201.852 82.7526 202.461 83.4766C203.07 84.2005 203.375 85.237 203.375 86.5859V87.1875H197.648C197.669 88.0208 197.911 88.6953 198.375 89.2109C198.844 89.7214 199.438 89.9766 200.156 89.9766C200.667 89.9766 201.099 89.8724 201.453 89.6641C201.807 89.4557 202.117 89.1797 202.383 88.8359L203.266 89.5234C202.557 90.612 201.495 91.1562 200.078 91.1562ZM199.898 83.5781C199.315 83.5781 198.826 83.7917 198.43 84.2188C198.034 84.6406 197.789 85.2344 197.695 86H201.93V85.8906C201.888 85.1562 201.69 84.5885 201.336 84.1875C200.982 83.7812 200.503 83.5781 199.898 83.5781ZM206.625 91H205.18V79H206.625V91ZM210.516 91H209.07V82.5469H210.516V91ZM208.953 80.3047C208.953 80.0703 209.023 79.8724 209.164 79.7109C209.31 79.5495 209.523 79.4688 209.805 79.4688C210.086 79.4688 210.299 79.5495 210.445 79.7109C210.591 79.8724 210.664 80.0703 210.664 80.3047C210.664 80.5391 210.591 80.7344 210.445 80.8906C210.299 81.0469 210.086 81.125 209.805 81.125C209.523 81.125 209.31 81.0469 209.164 80.8906C209.023 80.7344 208.953 80.5391 208.953 80.3047ZM214.797 80.5V82.5469H216.375V83.6641H214.797V88.9062C214.797 89.2448 214.867 89.5 215.008 89.6719C215.148 89.8385 215.388 89.9219 215.727 89.9219C215.893 89.9219 216.122 89.8906 216.414 89.8281V91C216.034 91.1042 215.664 91.1562 215.305 91.1562C214.659 91.1562 214.172 90.9609 213.844 90.5703C213.516 90.1797 213.352 89.625 213.352 88.9062V83.6641H211.812V82.5469H213.352V80.5H214.797ZM218.023 93.2656L217.203 92.7031C217.693 92.0208 217.948 91.3177 217.969 90.5938V89.2891H219.383V90.4219C219.383 90.9479 219.253 91.474 218.992 92C218.737 92.526 218.414 92.9479 218.023 93.2656ZM230.102 88.7578C230.102 88.3672 229.953 88.0651 229.656 87.8516C229.365 87.6328 228.852 87.4453 228.117 87.2891C227.388 87.1328 226.807 86.9453 226.375 86.7266C225.948 86.5078 225.63 86.2474 225.422 85.9453C225.219 85.6432 225.117 85.2839 225.117 84.8672C225.117 84.1745 225.409 83.5885 225.992 83.1094C226.581 82.6302 227.331 82.3906 228.242 82.3906C229.201 82.3906 229.977 82.638 230.57 83.1328C231.169 83.6276 231.469 84.2604 231.469 85.0312H230.016C230.016 84.6354 229.846 84.2943 229.508 84.0078C229.174 83.7214 228.753 83.5781 228.242 83.5781C227.716 83.5781 227.305 83.6927 227.008 83.9219C226.711 84.151 226.562 84.4505 226.562 84.8203C226.562 85.1693 226.701 85.4323 226.977 85.6094C227.253 85.7865 227.75 85.9557 228.469 86.1172C229.193 86.2786 229.779 86.4714 230.227 86.6953C230.674 86.9193 231.005 87.1901 231.219 87.5078C231.438 87.8203 231.547 88.2031 231.547 88.6562C231.547 89.4115 231.245 90.0182 230.641 90.4766C230.036 90.9297 229.253 91.1562 228.289 91.1562C227.612 91.1562 227.013 91.0365 226.492 90.7969C225.971 90.5573 225.562 90.224 225.266 89.7969C224.974 89.3646 224.828 88.8984 224.828 88.3984H226.273C226.299 88.8828 226.492 89.2682 226.852 89.5547C227.216 89.8359 227.695 89.9766 228.289 89.9766C228.836 89.9766 229.273 89.8672 229.602 89.6484C229.935 89.4245 230.102 89.1276 230.102 88.7578ZM236.938 91.1562C235.792 91.1562 234.859 90.7812 234.141 90.0312C233.422 89.276 233.062 88.2682 233.062 87.0078V86.7422C233.062 85.9036 233.221 85.1562 233.539 84.5C233.862 83.8385 234.31 83.3229 234.883 82.9531C235.461 82.5781 236.086 82.3906 236.758 82.3906C237.857 82.3906 238.711 82.7526 239.32 83.4766C239.93 84.2005 240.234 85.237 240.234 86.5859V87.1875H234.508C234.529 88.0208 234.771 88.6953 235.234 89.2109C235.703 89.7214 236.297 89.9766 237.016 89.9766C237.526 89.9766 237.958 89.8724 238.312 89.6641C238.667 89.4557 238.977 89.1797 239.242 88.8359L240.125 89.5234C239.417 90.612 238.354 91.1562 236.938 91.1562ZM236.758 83.5781C236.174 83.5781 235.685 83.7917 235.289 84.2188C234.893 84.6406 234.648 85.2344 234.555 86H238.789V85.8906C238.747 85.1562 238.549 84.5885 238.195 84.1875C237.841 83.7812 237.362 83.5781 236.758 83.5781ZM241.562 86.7031C241.562 85.4062 241.87 84.3646 242.484 83.5781C243.099 82.7865 243.904 82.3906 244.898 82.3906C245.888 82.3906 246.672 82.7292 247.25 83.4062V79H248.695V91H247.367L247.297 90.0938C246.719 90.8021 245.914 91.1562 244.883 91.1562C243.904 91.1562 243.104 90.7552 242.484 89.9531C241.87 89.151 241.562 88.1042 241.562 86.8125V86.7031ZM243.008 86.8672C243.008 87.8255 243.206 88.5755 243.602 89.1172C243.997 89.6589 244.544 89.9297 245.242 89.9297C246.159 89.9297 246.828 89.5182 247.25 88.6953V84.8125C246.818 84.0156 246.154 83.6172 245.258 83.6172C244.549 83.6172 243.997 83.8906 243.602 84.4375C243.206 84.9844 243.008 85.7943 243.008 86.8672ZM254.562 86.7031C254.562 85.4062 254.87 84.3646 255.484 83.5781C256.099 82.7865 256.904 82.3906 257.898 82.3906C258.888 82.3906 259.672 82.7292 260.25 83.4062V79H261.695V91H260.367L260.297 90.0938C259.719 90.8021 258.914 91.1562 257.883 91.1562C256.904 91.1562 256.104 90.7552 255.484 89.9531C254.87 89.151 254.562 88.1042 254.562 86.8125V86.7031ZM256.008 86.8672C256.008 87.8255 256.206 88.5755 256.602 89.1172C256.997 89.6589 257.544 89.9297 258.242 89.9297C259.159 89.9297 259.828 89.5182 260.25 88.6953V84.8125C259.818 84.0156 259.154 83.6172 258.258 83.6172C257.549 83.6172 256.997 83.8906 256.602 84.4375C256.206 84.9844 256.008 85.7943 256.008 86.8672ZM263.562 86.6953C263.562 85.8672 263.724 85.1224 264.047 84.4609C264.375 83.7995 264.828 83.2891 265.406 82.9297C265.99 82.5703 266.654 82.3906 267.398 82.3906C268.549 82.3906 269.479 82.7891 270.188 83.5859C270.901 84.3828 271.258 85.4427 271.258 86.7656V86.8672C271.258 87.6901 271.099 88.4297 270.781 89.0859C270.469 89.737 270.018 90.2448 269.43 90.6094C268.846 90.974 268.174 91.1562 267.414 91.1562C266.268 91.1562 265.339 90.7578 264.625 89.9609C263.917 89.1641 263.562 88.1094 263.562 86.7969V86.6953ZM265.016 86.8672C265.016 87.8047 265.232 88.5573 265.664 89.125C266.102 89.6927 266.685 89.9766 267.414 89.9766C268.148 89.9766 268.732 89.6901 269.164 89.1172C269.596 88.5391 269.812 87.7318 269.812 86.6953C269.812 85.7682 269.591 85.0182 269.148 84.4453C268.711 83.8672 268.128 83.5781 267.398 83.5781C266.685 83.5781 266.109 83.862 265.672 84.4297C265.234 84.9974 265.016 85.8099 265.016 86.8672ZM26.0312 110.156C24.8854 110.156 23.9531 109.781 23.2344 109.031C22.5156 108.276 22.1562 107.268 22.1562 106.008V105.742C22.1562 104.904 22.3151 104.156 22.6328 103.5C22.9557 102.839 23.4036 102.323 23.9766 101.953C24.5547 101.578 25.1797 101.391 25.8516 101.391C26.9505 101.391 27.8047 101.753 28.4141 102.477C29.0234 103.201 29.3281 104.237 29.3281 105.586V106.188H23.6016C23.6224 107.021 23.8646 107.695 24.3281 108.211C24.7969 108.721 25.3906 108.977 26.1094 108.977C26.6198 108.977 27.0521 108.872 27.4062 108.664C27.7604 108.456 28.0703 108.18 28.3359 107.836L29.2188 108.523C28.5104 109.612 27.4479 110.156 26.0312 110.156ZM25.8516 102.578C25.2682 102.578 24.7786 102.792 24.3828 103.219C23.987 103.641 23.7422 104.234 23.6484 105H27.8828V104.891C27.8411 104.156 27.6432 103.589 27.2891 103.188C26.9349 102.781 26.4557 102.578 25.8516 102.578ZM32.5781 110H31.1328V101.547H32.5781V110ZM31.0156 99.3047C31.0156 99.0703 31.0859 98.8724 31.2266 98.7109C31.3724 98.5495 31.5859 98.4688 31.8672 98.4688C32.1484 98.4688 32.362 98.5495 32.5078 98.7109C32.6536 98.8724 32.7266 99.0703 32.7266 99.3047C32.7266 99.5391 32.6536 99.7344 32.5078 99.8906C32.362 100.047 32.1484 100.125 31.8672 100.125C31.5859 100.125 31.3724 100.047 31.2266 99.8906C31.0859 99.7344 31.0156 99.5391 31.0156 99.3047ZM40.1172 109.164C39.5547 109.826 38.7292 110.156 37.6406 110.156C36.7396 110.156 36.0521 109.896 35.5781 109.375C35.1094 108.849 34.8724 108.073 34.8672 107.047V101.547H36.3125V107.008C36.3125 108.289 36.8333 108.93 37.875 108.93C38.9792 108.93 39.7135 108.518 40.0781 107.695V101.547H41.5234V110H40.1484L40.1172 109.164ZM48.6484 107.758C48.6484 107.367 48.5 107.065 48.2031 106.852C47.9115 106.633 47.3984 106.445 46.6641 106.289C45.9349 106.133 45.3542 105.945 44.9219 105.727C44.4948 105.508 44.1771 105.247 43.9688 104.945C43.7656 104.643 43.6641 104.284 43.6641 103.867C43.6641 103.174 43.9557 102.589 44.5391 102.109C45.1276 101.63 45.8776 101.391 46.7891 101.391C47.7474 101.391 48.5234 101.638 49.1172 102.133C49.7161 102.628 50.0156 103.26 50.0156 104.031H48.5625C48.5625 103.635 48.3932 103.294 48.0547 103.008C47.7214 102.721 47.2995 102.578 46.7891 102.578C46.263 102.578 45.8516 102.693 45.5547 102.922C45.2578 103.151 45.1094 103.451 45.1094 103.82C45.1094 104.169 45.2474 104.432 45.5234 104.609C45.7995 104.786 46.2969 104.956 47.0156 105.117C47.7396 105.279 48.3255 105.471 48.7734 105.695C49.2214 105.919 49.5521 106.19 49.7656 106.508C49.9844 106.82 50.0938 107.203 50.0938 107.656C50.0938 108.411 49.7917 109.018 49.1875 109.477C48.5833 109.93 47.7995 110.156 46.8359 110.156C46.1589 110.156 45.5599 110.036 45.0391 109.797C44.5182 109.557 44.1094 109.224 43.8125 108.797C43.5208 108.365 43.375 107.898 43.375 107.398H44.8203C44.8464 107.883 45.0391 108.268 45.3984 108.555C45.763 108.836 46.2422 108.977 46.8359 108.977C47.3828 108.977 47.8203 108.867 48.1484 108.648C48.4818 108.424 48.6484 108.128 48.6484 107.758ZM53.3359 101.547L53.375 102.484C53.9948 101.755 54.8307 101.391 55.8828 101.391C57.0651 101.391 57.8698 101.844 58.2969 102.75C58.5781 102.344 58.9427 102.016 59.3906 101.766C59.8438 101.516 60.3776 101.391 60.9922 101.391C62.8464 101.391 63.7891 102.372 63.8203 104.336V110H62.375V104.422C62.375 103.818 62.237 103.367 61.9609 103.07C61.6849 102.768 61.2214 102.617 60.5703 102.617C60.0339 102.617 59.5885 102.779 59.2344 103.102C58.8802 103.419 58.6745 103.849 58.6172 104.391V110H57.1641V104.461C57.1641 103.232 56.5625 102.617 55.3594 102.617C54.4115 102.617 53.763 103.021 53.4141 103.828V110H51.9688V101.547H53.3359ZM65.625 105.695C65.625 104.867 65.7865 104.122 66.1094 103.461C66.4375 102.799 66.8906 102.289 67.4688 101.93C68.0521 101.57 68.7161 101.391 69.4609 101.391C70.612 101.391 71.5417 101.789 72.25 102.586C72.9635 103.383 73.3203 104.443 73.3203 105.766V105.867C73.3203 106.69 73.1615 107.43 72.8438 108.086C72.5312 108.737 72.0807 109.245 71.4922 109.609C70.9089 109.974 70.237 110.156 69.4766 110.156C68.3307 110.156 67.401 109.758 66.6875 108.961C65.9792 108.164 65.625 107.109 65.625 105.797V105.695ZM67.0781 105.867C67.0781 106.805 67.2943 107.557 67.7266 108.125C68.1641 108.693 68.7474 108.977 69.4766 108.977C70.2109 108.977 70.7943 108.69 71.2266 108.117C71.6589 107.539 71.875 106.732 71.875 105.695C71.875 104.768 71.6536 104.018 71.2109 103.445C70.7734 102.867 70.1901 102.578 69.4609 102.578C68.7474 102.578 68.1719 102.862 67.7344 103.43C67.2969 103.997 67.0781 104.81 67.0781 105.867ZM74.7812 105.703C74.7812 104.406 75.0885 103.365 75.7031 102.578C76.3177 101.786 77.1224 101.391 78.1172 101.391C79.1068 101.391 79.8906 101.729 80.4688 102.406V98H81.9141V110H80.5859L80.5156 109.094C79.9375 109.802 79.1328 110.156 78.1016 110.156C77.1224 110.156 76.3229 109.755 75.7031 108.953C75.0885 108.151 74.7812 107.104 74.7812 105.812V105.703ZM76.2266 105.867C76.2266 106.826 76.4245 107.576 76.8203 108.117C77.2161 108.659 77.763 108.93 78.4609 108.93C79.3776 108.93 80.0469 108.518 80.4688 107.695V103.812C80.0365 103.016 79.3724 102.617 78.4766 102.617C77.7682 102.617 77.2161 102.891 76.8203 103.438C76.4245 103.984 76.2266 104.794 76.2266 105.867ZM90.0938 99.5V101.547H91.6719V102.664H90.0938V107.906C90.0938 108.245 90.1641 108.5 90.3047 108.672C90.4453 108.839 90.6849 108.922 91.0234 108.922C91.1901 108.922 91.4193 108.891 91.7109 108.828V110C91.3307 110.104 90.9609 110.156 90.6016 110.156C89.9557 110.156 89.4688 109.961 89.1406 109.57C88.8125 109.18 88.6484 108.625 88.6484 107.906V102.664H87.1094V101.547H88.6484V99.5H90.0938ZM96.875 110.156C95.7292 110.156 94.7969 109.781 94.0781 109.031C93.3594 108.276 93 107.268 93 106.008V105.742C93 104.904 93.1589 104.156 93.4766 103.5C93.7995 102.839 94.2474 102.323 94.8203 101.953C95.3984 101.578 96.0234 101.391 96.6953 101.391C97.7943 101.391 98.6484 101.753 99.2578 102.477C99.8672 103.201 100.172 104.237 100.172 105.586V106.188H94.4453C94.4661 107.021 94.7083 107.695 95.1719 108.211C95.6406 108.721 96.2344 108.977 96.9531 108.977C97.4635 108.977 97.8958 108.872 98.25 108.664C98.6042 108.456 98.9141 108.18 99.1797 107.836L100.062 108.523C99.3542 109.612 98.2917 110.156 96.875 110.156ZM96.6953 102.578C96.112 102.578 95.6224 102.792 95.2266 103.219C94.8307 103.641 94.5859 104.234 94.4922 105H98.7266V104.891C98.6849 104.156 98.487 103.589 98.1328 103.188C97.7786 102.781 97.2995 102.578 96.6953 102.578ZM103.211 101.547L103.25 102.484C103.87 101.755 104.706 101.391 105.758 101.391C106.94 101.391 107.745 101.844 108.172 102.75C108.453 102.344 108.818 102.016 109.266 101.766C109.719 101.516 110.253 101.391 110.867 101.391C112.721 101.391 113.664 102.372 113.695 104.336V110H112.25V104.422C112.25 103.818 112.112 103.367 111.836 103.07C111.56 102.768 111.096 102.617 110.445 102.617C109.909 102.617 109.464 102.779 109.109 103.102C108.755 103.419 108.549 103.849 108.492 104.391V110H107.039V104.461C107.039 103.232 106.438 102.617 105.234 102.617C104.286 102.617 103.638 103.021 103.289 103.828V110H101.844V101.547H103.211ZM123.023 105.867C123.023 107.154 122.729 108.19 122.141 108.977C121.552 109.763 120.755 110.156 119.75 110.156C118.724 110.156 117.917 109.831 117.328 109.18V113.25H115.883V101.547H117.203L117.273 102.484C117.862 101.755 118.68 101.391 119.727 101.391C120.742 101.391 121.544 101.773 122.133 102.539C122.727 103.305 123.023 104.37 123.023 105.734V105.867ZM121.578 105.703C121.578 104.75 121.375 103.997 120.969 103.445C120.562 102.893 120.005 102.617 119.297 102.617C118.422 102.617 117.766 103.005 117.328 103.781V107.82C117.76 108.591 118.422 108.977 119.312 108.977C120.005 108.977 120.555 108.703 120.961 108.156C121.372 107.604 121.578 106.786 121.578 105.703ZM124.484 105.695C124.484 104.867 124.646 104.122 124.969 103.461C125.297 102.799 125.75 102.289 126.328 101.93C126.911 101.57 127.576 101.391 128.32 101.391C129.471 101.391 130.401 101.789 131.109 102.586C131.823 103.383 132.18 104.443 132.18 105.766V105.867C132.18 106.69 132.021 107.43 131.703 108.086C131.391 108.737 130.94 109.245 130.352 109.609C129.768 109.974 129.096 110.156 128.336 110.156C127.19 110.156 126.26 109.758 125.547 108.961C124.839 108.164 124.484 107.109 124.484 105.797V105.695ZM125.938 105.867C125.938 106.805 126.154 107.557 126.586 108.125C127.023 108.693 127.607 108.977 128.336 108.977C129.07 108.977 129.654 108.69 130.086 108.117C130.518 107.539 130.734 106.732 130.734 105.695C130.734 104.768 130.513 104.018 130.07 103.445C129.633 102.867 129.049 102.578 128.32 102.578C127.607 102.578 127.031 102.862 126.594 103.43C126.156 103.997 125.938 104.81 125.938 105.867ZM138.078 102.844C137.859 102.807 137.622 102.789 137.367 102.789C136.419 102.789 135.776 103.193 135.438 104V110H133.992V101.547H135.398L135.422 102.523C135.896 101.768 136.568 101.391 137.438 101.391C137.719 101.391 137.932 101.427 138.078 101.5V102.844ZM144.953 110H143.508V101.547H144.953V110ZM143.391 99.3047C143.391 99.0703 143.461 98.8724 143.602 98.7109C143.747 98.5495 143.961 98.4688 144.242 98.4688C144.523 98.4688 144.737 98.5495 144.883 98.7109C145.029 98.8724 145.102 99.0703 145.102 99.3047C145.102 99.5391 145.029 99.7344 144.883 99.8906C144.737 100.047 144.523 100.125 144.242 100.125C143.961 100.125 143.747 100.047 143.602 99.8906C143.461 99.7344 143.391 99.5391 143.391 99.3047ZM148.641 101.547L148.688 102.609C149.333 101.797 150.177 101.391 151.219 101.391C153.005 101.391 153.906 102.398 153.922 104.414V110H152.477V104.406C152.471 103.797 152.331 103.346 152.055 103.055C151.784 102.763 151.359 102.617 150.781 102.617C150.312 102.617 149.901 102.742 149.547 102.992C149.193 103.242 148.917 103.57 148.719 103.977V110H147.273V101.547H148.641ZM159.492 108.977C160.008 108.977 160.458 108.82 160.844 108.508C161.229 108.195 161.443 107.805 161.484 107.336H162.852C162.826 107.82 162.659 108.281 162.352 108.719C162.044 109.156 161.633 109.505 161.117 109.766C160.607 110.026 160.065 110.156 159.492 110.156C158.341 110.156 157.424 109.773 156.742 109.008C156.065 108.237 155.727 107.185 155.727 105.852V105.609C155.727 104.786 155.878 104.055 156.18 103.414C156.482 102.773 156.914 102.276 157.477 101.922C158.044 101.568 158.714 101.391 159.484 101.391C160.432 101.391 161.219 101.674 161.844 102.242C162.474 102.81 162.81 103.547 162.852 104.453H161.484C161.443 103.906 161.234 103.458 160.859 103.109C160.49 102.755 160.031 102.578 159.484 102.578C158.75 102.578 158.18 102.844 157.773 103.375C157.372 103.901 157.172 104.664 157.172 105.664V105.938C157.172 106.911 157.372 107.661 157.773 108.188C158.174 108.714 158.747 108.977 159.492 108.977ZM166.047 110H164.602V101.547H166.047V110ZM164.484 99.3047C164.484 99.0703 164.555 98.8724 164.695 98.7109C164.841 98.5495 165.055 98.4688 165.336 98.4688C165.617 98.4688 165.831 98.5495 165.977 98.7109C166.122 98.8724 166.195 99.0703 166.195 99.3047C166.195 99.5391 166.122 99.7344 165.977 99.8906C165.831 100.047 165.617 100.125 165.336 100.125C165.055 100.125 164.841 100.047 164.695 99.8906C164.555 99.7344 164.484 99.5391 164.484 99.3047ZM168.016 105.703C168.016 104.406 168.323 103.365 168.938 102.578C169.552 101.786 170.357 101.391 171.352 101.391C172.341 101.391 173.125 101.729 173.703 102.406V98H175.148V110H173.82L173.75 109.094C173.172 109.802 172.367 110.156 171.336 110.156C170.357 110.156 169.557 109.755 168.938 108.953C168.323 108.151 168.016 107.104 168.016 105.812V105.703ZM169.461 105.867C169.461 106.826 169.659 107.576 170.055 108.117C170.451 108.659 170.997 108.93 171.695 108.93C172.612 108.93 173.281 108.518 173.703 107.695V103.812C173.271 103.016 172.607 102.617 171.711 102.617C171.003 102.617 170.451 102.891 170.055 103.438C169.659 103.984 169.461 104.794 169.461 105.867ZM178.969 110H177.523V101.547H178.969V110ZM177.406 99.3047C177.406 99.0703 177.477 98.8724 177.617 98.7109C177.763 98.5495 177.977 98.4688 178.258 98.4688C178.539 98.4688 178.753 98.5495 178.898 98.7109C179.044 98.8724 179.117 99.0703 179.117 99.3047C179.117 99.5391 179.044 99.7344 178.898 99.8906C178.753 100.047 178.539 100.125 178.258 100.125C177.977 100.125 177.763 100.047 177.617 99.8906C177.477 99.7344 177.406 99.5391 177.406 99.3047ZM180.938 105.703C180.938 104.406 181.245 103.365 181.859 102.578C182.474 101.786 183.279 101.391 184.273 101.391C185.263 101.391 186.047 101.729 186.625 102.406V98H188.07V110H186.742L186.672 109.094C186.094 109.802 185.289 110.156 184.258 110.156C183.279 110.156 182.479 109.755 181.859 108.953C181.245 108.151 180.938 107.104 180.938 105.812V105.703ZM182.383 105.867C182.383 106.826 182.581 107.576 182.977 108.117C183.372 108.659 183.919 108.93 184.617 108.93C185.534 108.93 186.203 108.518 186.625 107.695V103.812C186.193 103.016 185.529 102.617 184.633 102.617C183.924 102.617 183.372 102.891 182.977 103.438C182.581 103.984 182.383 104.794 182.383 105.867ZM195.539 109.164C194.977 109.826 194.151 110.156 193.062 110.156C192.161 110.156 191.474 109.896 191 109.375C190.531 108.849 190.294 108.073 190.289 107.047V101.547H191.734V107.008C191.734 108.289 192.255 108.93 193.297 108.93C194.401 108.93 195.135 108.518 195.5 107.695V101.547H196.945V110H195.57L195.539 109.164ZM200.516 101.547L200.562 102.609C201.208 101.797 202.052 101.391 203.094 101.391C204.88 101.391 205.781 102.398 205.797 104.414V110H204.352V104.406C204.346 103.797 204.206 103.346 203.93 103.055C203.659 102.763 203.234 102.617 202.656 102.617C202.188 102.617 201.776 102.742 201.422 102.992C201.068 103.242 200.792 103.57 200.594 103.977V110H199.148V101.547H200.516ZM209.938 99.5V101.547H211.516V102.664H209.938V107.906C209.938 108.245 210.008 108.5 210.148 108.672C210.289 108.839 210.529 108.922 210.867 108.922C211.034 108.922 211.263 108.891 211.555 108.828V110C211.174 110.104 210.805 110.156 210.445 110.156C209.799 110.156 209.312 109.961 208.984 109.57C208.656 109.18 208.492 108.625 208.492 107.906V102.664H206.953V101.547H208.492V99.5H209.938ZM222.398 109.164C221.836 109.826 221.01 110.156 219.922 110.156C219.021 110.156 218.333 109.896 217.859 109.375C217.391 108.849 217.154 108.073 217.148 107.047V101.547H218.594V107.008C218.594 108.289 219.115 108.93 220.156 108.93C221.26 108.93 221.995 108.518 222.359 107.695V101.547H223.805V110H222.43L222.398 109.164ZM227.969 99.5V101.547H229.547V102.664H227.969V107.906C227.969 108.245 228.039 108.5 228.18 108.672C228.32 108.839 228.56 108.922 228.898 108.922C229.065 108.922 229.294 108.891 229.586 108.828V110C229.206 110.104 228.836 110.156 228.477 110.156C227.831 110.156 227.344 109.961 227.016 109.57C226.688 109.18 226.523 108.625 226.523 107.906V102.664H224.984V101.547H226.523V99.5H227.969ZM236.781 110H235.336V98H236.781V110ZM244.32 110C244.237 109.833 244.169 109.536 244.117 109.109C243.445 109.807 242.643 110.156 241.711 110.156C240.878 110.156 240.193 109.922 239.656 109.453C239.125 108.979 238.859 108.38 238.859 107.656C238.859 106.776 239.193 106.094 239.859 105.609C240.531 105.12 241.474 104.875 242.688 104.875H244.094V104.211C244.094 103.706 243.943 103.305 243.641 103.008C243.339 102.706 242.893 102.555 242.305 102.555C241.789 102.555 241.357 102.685 241.008 102.945C240.659 103.206 240.484 103.521 240.484 103.891H239.031C239.031 103.469 239.18 103.062 239.477 102.672C239.779 102.276 240.185 101.964 240.695 101.734C241.211 101.505 241.776 101.391 242.391 101.391C243.365 101.391 244.128 101.635 244.68 102.125C245.232 102.609 245.518 103.279 245.539 104.133V108.023C245.539 108.799 245.638 109.417 245.836 109.875V110H244.32ZM241.922 108.898C242.375 108.898 242.805 108.781 243.211 108.547C243.617 108.312 243.911 108.008 244.094 107.633V105.898H242.961C241.19 105.898 240.305 106.417 240.305 107.453C240.305 107.906 240.456 108.26 240.758 108.516C241.06 108.771 241.448 108.898 241.922 108.898ZM254.961 105.867C254.961 107.159 254.664 108.198 254.07 108.984C253.477 109.766 252.68 110.156 251.68 110.156C250.612 110.156 249.786 109.779 249.203 109.023L249.133 110H247.805V98H249.25V102.477C249.833 101.753 250.638 101.391 251.664 101.391C252.69 101.391 253.495 101.779 254.078 102.555C254.667 103.331 254.961 104.393 254.961 105.742V105.867ZM253.516 105.703C253.516 104.719 253.326 103.958 252.945 103.422C252.565 102.885 252.018 102.617 251.305 102.617C250.352 102.617 249.667 103.06 249.25 103.945V107.602C249.693 108.487 250.383 108.93 251.32 108.93C252.013 108.93 252.552 108.661 252.938 108.125C253.323 107.589 253.516 106.781 253.516 105.703ZM256.406 105.695C256.406 104.867 256.568 104.122 256.891 103.461C257.219 102.799 257.672 102.289 258.25 101.93C258.833 101.57 259.497 101.391 260.242 101.391C261.393 101.391 262.323 101.789 263.031 102.586C263.745 103.383 264.102 104.443 264.102 105.766V105.867C264.102 106.69 263.943 107.43 263.625 108.086C263.312 108.737 262.862 109.245 262.273 109.609C261.69 109.974 261.018 110.156 260.258 110.156C259.112 110.156 258.182 109.758 257.469 108.961C256.76 108.164 256.406 107.109 256.406 105.797V105.695ZM257.859 105.867C257.859 106.805 258.076 107.557 258.508 108.125C258.945 108.693 259.529 108.977 260.258 108.977C260.992 108.977 261.576 108.69 262.008 108.117C262.44 107.539 262.656 106.732 262.656 105.695C262.656 104.768 262.435 104.018 261.992 103.445C261.555 102.867 260.971 102.578 260.242 102.578C259.529 102.578 258.953 102.862 258.516 103.43C258.078 103.997 257.859 104.81 257.859 105.867ZM270 102.844C269.781 102.807 269.544 102.789 269.289 102.789C268.341 102.789 267.698 103.193 267.359 104V110H265.914V101.547H267.32L267.344 102.523C267.818 101.768 268.49 101.391 269.359 101.391C269.641 101.391 269.854 101.427 270 101.5V102.844ZM274.688 110.156C273.542 110.156 272.609 109.781 271.891 109.031C271.172 108.276 270.812 107.268 270.812 106.008V105.742C270.812 104.904 270.971 104.156 271.289 103.5C271.612 102.839 272.06 102.323 272.633 101.953C273.211 101.578 273.836 101.391 274.508 101.391C275.607 101.391 276.461 101.753 277.07 102.477C277.68 103.201 277.984 104.237 277.984 105.586V106.188H272.258C272.279 107.021 272.521 107.695 272.984 108.211C273.453 108.721 274.047 108.977 274.766 108.977C275.276 108.977 275.708 108.872 276.062 108.664C276.417 108.456 276.727 108.18 276.992 107.836L277.875 108.523C277.167 109.612 276.104 110.156 274.688 110.156ZM274.508 102.578C273.924 102.578 273.435 102.792 273.039 103.219C272.643 103.641 272.398 104.234 272.305 105H276.539V104.891C276.497 104.156 276.299 103.589 275.945 103.188C275.591 102.781 275.112 102.578 274.508 102.578ZM71.0391 129.156C69.8932 129.156 68.9609 128.781 68.2422 128.031C67.5234 127.276 67.1641 126.268 67.1641 125.008V124.742C67.1641 123.904 67.3229 123.156 67.6406 122.5C67.9635 121.839 68.4115 121.323 68.9844 120.953C69.5625 120.578 70.1875 120.391 70.8594 120.391C71.9583 120.391 72.8125 120.753 73.4219 121.477C74.0312 122.201 74.3359 123.237 74.3359 124.586V125.188H68.6094C68.6302 126.021 68.8724 126.695 69.3359 127.211C69.8047 127.721 70.3984 127.977 71.1172 127.977C71.6276 127.977 72.0599 127.872 72.4141 127.664C72.7682 127.456 73.0781 127.18 73.3438 126.836L74.2266 127.523C73.5182 128.612 72.4557 129.156 71.0391 129.156ZM70.8594 121.578C70.276 121.578 69.7865 121.792 69.3906 122.219C68.9948 122.641 68.75 123.234 68.6562 124H72.8906V123.891C72.849 123.156 72.651 122.589 72.2969 122.188C71.9427 121.781 71.4635 121.578 70.8594 121.578ZM77.9766 118.5V120.547H79.5547V121.664H77.9766V126.906C77.9766 127.245 78.0469 127.5 78.1875 127.672C78.3281 127.839 78.5677 127.922 78.9062 127.922C79.0729 127.922 79.3021 127.891 79.5938 127.828V129C79.2135 129.104 78.8438 129.156 78.4844 129.156C77.8385 129.156 77.3516 128.961 77.0234 128.57C76.6953 128.18 76.5312 127.625 76.5312 126.906V121.664H74.9922V120.547H76.5312V118.5H77.9766ZM84.8672 124.703C84.8672 123.406 85.1745 122.365 85.7891 121.578C86.4036 120.786 87.2083 120.391 88.2031 120.391C89.1927 120.391 89.9766 120.729 90.5547 121.406V117H92V129H90.6719L90.6016 128.094C90.0234 128.802 89.2188 129.156 88.1875 129.156C87.2083 129.156 86.4089 128.755 85.7891 127.953C85.1745 127.151 84.8672 126.104 84.8672 124.812V124.703ZM86.3125 124.867C86.3125 125.826 86.5104 126.576 86.9062 127.117C87.3021 127.659 87.849 127.93 88.5469 127.93C89.4635 127.93 90.1328 127.518 90.5547 126.695V122.812C90.1224 122.016 89.4583 121.617 88.5625 121.617C87.8542 121.617 87.3021 121.891 86.9062 122.438C86.5104 122.984 86.3125 123.794 86.3125 124.867ZM93.8672 124.695C93.8672 123.867 94.0286 123.122 94.3516 122.461C94.6797 121.799 95.1328 121.289 95.7109 120.93C96.2943 120.57 96.9583 120.391 97.7031 120.391C98.8542 120.391 99.7839 120.789 100.492 121.586C101.206 122.383 101.562 123.443 101.562 124.766V124.867C101.562 125.69 101.404 126.43 101.086 127.086C100.773 127.737 100.323 128.245 99.7344 128.609C99.151 128.974 98.4792 129.156 97.7188 129.156C96.5729 129.156 95.6432 128.758 94.9297 127.961C94.2214 127.164 93.8672 126.109 93.8672 124.797V124.695ZM95.3203 124.867C95.3203 125.805 95.5365 126.557 95.9688 127.125C96.4062 127.693 96.9896 127.977 97.7188 127.977C98.4531 127.977 99.0365 127.69 99.4688 127.117C99.901 126.539 100.117 125.732 100.117 124.695C100.117 123.768 99.8958 123.018 99.4531 122.445C99.0156 121.867 98.4323 121.578 97.7031 121.578C96.9896 121.578 96.4141 121.862 95.9766 122.43C95.5391 122.997 95.3203 123.81 95.3203 124.867ZM104.945 129H103.5V117H104.945V129ZM106.883 124.695C106.883 123.867 107.044 123.122 107.367 122.461C107.695 121.799 108.148 121.289 108.727 120.93C109.31 120.57 109.974 120.391 110.719 120.391C111.87 120.391 112.799 120.789 113.508 121.586C114.221 122.383 114.578 123.443 114.578 124.766V124.867C114.578 125.69 114.419 126.43 114.102 127.086C113.789 127.737 113.339 128.245 112.75 128.609C112.167 128.974 111.495 129.156 110.734 129.156C109.589 129.156 108.659 128.758 107.945 127.961C107.237 127.164 106.883 126.109 106.883 124.797V124.695ZM108.336 124.867C108.336 125.805 108.552 126.557 108.984 127.125C109.422 127.693 110.005 127.977 110.734 127.977C111.469 127.977 112.052 127.69 112.484 127.117C112.917 126.539 113.133 125.732 113.133 124.695C113.133 123.768 112.911 123.018 112.469 122.445C112.031 121.867 111.448 121.578 110.719 121.578C110.005 121.578 109.43 121.862 108.992 122.43C108.555 122.997 108.336 123.81 108.336 124.867ZM120.477 121.844C120.258 121.807 120.021 121.789 119.766 121.789C118.818 121.789 118.174 122.193 117.836 123V129H116.391V120.547H117.797L117.82 121.523C118.294 120.768 118.966 120.391 119.836 120.391C120.117 120.391 120.331 120.427 120.477 120.5V121.844ZM125.164 129.156C124.018 129.156 123.086 128.781 122.367 128.031C121.648 127.276 121.289 126.268 121.289 125.008V124.742C121.289 123.904 121.448 123.156 121.766 122.5C122.089 121.839 122.536 121.323 123.109 120.953C123.688 120.578 124.312 120.391 124.984 120.391C126.083 120.391 126.938 120.753 127.547 121.477C128.156 122.201 128.461 123.237 128.461 124.586V125.188H122.734C122.755 126.021 122.997 126.695 123.461 127.211C123.93 127.721 124.523 127.977 125.242 127.977C125.753 127.977 126.185 127.872 126.539 127.664C126.893 127.456 127.203 127.18 127.469 126.836L128.352 127.523C127.643 128.612 126.581 129.156 125.164 129.156ZM124.984 121.578C124.401 121.578 123.911 121.792 123.516 122.219C123.12 122.641 122.875 123.234 122.781 124H127.016V123.891C126.974 123.156 126.776 122.589 126.422 122.188C126.068 121.781 125.589 121.578 124.984 121.578ZM135.469 120.547L135.508 121.484C136.128 120.755 136.964 120.391 138.016 120.391C139.198 120.391 140.003 120.844 140.43 121.75C140.711 121.344 141.076 121.016 141.523 120.766C141.977 120.516 142.51 120.391 143.125 120.391C144.979 120.391 145.922 121.372 145.953 123.336V129H144.508V123.422C144.508 122.818 144.37 122.367 144.094 122.07C143.818 121.768 143.354 121.617 142.703 121.617C142.167 121.617 141.721 121.779 141.367 122.102C141.013 122.419 140.807 122.849 140.75 123.391V129H139.297V123.461C139.297 122.232 138.695 121.617 137.492 121.617C136.544 121.617 135.896 122.021 135.547 122.828V129H134.102V120.547H135.469ZM153.359 129C153.276 128.833 153.208 128.536 153.156 128.109C152.484 128.807 151.682 129.156 150.75 129.156C149.917 129.156 149.232 128.922 148.695 128.453C148.164 127.979 147.898 127.38 147.898 126.656C147.898 125.776 148.232 125.094 148.898 124.609C149.57 124.12 150.513 123.875 151.727 123.875H153.133V123.211C153.133 122.706 152.982 122.305 152.68 122.008C152.378 121.706 151.932 121.555 151.344 121.555C150.828 121.555 150.396 121.685 150.047 121.945C149.698 122.206 149.523 122.521 149.523 122.891H148.07C148.07 122.469 148.219 122.062 148.516 121.672C148.818 121.276 149.224 120.964 149.734 120.734C150.25 120.505 150.815 120.391 151.43 120.391C152.404 120.391 153.167 120.635 153.719 121.125C154.271 121.609 154.557 122.279 154.578 123.133V127.023C154.578 127.799 154.677 128.417 154.875 128.875V129H153.359ZM150.961 127.898C151.414 127.898 151.844 127.781 152.25 127.547C152.656 127.312 152.951 127.008 153.133 126.633V124.898H152C150.229 124.898 149.344 125.417 149.344 126.453C149.344 126.906 149.495 127.26 149.797 127.516C150.099 127.771 150.487 127.898 150.961 127.898ZM156.5 124.703C156.5 123.385 156.805 122.339 157.414 121.562C158.023 120.781 158.831 120.391 159.836 120.391C160.867 120.391 161.672 120.755 162.25 121.484L162.32 120.547H163.641V128.797C163.641 129.891 163.315 130.753 162.664 131.383C162.018 132.013 161.148 132.328 160.055 132.328C159.445 132.328 158.849 132.198 158.266 131.938C157.682 131.677 157.237 131.32 156.93 130.867L157.68 130C158.299 130.766 159.057 131.148 159.953 131.148C160.656 131.148 161.203 130.951 161.594 130.555C161.99 130.159 162.188 129.602 162.188 128.883V128.156C161.609 128.823 160.82 129.156 159.82 129.156C158.831 129.156 158.029 128.758 157.414 127.961C156.805 127.164 156.5 126.078 156.5 124.703ZM157.953 124.867C157.953 125.82 158.148 126.57 158.539 127.117C158.93 127.659 159.477 127.93 160.18 127.93C161.091 127.93 161.76 127.516 162.188 126.688V122.828C161.745 122.021 161.081 121.617 160.195 121.617C159.492 121.617 158.943 121.891 158.547 122.438C158.151 122.984 157.953 123.794 157.953 124.867ZM167.195 120.547L167.242 121.609C167.888 120.797 168.732 120.391 169.773 120.391C171.56 120.391 172.461 121.398 172.477 123.414V129H171.031V123.406C171.026 122.797 170.885 122.346 170.609 122.055C170.339 121.763 169.914 121.617 169.336 121.617C168.867 121.617 168.456 121.742 168.102 121.992C167.747 122.242 167.471 122.57 167.273 122.977V129H165.828V120.547H167.195ZM179.875 129C179.792 128.833 179.724 128.536 179.672 128.109C179 128.807 178.198 129.156 177.266 129.156C176.432 129.156 175.747 128.922 175.211 128.453C174.68 127.979 174.414 127.38 174.414 126.656C174.414 125.776 174.747 125.094 175.414 124.609C176.086 124.12 177.029 123.875 178.242 123.875H179.648V123.211C179.648 122.706 179.497 122.305 179.195 122.008C178.893 121.706 178.448 121.555 177.859 121.555C177.344 121.555 176.911 121.685 176.562 121.945C176.214 122.206 176.039 122.521 176.039 122.891H174.586C174.586 122.469 174.734 122.062 175.031 121.672C175.333 121.276 175.74 120.964 176.25 120.734C176.766 120.505 177.331 120.391 177.945 120.391C178.919 120.391 179.682 120.635 180.234 121.125C180.786 121.609 181.073 122.279 181.094 123.133V127.023C181.094 127.799 181.193 128.417 181.391 128.875V129H179.875ZM177.477 127.898C177.93 127.898 178.359 127.781 178.766 127.547C179.172 127.312 179.466 127.008 179.648 126.633V124.898H178.516C176.745 124.898 175.859 125.417 175.859 126.453C175.859 126.906 176.01 127.26 176.312 127.516C176.615 127.771 177.003 127.898 177.477 127.898ZM192.547 129C192.464 128.833 192.396 128.536 192.344 128.109C191.672 128.807 190.87 129.156 189.938 129.156C189.104 129.156 188.419 128.922 187.883 128.453C187.352 127.979 187.086 127.38 187.086 126.656C187.086 125.776 187.419 125.094 188.086 124.609C188.758 124.12 189.701 123.875 190.914 123.875H192.32V123.211C192.32 122.706 192.169 122.305 191.867 122.008C191.565 121.706 191.12 121.555 190.531 121.555C190.016 121.555 189.583 121.685 189.234 121.945C188.885 122.206 188.711 122.521 188.711 122.891H187.258C187.258 122.469 187.406 122.062 187.703 121.672C188.005 121.276 188.411 120.964 188.922 120.734C189.438 120.505 190.003 120.391 190.617 120.391C191.591 120.391 192.354 120.635 192.906 121.125C193.458 121.609 193.745 122.279 193.766 123.133V127.023C193.766 127.799 193.865 128.417 194.062 128.875V129H192.547ZM190.148 127.898C190.602 127.898 191.031 127.781 191.438 127.547C191.844 127.312 192.138 127.008 192.32 126.633V124.898H191.188C189.417 124.898 188.531 125.417 188.531 126.453C188.531 126.906 188.682 127.26 188.984 127.516C189.286 127.771 189.674 127.898 190.148 127.898ZM197.602 129H196.156V117H197.602V129ZM201.492 129H200.047V120.547H201.492V129ZM199.93 118.305C199.93 118.07 200 117.872 200.141 117.711C200.286 117.549 200.5 117.469 200.781 117.469C201.062 117.469 201.276 117.549 201.422 117.711C201.568 117.872 201.641 118.07 201.641 118.305C201.641 118.539 201.568 118.734 201.422 118.891C201.276 119.047 201.062 119.125 200.781 119.125C200.5 119.125 200.286 119.047 200.141 118.891C200 118.734 199.93 118.539 199.93 118.305ZM203.461 124.703C203.461 123.375 203.766 122.326 204.375 121.555C204.984 120.779 205.802 120.391 206.828 120.391C207.828 120.391 208.617 120.727 209.195 121.398L209.258 120.547H210.586V132.25H209.141V128.219C208.557 128.844 207.781 129.156 206.812 129.156C205.792 129.156 204.977 128.76 204.367 127.969C203.763 127.172 203.461 126.117 203.461 124.805V124.703ZM204.906 124.867C204.906 125.836 205.109 126.596 205.516 127.148C205.927 127.701 206.479 127.977 207.172 127.977C208.031 127.977 208.688 127.596 209.141 126.836V122.695C208.682 121.951 208.031 121.578 207.188 121.578C206.49 121.578 205.935 121.857 205.523 122.414C205.112 122.966 204.906 123.784 204.906 124.867ZM218.125 128.164C217.562 128.826 216.737 129.156 215.648 129.156C214.747 129.156 214.06 128.896 213.586 128.375C213.117 127.849 212.88 127.073 212.875 126.047V120.547H214.32V126.008C214.32 127.289 214.841 127.93 215.883 127.93C216.987 127.93 217.721 127.518 218.086 126.695V120.547H219.531V129H218.156L218.125 128.164ZM226.953 129C226.87 128.833 226.802 128.536 226.75 128.109C226.078 128.807 225.276 129.156 224.344 129.156C223.51 129.156 222.826 128.922 222.289 128.453C221.758 127.979 221.492 127.38 221.492 126.656C221.492 125.776 221.826 125.094 222.492 124.609C223.164 124.12 224.107 123.875 225.32 123.875H226.727V123.211C226.727 122.706 226.576 122.305 226.273 122.008C225.971 121.706 225.526 121.555 224.938 121.555C224.422 121.555 223.99 121.685 223.641 121.945C223.292 122.206 223.117 122.521 223.117 122.891H221.664C221.664 122.469 221.812 122.062 222.109 121.672C222.411 121.276 222.818 120.964 223.328 120.734C223.844 120.505 224.409 120.391 225.023 120.391C225.997 120.391 226.76 120.635 227.312 121.125C227.865 121.609 228.151 122.279 228.172 123.133V127.023C228.172 127.799 228.271 128.417 228.469 128.875V129H226.953ZM224.555 127.898C225.008 127.898 225.438 127.781 225.844 127.547C226.25 127.312 226.544 127.008 226.727 126.633V124.898H225.594C223.823 124.898 222.938 125.417 222.938 126.453C222.938 126.906 223.089 127.26 223.391 127.516C223.693 127.771 224.081 127.898 224.555 127.898ZM230.469 128.242C230.469 127.992 230.542 127.784 230.688 127.617C230.839 127.451 231.062 127.367 231.359 127.367C231.656 127.367 231.88 127.451 232.031 127.617C232.188 127.784 232.266 127.992 232.266 128.242C232.266 128.482 232.188 128.682 232.031 128.844C231.88 129.005 231.656 129.086 231.359 129.086C231.062 129.086 230.839 129.005 230.688 128.844C230.542 128.682 230.469 128.482 230.469 128.242Z" fill="black"/>
</svg>
