<svg width="300" height="169" viewBox="0 0 300 169" fill="none" xmlns="http://www.w3.org/2000/svg">
<rect width="300" height="168.539" rx="6" fill="#F5F5F5" fill-opacity="0.5"/>
<rect x="0.5" y="0.5" width="299" height="167.539" rx="5.5" stroke="#BDC3C7" stroke-opacity="0.5"/>
<path d="M22.8281 40.7734H28.2188V42H21.3203V30.625H22.8281V40.7734ZM29.3203 37.6953C29.3203 36.8672 29.4818 36.1224 29.8047 35.4609C30.1328 34.7995 30.5859 34.2891 31.1641 33.9297C31.7474 33.5703 32.4115 33.3906 33.1562 33.3906C34.3073 33.3906 35.237 33.7891 35.9453 34.5859C36.6589 35.3828 37.0156 36.4427 37.0156 37.7656V37.8672C37.0156 38.6901 36.8568 39.4297 36.5391 40.0859C36.2266 40.737 35.776 41.2448 35.1875 41.6094C34.6042 41.974 33.9323 42.1562 33.1719 42.1562C32.026 42.1562 31.0964 41.7578 30.3828 40.9609C29.6745 40.1641 29.3203 39.1094 29.3203 37.7969V37.6953ZM30.7734 37.8672C30.7734 38.8047 30.9896 39.5573 31.4219 40.125C31.8594 40.6927 32.4427 40.9766 33.1719 40.9766C33.9062 40.9766 34.4896 40.6901 34.9219 40.1172C35.3542 39.5391 35.5703 38.7318 35.5703 37.6953C35.5703 36.7682 35.349 36.0182 34.9062 35.4453C34.4688 34.8672 33.8854 34.5781 33.1562 34.5781C32.4427 34.5781 31.8672 34.862 31.4297 35.4297C30.9922 35.9974 30.7734 36.8099 30.7734 37.8672ZM42.9141 34.8438C42.6953 34.8073 42.4583 34.7891 42.2031 34.7891C41.2552 34.7891 40.612 35.1927 40.2734 36V42H38.8281V33.5469H40.2344L40.2578 34.5234C40.7318 33.7682 41.4036 33.3906 42.2734 33.3906C42.5547 33.3906 42.7682 33.4271 42.9141 33.5V34.8438ZM47.6016 42.1562C46.4557 42.1562 45.5234 41.7812 44.8047 41.0312C44.0859 40.276 43.7266 39.2682 43.7266 38.0078V37.7422C43.7266 36.9036 43.8854 36.1562 44.2031 35.5C44.526 34.8385 44.974 34.3229 45.5469 33.9531C46.125 33.5781 46.75 33.3906 47.4219 33.3906C48.5208 33.3906 49.375 33.7526 49.9844 34.4766C50.5938 35.2005 50.8984 36.237 50.8984 37.5859V38.1875H45.1719C45.1927 39.0208 45.4349 39.6953 45.8984 40.2109C46.3672 40.7214 46.9609 40.9766 47.6797 40.9766C48.1901 40.9766 48.6224 40.8724 48.9766 40.6641C49.3307 40.4557 49.6406 40.1797 49.9062 39.8359L50.7891 40.5234C50.0807 41.612 49.0182 42.1562 47.6016 42.1562ZM47.4219 34.5781C46.8385 34.5781 46.349 34.7917 45.9531 35.2188C45.5573 35.6406 45.3125 36.2344 45.2188 37H49.4531V36.8906C49.4115 36.1562 49.2135 35.5885 48.8594 35.1875C48.5052 34.7812 48.026 34.5781 47.4219 34.5781ZM53.9375 33.5469L53.9766 34.4844C54.5964 33.7552 55.4323 33.3906 56.4844 33.3906C57.6667 33.3906 58.4714 33.8438 58.8984 34.75C59.1797 34.3438 59.5443 34.0156 59.9922 33.7656C60.4453 33.5156 60.9792 33.3906 61.5938 33.3906C63.4479 33.3906 64.3906 34.3724 64.4219 36.3359V42H62.9766V36.4219C62.9766 35.8177 62.8385 35.3672 62.5625 35.0703C62.2865 34.7682 61.8229 34.6172 61.1719 34.6172C60.6354 34.6172 60.1901 34.7786 59.8359 35.1016C59.4818 35.4193 59.276 35.849 59.2188 36.3906V42H57.7656V36.4609C57.7656 35.2318 57.1641 34.6172 55.9609 34.6172C55.013 34.6172 54.3646 35.0208 54.0156 35.8281V42H52.5703V33.5469H53.9375ZM72.1484 42H70.7031V33.5469H72.1484V42ZM70.5859 31.3047C70.5859 31.0703 70.6562 30.8724 70.7969 30.7109C70.9427 30.5495 71.1562 30.4688 71.4375 30.4688C71.7188 30.4688 71.9323 30.5495 72.0781 30.7109C72.224 30.8724 72.2969 31.0703 72.2969 31.3047C72.2969 31.5391 72.224 31.7344 72.0781 31.8906C71.9323 32.0469 71.7188 32.125 71.4375 32.125C71.1562 32.125 70.9427 32.0469 70.7969 31.8906C70.6562 31.7344 70.5859 31.5391 70.5859 31.3047ZM81.6094 37.8672C81.6094 39.1536 81.3151 40.1901 80.7266 40.9766C80.138 41.763 79.3411 42.1562 78.3359 42.1562C77.3099 42.1562 76.5026 41.8307 75.9141 41.1797V45.25H74.4688V33.5469H75.7891L75.8594 34.4844C76.4479 33.7552 77.2656 33.3906 78.3125 33.3906C79.3281 33.3906 80.1302 33.7734 80.7188 34.5391C81.3125 35.3047 81.6094 36.3698 81.6094 37.7344V37.8672ZM80.1641 37.7031C80.1641 36.75 79.9609 35.9974 79.5547 35.4453C79.1484 34.8932 78.5911 34.6172 77.8828 34.6172C77.0078 34.6172 76.3516 35.0052 75.9141 35.7812V39.8203C76.3464 40.5911 77.0078 40.9766 77.8984 40.9766C78.5911 40.9766 79.1406 40.7031 79.5469 40.1562C79.9583 39.6042 80.1641 38.7865 80.1641 37.7031ZM88.375 39.7578C88.375 39.3672 88.2266 39.0651 87.9297 38.8516C87.638 38.6328 87.125 38.4453 86.3906 38.2891C85.6615 38.1328 85.0807 37.9453 84.6484 37.7266C84.2214 37.5078 83.9036 37.2474 83.6953 36.9453C83.4922 36.6432 83.3906 36.2839 83.3906 35.8672C83.3906 35.1745 83.6823 34.5885 84.2656 34.1094C84.8542 33.6302 85.6042 33.3906 86.5156 33.3906C87.474 33.3906 88.25 33.638 88.8438 34.1328C89.4427 34.6276 89.7422 35.2604 89.7422 36.0312H88.2891C88.2891 35.6354 88.1198 35.2943 87.7812 35.0078C87.4479 34.7214 87.026 34.5781 86.5156 34.5781C85.9896 34.5781 85.5781 34.6927 85.2812 34.9219C84.9844 35.151 84.8359 35.4505 84.8359 35.8203C84.8359 36.1693 84.974 36.4323 85.25 36.6094C85.526 36.7865 86.0234 36.9557 86.7422 37.1172C87.4661 37.2786 88.0521 37.4714 88.5 37.6953C88.9479 37.9193 89.2786 38.1901 89.4922 38.5078C89.7109 38.8203 89.8203 39.2031 89.8203 39.6562C89.8203 40.4115 89.5182 41.0182 88.9141 41.4766C88.3099 41.9297 87.526 42.1562 86.5625 42.1562C85.8854 42.1562 85.2865 42.0365 84.7656 41.7969C84.2448 41.5573 83.8359 41.224 83.5391 40.7969C83.2474 40.3646 83.1016 39.8984 83.1016 39.3984H84.5469C84.5729 39.8828 84.7656 40.2682 85.125 40.5547C85.4896 40.8359 85.9688 40.9766 86.5625 40.9766C87.1094 40.9766 87.5469 40.8672 87.875 40.6484C88.2083 40.4245 88.375 40.1276 88.375 39.7578ZM96.9219 41.1641C96.3594 41.8255 95.5339 42.1562 94.4453 42.1562C93.5443 42.1562 92.8568 41.8958 92.3828 41.375C91.9141 40.849 91.6771 40.0729 91.6719 39.0469V33.5469H93.1172V39.0078C93.1172 40.2891 93.638 40.9297 94.6797 40.9297C95.7839 40.9297 96.5182 40.5182 96.8828 39.6953V33.5469H98.3281V42H96.9531L96.9219 41.1641ZM101.891 33.5469L101.93 34.4844C102.549 33.7552 103.385 33.3906 104.438 33.3906C105.62 33.3906 106.424 33.8438 106.852 34.75C107.133 34.3438 107.497 34.0156 107.945 33.7656C108.398 33.5156 108.932 33.3906 109.547 33.3906C111.401 33.3906 112.344 34.3724 112.375 36.3359V42H110.93V36.4219C110.93 35.8177 110.792 35.3672 110.516 35.0703C110.24 34.7682 109.776 34.6172 109.125 34.6172C108.589 34.6172 108.143 34.7786 107.789 35.1016C107.435 35.4193 107.229 35.849 107.172 36.3906V42H105.719V36.4609C105.719 35.2318 105.117 34.6172 103.914 34.6172C102.966 34.6172 102.318 35.0208 101.969 35.8281V42H100.523V33.5469H101.891ZM118.18 37.7031C118.18 36.4062 118.487 35.3646 119.102 34.5781C119.716 33.7865 120.521 33.3906 121.516 33.3906C122.505 33.3906 123.289 33.7292 123.867 34.4062V30H125.312V42H123.984L123.914 41.0938C123.336 41.8021 122.531 42.1562 121.5 42.1562C120.521 42.1562 119.721 41.7552 119.102 40.9531C118.487 40.151 118.18 39.1042 118.18 37.8125V37.7031ZM119.625 37.8672C119.625 38.8255 119.823 39.5755 120.219 40.1172C120.615 40.6589 121.161 40.9297 121.859 40.9297C122.776 40.9297 123.445 40.5182 123.867 39.6953V35.8125C123.435 35.0156 122.771 34.6172 121.875 34.6172C121.167 34.6172 120.615 34.8906 120.219 35.4375C119.823 35.9844 119.625 36.7943 119.625 37.8672ZM127.18 37.6953C127.18 36.8672 127.341 36.1224 127.664 35.4609C127.992 34.7995 128.445 34.2891 129.023 33.9297C129.607 33.5703 130.271 33.3906 131.016 33.3906C132.167 33.3906 133.096 33.7891 133.805 34.5859C134.518 35.3828 134.875 36.4427 134.875 37.7656V37.8672C134.875 38.6901 134.716 39.4297 134.398 40.0859C134.086 40.737 133.635 41.2448 133.047 41.6094C132.464 41.974 131.792 42.1562 131.031 42.1562C129.885 42.1562 128.956 41.7578 128.242 40.9609C127.534 40.1641 127.18 39.1094 127.18 37.7969V37.6953ZM128.633 37.8672C128.633 38.8047 128.849 39.5573 129.281 40.125C129.719 40.6927 130.302 40.9766 131.031 40.9766C131.766 40.9766 132.349 40.6901 132.781 40.1172C133.214 39.5391 133.43 38.7318 133.43 37.6953C133.43 36.7682 133.208 36.0182 132.766 35.4453C132.328 34.8672 131.745 34.5781 131.016 34.5781C130.302 34.5781 129.727 34.862 129.289 35.4297C128.852 35.9974 128.633 36.8099 128.633 37.8672ZM138.258 42H136.812V30H138.258V42ZM140.195 37.6953C140.195 36.8672 140.357 36.1224 140.68 35.4609C141.008 34.7995 141.461 34.2891 142.039 33.9297C142.622 33.5703 143.286 33.3906 144.031 33.3906C145.182 33.3906 146.112 33.7891 146.82 34.5859C147.534 35.3828 147.891 36.4427 147.891 37.7656V37.8672C147.891 38.6901 147.732 39.4297 147.414 40.0859C147.102 40.737 146.651 41.2448 146.062 41.6094C145.479 41.974 144.807 42.1562 144.047 42.1562C142.901 42.1562 141.971 41.7578 141.258 40.9609C140.549 40.1641 140.195 39.1094 140.195 37.7969V37.6953ZM141.648 37.8672C141.648 38.8047 141.865 39.5573 142.297 40.125C142.734 40.6927 143.318 40.9766 144.047 40.9766C144.781 40.9766 145.365 40.6901 145.797 40.1172C146.229 39.5391 146.445 38.7318 146.445 37.6953C146.445 36.7682 146.224 36.0182 145.781 35.4453C145.344 34.8672 144.76 34.5781 144.031 34.5781C143.318 34.5781 142.742 34.862 142.305 35.4297C141.867 35.9974 141.648 36.8099 141.648 37.8672ZM153.789 34.8438C153.57 34.8073 153.333 34.7891 153.078 34.7891C152.13 34.7891 151.487 35.1927 151.148 36V42H149.703V33.5469H151.109L151.133 34.5234C151.607 33.7682 152.279 33.3906 153.148 33.3906C153.43 33.3906 153.643 33.4271 153.789 33.5V34.8438ZM164.016 39.7578C164.016 39.3672 163.867 39.0651 163.57 38.8516C163.279 38.6328 162.766 38.4453 162.031 38.2891C161.302 38.1328 160.721 37.9453 160.289 37.7266C159.862 37.5078 159.544 37.2474 159.336 36.9453C159.133 36.6432 159.031 36.2839 159.031 35.8672C159.031 35.1745 159.323 34.5885 159.906 34.1094C160.495 33.6302 161.245 33.3906 162.156 33.3906C163.115 33.3906 163.891 33.638 164.484 34.1328C165.083 34.6276 165.383 35.2604 165.383 36.0312H163.93C163.93 35.6354 163.76 35.2943 163.422 35.0078C163.089 34.7214 162.667 34.5781 162.156 34.5781C161.63 34.5781 161.219 34.6927 160.922 34.9219C160.625 35.151 160.477 35.4505 160.477 35.8203C160.477 36.1693 160.615 36.4323 160.891 36.6094C161.167 36.7865 161.664 36.9557 162.383 37.1172C163.107 37.2786 163.693 37.4714 164.141 37.6953C164.589 37.9193 164.919 38.1901 165.133 38.5078C165.352 38.8203 165.461 39.2031 165.461 39.6562C165.461 40.4115 165.159 41.0182 164.555 41.4766C163.951 41.9297 163.167 42.1562 162.203 42.1562C161.526 42.1562 160.927 42.0365 160.406 41.7969C159.885 41.5573 159.477 41.224 159.18 40.7969C158.888 40.3646 158.742 39.8984 158.742 39.3984H160.188C160.214 39.8828 160.406 40.2682 160.766 40.5547C161.13 40.8359 161.609 40.9766 162.203 40.9766C162.75 40.9766 163.188 40.8672 163.516 40.6484C163.849 40.4245 164.016 40.1276 164.016 39.7578ZM168.914 42H167.469V33.5469H168.914V42ZM167.352 31.3047C167.352 31.0703 167.422 30.8724 167.562 30.7109C167.708 30.5495 167.922 30.4688 168.203 30.4688C168.484 30.4688 168.698 30.5495 168.844 30.7109C168.99 30.8724 169.062 31.0703 169.062 31.3047C169.062 31.5391 168.99 31.7344 168.844 31.8906C168.698 32.0469 168.484 32.125 168.203 32.125C167.922 32.125 167.708 32.0469 167.562 31.8906C167.422 31.7344 167.352 31.5391 167.352 31.3047ZM173.195 31.5V33.5469H174.773V34.6641H173.195V39.9062C173.195 40.2448 173.266 40.5 173.406 40.6719C173.547 40.8385 173.786 40.9219 174.125 40.9219C174.292 40.9219 174.521 40.8906 174.812 40.8281V42C174.432 42.1042 174.062 42.1562 173.703 42.1562C173.057 42.1562 172.57 41.9609 172.242 41.5703C171.914 41.1797 171.75 40.625 171.75 39.9062V34.6641H170.211V33.5469H171.75V31.5H173.195ZM185.656 42C185.573 41.8333 185.505 41.5365 185.453 41.1094C184.781 41.8073 183.979 42.1562 183.047 42.1562C182.214 42.1562 181.529 41.9219 180.992 41.4531C180.461 40.9792 180.195 40.3802 180.195 39.6562C180.195 38.776 180.529 38.0938 181.195 37.6094C181.867 37.1198 182.81 36.875 184.023 36.875H185.43V36.2109C185.43 35.7057 185.279 35.3047 184.977 35.0078C184.674 34.7057 184.229 34.5547 183.641 34.5547C183.125 34.5547 182.693 34.6849 182.344 34.9453C181.995 35.2057 181.82 35.5208 181.82 35.8906H180.367C180.367 35.4688 180.516 35.0625 180.812 34.6719C181.115 34.276 181.521 33.9635 182.031 33.7344C182.547 33.5052 183.112 33.3906 183.727 33.3906C184.701 33.3906 185.464 33.6354 186.016 34.125C186.568 34.6094 186.854 35.2786 186.875 36.1328V40.0234C186.875 40.7995 186.974 41.4167 187.172 41.875V42H185.656ZM183.258 40.8984C183.711 40.8984 184.141 40.7812 184.547 40.5469C184.953 40.3125 185.247 40.0078 185.43 39.6328V37.8984H184.297C182.526 37.8984 181.641 38.4167 181.641 39.4531C181.641 39.9062 181.792 40.2604 182.094 40.5156C182.396 40.7708 182.784 40.8984 183.258 40.8984ZM190.5 33.5469L190.539 34.4844C191.159 33.7552 191.995 33.3906 193.047 33.3906C194.229 33.3906 195.034 33.8438 195.461 34.75C195.742 34.3438 196.107 34.0156 196.555 33.7656C197.008 33.5156 197.542 33.3906 198.156 33.3906C200.01 33.3906 200.953 34.3724 200.984 36.3359V42H199.539V36.4219C199.539 35.8177 199.401 35.3672 199.125 35.0703C198.849 34.7682 198.385 34.6172 197.734 34.6172C197.198 34.6172 196.753 34.7786 196.398 35.1016C196.044 35.4193 195.839 35.849 195.781 36.3906V42H194.328V36.4609C194.328 35.2318 193.727 34.6172 192.523 34.6172C191.576 34.6172 190.927 35.0208 190.578 35.8281V42H189.133V33.5469H190.5ZM206.68 42.1562C205.534 42.1562 204.602 41.7812 203.883 41.0312C203.164 40.276 202.805 39.2682 202.805 38.0078V37.7422C202.805 36.9036 202.964 36.1562 203.281 35.5C203.604 34.8385 204.052 34.3229 204.625 33.9531C205.203 33.5781 205.828 33.3906 206.5 33.3906C207.599 33.3906 208.453 33.7526 209.062 34.4766C209.672 35.2005 209.977 36.237 209.977 37.5859V38.1875H204.25C204.271 39.0208 204.513 39.6953 204.977 40.2109C205.445 40.7214 206.039 40.9766 206.758 40.9766C207.268 40.9766 207.701 40.8724 208.055 40.6641C208.409 40.4557 208.719 40.1797 208.984 39.8359L209.867 40.5234C209.159 41.612 208.096 42.1562 206.68 42.1562ZM206.5 34.5781C205.917 34.5781 205.427 34.7917 205.031 35.2188C204.635 35.6406 204.391 36.2344 204.297 37H208.531V36.8906C208.49 36.1562 208.292 35.5885 207.938 35.1875C207.583 34.7812 207.104 34.5781 206.5 34.5781ZM213.617 31.5V33.5469H215.195V34.6641H213.617V39.9062C213.617 40.2448 213.688 40.5 213.828 40.6719C213.969 40.8385 214.208 40.9219 214.547 40.9219C214.714 40.9219 214.943 40.8906 215.234 40.8281V42C214.854 42.1042 214.484 42.1562 214.125 42.1562C213.479 42.1562 212.992 41.9609 212.664 41.5703C212.336 41.1797 212.172 40.625 212.172 39.9062V34.6641H210.633V33.5469H212.172V31.5H213.617ZM216.844 44.2656L216.023 43.7031C216.513 43.0208 216.768 42.3177 216.789 41.5938V40.2891H218.203V41.4219C218.203 41.9479 218.073 42.474 217.812 43C217.557 43.526 217.234 43.9479 216.844 44.2656ZM24.4844 59.9766C25 59.9766 25.4505 59.8203 25.8359 59.5078C26.2214 59.1953 26.4349 58.8047 26.4766 58.3359H27.8438C27.8177 58.8203 27.651 59.2812 27.3438 59.7188C27.0365 60.1562 26.625 60.5052 26.1094 60.7656C25.599 61.026 25.0573 61.1562 24.4844 61.1562C23.3333 61.1562 22.4167 60.7734 21.7344 60.0078C21.0573 59.237 20.7188 58.1849 20.7188 56.8516V56.6094C20.7188 55.7865 20.8698 55.0547 21.1719 54.4141C21.474 53.7734 21.9062 53.276 22.4688 52.9219C23.0365 52.5677 23.7057 52.3906 24.4766 52.3906C25.4245 52.3906 26.2109 52.6745 26.8359 53.2422C27.4661 53.8099 27.8021 54.5469 27.8438 55.4531H26.4766C26.4349 54.9062 26.2266 54.4583 25.8516 54.1094C25.4818 53.7552 25.0234 53.5781 24.4766 53.5781C23.7422 53.5781 23.1719 53.8438 22.7656 54.375C22.3646 54.901 22.1641 55.6641 22.1641 56.6641V56.9375C22.1641 57.9115 22.3646 58.6615 22.7656 59.1875C23.1667 59.7135 23.7396 59.9766 24.4844 59.9766ZM29.0859 56.6953C29.0859 55.8672 29.2474 55.1224 29.5703 54.4609C29.8984 53.7995 30.3516 53.2891 30.9297 52.9297C31.513 52.5703 32.1771 52.3906 32.9219 52.3906C34.0729 52.3906 35.0026 52.7891 35.7109 53.5859C36.4245 54.3828 36.7812 55.4427 36.7812 56.7656V56.8672C36.7812 57.6901 36.6224 58.4297 36.3047 59.0859C35.9922 59.737 35.5417 60.2448 34.9531 60.6094C34.3698 60.974 33.6979 61.1562 32.9375 61.1562C31.7917 61.1562 30.862 60.7578 30.1484 59.9609C29.4401 59.1641 29.0859 58.1094 29.0859 56.7969V56.6953ZM30.5391 56.8672C30.5391 57.8047 30.7552 58.5573 31.1875 59.125C31.625 59.6927 32.2083 59.9766 32.9375 59.9766C33.6719 59.9766 34.2552 59.6901 34.6875 59.1172C35.1198 58.5391 35.3359 57.7318 35.3359 56.6953C35.3359 55.7682 35.1146 55.0182 34.6719 54.4453C34.2344 53.8672 33.651 53.5781 32.9219 53.5781C32.2083 53.5781 31.6328 53.862 31.1953 54.4297C30.7578 54.9974 30.5391 55.8099 30.5391 56.8672ZM39.9609 52.5469L40.0078 53.6094C40.6536 52.7969 41.4974 52.3906 42.5391 52.3906C44.3255 52.3906 45.2266 53.3984 45.2422 55.4141V61H43.7969V55.4062C43.7917 54.7969 43.651 54.3464 43.375 54.0547C43.1042 53.763 42.6797 53.6172 42.1016 53.6172C41.6328 53.6172 41.2214 53.7422 40.8672 53.9922C40.513 54.2422 40.237 54.5703 40.0391 54.9766V61H38.5938V52.5469H39.9609ZM52.3438 58.7578C52.3438 58.3672 52.1953 58.0651 51.8984 57.8516C51.6068 57.6328 51.0938 57.4453 50.3594 57.2891C49.6302 57.1328 49.0495 56.9453 48.6172 56.7266C48.1901 56.5078 47.8724 56.2474 47.6641 55.9453C47.4609 55.6432 47.3594 55.2839 47.3594 54.8672C47.3594 54.1745 47.651 53.5885 48.2344 53.1094C48.8229 52.6302 49.5729 52.3906 50.4844 52.3906C51.4427 52.3906 52.2188 52.638 52.8125 53.1328C53.4115 53.6276 53.7109 54.2604 53.7109 55.0312H52.2578C52.2578 54.6354 52.0885 54.2943 51.75 54.0078C51.4167 53.7214 50.9948 53.5781 50.4844 53.5781C49.9583 53.5781 49.5469 53.6927 49.25 53.9219C48.9531 54.151 48.8047 54.4505 48.8047 54.8203C48.8047 55.1693 48.9427 55.4323 49.2188 55.6094C49.4948 55.7865 49.9922 55.9557 50.7109 56.1172C51.4349 56.2786 52.0208 56.4714 52.4688 56.6953C52.9167 56.9193 53.2474 57.1901 53.4609 57.5078C53.6797 57.8203 53.7891 58.2031 53.7891 58.6562C53.7891 59.4115 53.487 60.0182 52.8828 60.4766C52.2786 60.9297 51.4948 61.1562 50.5312 61.1562C49.8542 61.1562 49.2552 61.0365 48.7344 60.7969C48.2135 60.5573 47.8047 60.224 47.5078 59.7969C47.2161 59.3646 47.0703 58.8984 47.0703 58.3984H48.5156C48.5417 58.8828 48.7344 59.2682 49.0938 59.5547C49.4583 59.8359 49.9375 59.9766 50.5312 59.9766C51.0781 59.9766 51.5156 59.8672 51.8438 59.6484C52.1771 59.4245 52.3438 59.1276 52.3438 58.7578ZM59.1797 61.1562C58.0339 61.1562 57.1016 60.7812 56.3828 60.0312C55.6641 59.276 55.3047 58.2682 55.3047 57.0078V56.7422C55.3047 55.9036 55.4635 55.1562 55.7812 54.5C56.1042 53.8385 56.5521 53.3229 57.125 52.9531C57.7031 52.5781 58.3281 52.3906 59 52.3906C60.099 52.3906 60.9531 52.7526 61.5625 53.4766C62.1719 54.2005 62.4766 55.237 62.4766 56.5859V57.1875H56.75C56.7708 58.0208 57.013 58.6953 57.4766 59.2109C57.9453 59.7214 58.5391 59.9766 59.2578 59.9766C59.7682 59.9766 60.2005 59.8724 60.5547 59.6641C60.9089 59.4557 61.2188 59.1797 61.4844 58.8359L62.3672 59.5234C61.6589 60.612 60.5964 61.1562 59.1797 61.1562ZM59 53.5781C58.4167 53.5781 57.9271 53.7917 57.5312 54.2188C57.1354 54.6406 56.8906 55.2344 56.7969 56H61.0312V55.8906C60.9896 55.1562 60.7917 54.5885 60.4375 54.1875C60.0833 53.7812 59.6042 53.5781 59 53.5781ZM67.5469 59.9766C68.0625 59.9766 68.513 59.8203 68.8984 59.5078C69.2839 59.1953 69.4974 58.8047 69.5391 58.3359H70.9062C70.8802 58.8203 70.7135 59.2812 70.4062 59.7188C70.099 60.1562 69.6875 60.5052 69.1719 60.7656C68.6615 61.026 68.1198 61.1562 67.5469 61.1562C66.3958 61.1562 65.4792 60.7734 64.7969 60.0078C64.1198 59.237 63.7812 58.1849 63.7812 56.8516V56.6094C63.7812 55.7865 63.9323 55.0547 64.2344 54.4141C64.5365 53.7734 64.9688 53.276 65.5312 52.9219C66.099 52.5677 66.7682 52.3906 67.5391 52.3906C68.487 52.3906 69.2734 52.6745 69.8984 53.2422C70.5286 53.8099 70.8646 54.5469 70.9062 55.4531H69.5391C69.4974 54.9062 69.2891 54.4583 68.9141 54.1094C68.5443 53.7552 68.0859 53.5781 67.5391 53.5781C66.8047 53.5781 66.2344 53.8438 65.8281 54.375C65.4271 54.901 65.2266 55.6641 65.2266 56.6641V56.9375C65.2266 57.9115 65.4271 58.6615 65.8281 59.1875C66.2292 59.7135 66.8021 59.9766 67.5469 59.9766ZM74.4922 50.5V52.5469H76.0703V53.6641H74.4922V58.9062C74.4922 59.2448 74.5625 59.5 74.7031 59.6719C74.8438 59.8385 75.0833 59.9219 75.4219 59.9219C75.5885 59.9219 75.8177 59.8906 76.1094 59.8281V61C75.7292 61.1042 75.3594 61.1562 75 61.1562C74.3542 61.1562 73.8672 60.9609 73.5391 60.5703C73.2109 60.1797 73.0469 59.625 73.0469 58.9062V53.6641H71.5078V52.5469H73.0469V50.5H74.4922ZM81.2734 61.1562C80.1276 61.1562 79.1953 60.7812 78.4766 60.0312C77.7578 59.276 77.3984 58.2682 77.3984 57.0078V56.7422C77.3984 55.9036 77.5573 55.1562 77.875 54.5C78.1979 53.8385 78.6458 53.3229 79.2188 52.9531C79.7969 52.5781 80.4219 52.3906 81.0938 52.3906C82.1927 52.3906 83.0469 52.7526 83.6562 53.4766C84.2656 54.2005 84.5703 55.237 84.5703 56.5859V57.1875H78.8438C78.8646 58.0208 79.1068 58.6953 79.5703 59.2109C80.0391 59.7214 80.6328 59.9766 81.3516 59.9766C81.862 59.9766 82.2943 59.8724 82.6484 59.6641C83.0026 59.4557 83.3125 59.1797 83.5781 58.8359L84.4609 59.5234C83.7526 60.612 82.6901 61.1562 81.2734 61.1562ZM81.0938 53.5781C80.5104 53.5781 80.0208 53.7917 79.625 54.2188C79.2292 54.6406 78.9844 55.2344 78.8906 56H83.125V55.8906C83.0833 55.1562 82.8854 54.5885 82.5312 54.1875C82.1771 53.7812 81.6979 53.5781 81.0938 53.5781ZM88.2109 50.5V52.5469H89.7891V53.6641H88.2109V58.9062C88.2109 59.2448 88.2812 59.5 88.4219 59.6719C88.5625 59.8385 88.8021 59.9219 89.1406 59.9219C89.3073 59.9219 89.5365 59.8906 89.8281 59.8281V61C89.4479 61.1042 89.0781 61.1562 88.7188 61.1562C88.0729 61.1562 87.5859 60.9609 87.2578 60.5703C86.9297 60.1797 86.7656 59.625 86.7656 58.9062V53.6641H85.2266V52.5469H86.7656V50.5H88.2109ZM96.7031 60.1641C96.1406 60.8255 95.3151 61.1562 94.2266 61.1562C93.3255 61.1562 92.638 60.8958 92.1641 60.375C91.6953 59.849 91.4583 59.0729 91.4531 58.0469V52.5469H92.8984V58.0078C92.8984 59.2891 93.4193 59.9297 94.4609 59.9297C95.5651 59.9297 96.2995 59.5182 96.6641 58.6953V52.5469H98.1094V61H96.7344L96.7031 60.1641ZM104.398 53.8438C104.18 53.8073 103.943 53.7891 103.688 53.7891C102.74 53.7891 102.096 54.1927 101.758 55V61H100.312V52.5469H101.719L101.742 53.5234C102.216 52.7682 102.888 52.3906 103.758 52.3906C104.039 52.3906 104.253 52.4271 104.398 52.5V53.8438ZM114.922 61C114.839 60.8333 114.771 60.5365 114.719 60.1094C114.047 60.8073 113.245 61.1562 112.312 61.1562C111.479 61.1562 110.794 60.9219 110.258 60.4531C109.727 59.9792 109.461 59.3802 109.461 58.6562C109.461 57.776 109.794 57.0938 110.461 56.6094C111.133 56.1198 112.076 55.875 113.289 55.875H114.695V55.2109C114.695 54.7057 114.544 54.3047 114.242 54.0078C113.94 53.7057 113.495 53.5547 112.906 53.5547C112.391 53.5547 111.958 53.6849 111.609 53.9453C111.26 54.2057 111.086 54.5208 111.086 54.8906H109.633C109.633 54.4688 109.781 54.0625 110.078 53.6719C110.38 53.276 110.786 52.9635 111.297 52.7344C111.812 52.5052 112.378 52.3906 112.992 52.3906C113.966 52.3906 114.729 52.6354 115.281 53.125C115.833 53.6094 116.12 54.2786 116.141 55.1328V59.0234C116.141 59.7995 116.24 60.4167 116.438 60.875V61H114.922ZM112.523 59.8984C112.977 59.8984 113.406 59.7812 113.812 59.5469C114.219 59.3125 114.513 59.0078 114.695 58.6328V56.8984H113.562C111.792 56.8984 110.906 57.4167 110.906 58.4531C110.906 58.9062 111.057 59.2604 111.359 59.5156C111.661 59.7708 112.049 59.8984 112.523 59.8984ZM118.055 56.7031C118.055 55.4062 118.362 54.3646 118.977 53.5781C119.591 52.7865 120.396 52.3906 121.391 52.3906C122.38 52.3906 123.164 52.7292 123.742 53.4062V49H125.188V61H123.859L123.789 60.0938C123.211 60.8021 122.406 61.1562 121.375 61.1562C120.396 61.1562 119.596 60.7552 118.977 59.9531C118.362 59.151 118.055 58.1042 118.055 56.8125V56.7031ZM119.5 56.8672C119.5 57.8255 119.698 58.5755 120.094 59.1172C120.49 59.6589 121.036 59.9297 121.734 59.9297C122.651 59.9297 123.32 59.5182 123.742 58.6953V54.8125C123.31 54.0156 122.646 53.6172 121.75 53.6172C121.042 53.6172 120.49 53.8906 120.094 54.4375C119.698 54.9844 119.5 55.7943 119.5 56.8672ZM129.008 61H127.562V52.5469H129.008V61ZM127.445 50.3047C127.445 50.0703 127.516 49.8724 127.656 49.7109C127.802 49.5495 128.016 49.4688 128.297 49.4688C128.578 49.4688 128.792 49.5495 128.938 49.7109C129.083 49.8724 129.156 50.0703 129.156 50.3047C129.156 50.5391 129.083 50.7344 128.938 50.8906C128.792 51.0469 128.578 51.125 128.297 51.125C128.016 51.125 127.802 51.0469 127.656 50.8906C127.516 50.7344 127.445 50.5391 127.445 50.3047ZM138.469 56.8672C138.469 58.1536 138.174 59.1901 137.586 59.9766C136.997 60.763 136.201 61.1562 135.195 61.1562C134.169 61.1562 133.362 60.8307 132.773 60.1797V64.25H131.328V52.5469H132.648L132.719 53.4844C133.307 52.7552 134.125 52.3906 135.172 52.3906C136.188 52.3906 136.99 52.7734 137.578 53.5391C138.172 54.3047 138.469 55.3698 138.469 56.7344V56.8672ZM137.023 56.7031C137.023 55.75 136.82 54.9974 136.414 54.4453C136.008 53.8932 135.451 53.6172 134.742 53.6172C133.867 53.6172 133.211 54.0052 132.773 54.7812V58.8203C133.206 59.5911 133.867 59.9766 134.758 59.9766C135.451 59.9766 136 59.7031 136.406 59.1562C136.818 58.6042 137.023 57.7865 137.023 56.7031ZM141.883 61H140.438V52.5469H141.883V61ZM140.32 50.3047C140.32 50.0703 140.391 49.8724 140.531 49.7109C140.677 49.5495 140.891 49.4688 141.172 49.4688C141.453 49.4688 141.667 49.5495 141.812 49.7109C141.958 49.8724 142.031 50.0703 142.031 50.3047C142.031 50.5391 141.958 50.7344 141.812 50.8906C141.667 51.0469 141.453 51.125 141.172 51.125C140.891 51.125 140.677 51.0469 140.531 50.8906C140.391 50.7344 140.32 50.5391 140.32 50.3047ZM149.125 58.7578C149.125 58.3672 148.977 58.0651 148.68 57.8516C148.388 57.6328 147.875 57.4453 147.141 57.2891C146.411 57.1328 145.831 56.9453 145.398 56.7266C144.971 56.5078 144.654 56.2474 144.445 55.9453C144.242 55.6432 144.141 55.2839 144.141 54.8672C144.141 54.1745 144.432 53.5885 145.016 53.1094C145.604 52.6302 146.354 52.3906 147.266 52.3906C148.224 52.3906 149 52.638 149.594 53.1328C150.193 53.6276 150.492 54.2604 150.492 55.0312H149.039C149.039 54.6354 148.87 54.2943 148.531 54.0078C148.198 53.7214 147.776 53.5781 147.266 53.5781C146.74 53.5781 146.328 53.6927 146.031 53.9219C145.734 54.151 145.586 54.4505 145.586 54.8203C145.586 55.1693 145.724 55.4323 146 55.6094C146.276 55.7865 146.773 55.9557 147.492 56.1172C148.216 56.2786 148.802 56.4714 149.25 56.6953C149.698 56.9193 150.029 57.1901 150.242 57.5078C150.461 57.8203 150.57 58.2031 150.57 58.6562C150.57 59.4115 150.268 60.0182 149.664 60.4766C149.06 60.9297 148.276 61.1562 147.312 61.1562C146.635 61.1562 146.036 61.0365 145.516 60.7969C144.995 60.5573 144.586 60.224 144.289 59.7969C143.997 59.3646 143.852 58.8984 143.852 58.3984H145.297C145.323 58.8828 145.516 59.2682 145.875 59.5547C146.24 59.8359 146.719 59.9766 147.312 59.9766C147.859 59.9766 148.297 59.8672 148.625 59.6484C148.958 59.4245 149.125 59.1276 149.125 58.7578ZM155.844 59.9766C156.359 59.9766 156.81 59.8203 157.195 59.5078C157.581 59.1953 157.794 58.8047 157.836 58.3359H159.203C159.177 58.8203 159.01 59.2812 158.703 59.7188C158.396 60.1562 157.984 60.5052 157.469 60.7656C156.958 61.026 156.417 61.1562 155.844 61.1562C154.693 61.1562 153.776 60.7734 153.094 60.0078C152.417 59.237 152.078 58.1849 152.078 56.8516V56.6094C152.078 55.7865 152.229 55.0547 152.531 54.4141C152.833 53.7734 153.266 53.276 153.828 52.9219C154.396 52.5677 155.065 52.3906 155.836 52.3906C156.784 52.3906 157.57 52.6745 158.195 53.2422C158.826 53.8099 159.161 54.5469 159.203 55.4531H157.836C157.794 54.9062 157.586 54.4583 157.211 54.1094C156.841 53.7552 156.383 53.5781 155.836 53.5781C155.102 53.5781 154.531 53.8438 154.125 54.375C153.724 54.901 153.523 55.6641 153.523 56.6641V56.9375C153.523 57.9115 153.724 58.6615 154.125 59.1875C154.526 59.7135 155.099 59.9766 155.844 59.9766ZM162.398 61H160.953V52.5469H162.398V61ZM160.836 50.3047C160.836 50.0703 160.906 49.8724 161.047 49.7109C161.193 49.5495 161.406 49.4688 161.688 49.4688C161.969 49.4688 162.182 49.5495 162.328 49.7109C162.474 49.8724 162.547 50.0703 162.547 50.3047C162.547 50.5391 162.474 50.7344 162.328 50.8906C162.182 51.0469 161.969 51.125 161.688 51.125C161.406 51.125 161.193 51.0469 161.047 50.8906C160.906 50.7344 160.836 50.5391 160.836 50.3047ZM166.086 52.5469L166.133 53.6094C166.779 52.7969 167.622 52.3906 168.664 52.3906C170.451 52.3906 171.352 53.3984 171.367 55.4141V61H169.922V55.4062C169.917 54.7969 169.776 54.3464 169.5 54.0547C169.229 53.763 168.805 53.6172 168.227 53.6172C167.758 53.6172 167.346 53.7422 166.992 53.9922C166.638 54.2422 166.362 54.5703 166.164 54.9766V61H164.719V52.5469H166.086ZM173.203 56.7031C173.203 55.3854 173.508 54.3385 174.117 53.5625C174.727 52.7812 175.534 52.3906 176.539 52.3906C177.57 52.3906 178.375 52.7552 178.953 53.4844L179.023 52.5469H180.344V60.7969C180.344 61.8906 180.018 62.7526 179.367 63.3828C178.721 64.013 177.852 64.3281 176.758 64.3281C176.148 64.3281 175.552 64.1979 174.969 63.9375C174.385 63.6771 173.94 63.3203 173.633 62.8672L174.383 62C175.003 62.7656 175.76 63.1484 176.656 63.1484C177.359 63.1484 177.906 62.9505 178.297 62.5547C178.693 62.1589 178.891 61.6016 178.891 60.8828V60.1562C178.312 60.8229 177.523 61.1562 176.523 61.1562C175.534 61.1562 174.732 60.7578 174.117 59.9609C173.508 59.1641 173.203 58.0781 173.203 56.7031ZM174.656 56.8672C174.656 57.8203 174.852 58.5703 175.242 59.1172C175.633 59.6589 176.18 59.9297 176.883 59.9297C177.794 59.9297 178.464 59.5156 178.891 58.6875V54.8281C178.448 54.0208 177.784 53.6172 176.898 53.6172C176.195 53.6172 175.646 53.8906 175.25 54.4375C174.854 54.9844 174.656 55.7943 174.656 56.8672ZM190.008 61.1562C188.862 61.1562 187.93 60.7812 187.211 60.0312C186.492 59.276 186.133 58.2682 186.133 57.0078V56.7422C186.133 55.9036 186.292 55.1562 186.609 54.5C186.932 53.8385 187.38 53.3229 187.953 52.9531C188.531 52.5781 189.156 52.3906 189.828 52.3906C190.927 52.3906 191.781 52.7526 192.391 53.4766C193 54.2005 193.305 55.237 193.305 56.5859V57.1875H187.578C187.599 58.0208 187.841 58.6953 188.305 59.2109C188.773 59.7214 189.367 59.9766 190.086 59.9766C190.596 59.9766 191.029 59.8724 191.383 59.6641C191.737 59.4557 192.047 59.1797 192.312 58.8359L193.195 59.5234C192.487 60.612 191.424 61.1562 190.008 61.1562ZM189.828 53.5781C189.245 53.5781 188.755 53.7917 188.359 54.2188C187.964 54.6406 187.719 55.2344 187.625 56H191.859V55.8906C191.818 55.1562 191.62 54.5885 191.266 54.1875C190.911 53.7812 190.432 53.5781 189.828 53.5781ZM196.555 61H195.109V49H196.555V61ZM200.445 61H199V52.5469H200.445V61ZM198.883 50.3047C198.883 50.0703 198.953 49.8724 199.094 49.7109C199.24 49.5495 199.453 49.4688 199.734 49.4688C200.016 49.4688 200.229 49.5495 200.375 49.7109C200.521 49.8724 200.594 50.0703 200.594 50.3047C200.594 50.5391 200.521 50.7344 200.375 50.8906C200.229 51.0469 200.016 51.125 199.734 51.125C199.453 51.125 199.24 51.0469 199.094 50.8906C198.953 50.7344 198.883 50.5391 198.883 50.3047ZM204.727 50.5V52.5469H206.305V53.6641H204.727V58.9062C204.727 59.2448 204.797 59.5 204.938 59.6719C205.078 59.8385 205.318 59.9219 205.656 59.9219C205.823 59.9219 206.052 59.8906 206.344 59.8281V61C205.964 61.1042 205.594 61.1562 205.234 61.1562C204.589 61.1562 204.102 60.9609 203.773 60.5703C203.445 60.1797 203.281 59.625 203.281 58.9062V53.6641H201.742V52.5469H203.281V50.5H204.727ZM207.953 63.2656L207.133 62.7031C207.622 62.0208 207.878 61.3177 207.898 60.5938V59.2891H209.312V60.4219C209.312 60.9479 209.182 61.474 208.922 62C208.667 62.526 208.344 62.9479 207.953 63.2656ZM220.031 58.7578C220.031 58.3672 219.883 58.0651 219.586 57.8516C219.294 57.6328 218.781 57.4453 218.047 57.2891C217.318 57.1328 216.737 56.9453 216.305 56.7266C215.878 56.5078 215.56 56.2474 215.352 55.9453C215.148 55.6432 215.047 55.2839 215.047 54.8672C215.047 54.1745 215.339 53.5885 215.922 53.1094C216.51 52.6302 217.26 52.3906 218.172 52.3906C219.13 52.3906 219.906 52.638 220.5 53.1328C221.099 53.6276 221.398 54.2604 221.398 55.0312H219.945C219.945 54.6354 219.776 54.2943 219.438 54.0078C219.104 53.7214 218.682 53.5781 218.172 53.5781C217.646 53.5781 217.234 53.6927 216.938 53.9219C216.641 54.151 216.492 54.4505 216.492 54.8203C216.492 55.1693 216.63 55.4323 216.906 55.6094C217.182 55.7865 217.68 55.9557 218.398 56.1172C219.122 56.2786 219.708 56.4714 220.156 56.6953C220.604 56.9193 220.935 57.1901 221.148 57.5078C221.367 57.8203 221.477 58.2031 221.477 58.6562C221.477 59.4115 221.174 60.0182 220.57 60.4766C219.966 60.9297 219.182 61.1562 218.219 61.1562C217.542 61.1562 216.943 61.0365 216.422 60.7969C215.901 60.5573 215.492 60.224 215.195 59.7969C214.904 59.3646 214.758 58.8984 214.758 58.3984H216.203C216.229 58.8828 216.422 59.2682 216.781 59.5547C217.146 59.8359 217.625 59.9766 218.219 59.9766C218.766 59.9766 219.203 59.8672 219.531 59.6484C219.865 59.4245 220.031 59.1276 220.031 58.7578ZM226.867 61.1562C225.721 61.1562 224.789 60.7812 224.07 60.0312C223.352 59.276 222.992 58.2682 222.992 57.0078V56.7422C222.992 55.9036 223.151 55.1562 223.469 54.5C223.792 53.8385 224.24 53.3229 224.812 52.9531C225.391 52.5781 226.016 52.3906 226.688 52.3906C227.786 52.3906 228.641 52.7526 229.25 53.4766C229.859 54.2005 230.164 55.237 230.164 56.5859V57.1875H224.438C224.458 58.0208 224.701 58.6953 225.164 59.2109C225.633 59.7214 226.227 59.9766 226.945 59.9766C227.456 59.9766 227.888 59.8724 228.242 59.6641C228.596 59.4557 228.906 59.1797 229.172 58.8359L230.055 59.5234C229.346 60.612 228.284 61.1562 226.867 61.1562ZM226.688 53.5781C226.104 53.5781 225.615 53.7917 225.219 54.2188C224.823 54.6406 224.578 55.2344 224.484 56H228.719V55.8906C228.677 55.1562 228.479 54.5885 228.125 54.1875C227.771 53.7812 227.292 53.5781 226.688 53.5781ZM231.492 56.7031C231.492 55.4062 231.799 54.3646 232.414 53.5781C233.029 52.7865 233.833 52.3906 234.828 52.3906C235.818 52.3906 236.602 52.7292 237.18 53.4062V49H238.625V61H237.297L237.227 60.0938C236.648 60.8021 235.844 61.1562 234.812 61.1562C233.833 61.1562 233.034 60.7552 232.414 59.9531C231.799 59.151 231.492 58.1042 231.492 56.8125V56.7031ZM232.938 56.8672C232.938 57.8255 233.135 58.5755 233.531 59.1172C233.927 59.6589 234.474 59.9297 235.172 59.9297C236.089 59.9297 236.758 59.5182 237.18 58.6953V54.8125C236.747 54.0156 236.083 53.6172 235.188 53.6172C234.479 53.6172 233.927 53.8906 233.531 54.4375C233.135 54.9844 232.938 55.7943 232.938 56.8672ZM244.492 56.7031C244.492 55.4062 244.799 54.3646 245.414 53.5781C246.029 52.7865 246.833 52.3906 247.828 52.3906C248.818 52.3906 249.602 52.7292 250.18 53.4062V49H251.625V61H250.297L250.227 60.0938C249.648 60.8021 248.844 61.1562 247.812 61.1562C246.833 61.1562 246.034 60.7552 245.414 59.9531C244.799 59.151 244.492 58.1042 244.492 56.8125V56.7031ZM245.938 56.8672C245.938 57.8255 246.135 58.5755 246.531 59.1172C246.927 59.6589 247.474 59.9297 248.172 59.9297C249.089 59.9297 249.758 59.5182 250.18 58.6953V54.8125C249.747 54.0156 249.083 53.6172 248.188 53.6172C247.479 53.6172 246.927 53.8906 246.531 54.4375C246.135 54.9844 245.938 55.7943 245.938 56.8672ZM253.492 56.6953C253.492 55.8672 253.654 55.1224 253.977 54.4609C254.305 53.7995 254.758 53.2891 255.336 52.9297C255.919 52.5703 256.583 52.3906 257.328 52.3906C258.479 52.3906 259.409 52.7891 260.117 53.5859C260.831 54.3828 261.188 55.4427 261.188 56.7656V56.8672C261.188 57.6901 261.029 58.4297 260.711 59.0859C260.398 59.737 259.948 60.2448 259.359 60.6094C258.776 60.974 258.104 61.1562 257.344 61.1562C256.198 61.1562 255.268 60.7578 254.555 59.9609C253.846 59.1641 253.492 58.1094 253.492 56.7969V56.6953ZM254.945 56.8672C254.945 57.8047 255.161 58.5573 255.594 59.125C256.031 59.6927 256.615 59.9766 257.344 59.9766C258.078 59.9766 258.661 59.6901 259.094 59.1172C259.526 58.5391 259.742 57.7318 259.742 56.6953C259.742 55.7682 259.521 55.0182 259.078 54.4453C258.641 53.8672 258.057 53.5781 257.328 53.5781C256.615 53.5781 256.039 53.862 255.602 54.4297C255.164 54.9974 254.945 55.8099 254.945 56.8672ZM24.6016 80.1562C23.4557 80.1562 22.5234 79.7812 21.8047 79.0312C21.0859 78.276 20.7266 77.2682 20.7266 76.0078V75.7422C20.7266 74.9036 20.8854 74.1562 21.2031 73.5C21.526 72.8385 21.974 72.3229 22.5469 71.9531C23.125 71.5781 23.75 71.3906 24.4219 71.3906C25.5208 71.3906 26.375 71.7526 26.9844 72.4766C27.5938 73.2005 27.8984 74.237 27.8984 75.5859V76.1875H22.1719C22.1927 77.0208 22.4349 77.6953 22.8984 78.2109C23.3672 78.7214 23.9609 78.9766 24.6797 78.9766C25.1901 78.9766 25.6224 78.8724 25.9766 78.6641C26.3307 78.4557 26.6406 78.1797 26.9062 77.8359L27.7891 78.5234C27.0807 79.612 26.0182 80.1562 24.6016 80.1562ZM24.4219 72.5781C23.8385 72.5781 23.349 72.7917 22.9531 73.2188C22.5573 73.6406 22.3125 74.2344 22.2188 75H26.4531V74.8906C26.4115 74.1562 26.2135 73.5885 25.8594 73.1875C25.5052 72.7812 25.026 72.5781 24.4219 72.5781ZM31.1484 80H29.7031V71.5469H31.1484V80ZM29.5859 69.3047C29.5859 69.0703 29.6562 68.8724 29.7969 68.7109C29.9427 68.5495 30.1562 68.4688 30.4375 68.4688C30.7188 68.4688 30.9323 68.5495 31.0781 68.7109C31.224 68.8724 31.2969 69.0703 31.2969 69.3047C31.2969 69.5391 31.224 69.7344 31.0781 69.8906C30.9323 70.0469 30.7188 70.125 30.4375 70.125C30.1562 70.125 29.9427 70.0469 29.7969 69.8906C29.6562 69.7344 29.5859 69.5391 29.5859 69.3047ZM38.6875 79.1641C38.125 79.8255 37.2995 80.1562 36.2109 80.1562C35.3099 80.1562 34.6224 79.8958 34.1484 79.375C33.6797 78.849 33.4427 78.0729 33.4375 77.0469V71.5469H34.8828V77.0078C34.8828 78.2891 35.4036 78.9297 36.4453 78.9297C37.5495 78.9297 38.2839 78.5182 38.6484 77.6953V71.5469H40.0938V80H38.7188L38.6875 79.1641ZM47.2188 77.7578C47.2188 77.3672 47.0703 77.0651 46.7734 76.8516C46.4818 76.6328 45.9688 76.4453 45.2344 76.2891C44.5052 76.1328 43.9245 75.9453 43.4922 75.7266C43.0651 75.5078 42.7474 75.2474 42.5391 74.9453C42.3359 74.6432 42.2344 74.2839 42.2344 73.8672C42.2344 73.1745 42.526 72.5885 43.1094 72.1094C43.6979 71.6302 44.4479 71.3906 45.3594 71.3906C46.3177 71.3906 47.0938 71.638 47.6875 72.1328C48.2865 72.6276 48.5859 73.2604 48.5859 74.0312H47.1328C47.1328 73.6354 46.9635 73.2943 46.625 73.0078C46.2917 72.7214 45.8698 72.5781 45.3594 72.5781C44.8333 72.5781 44.4219 72.6927 44.125 72.9219C43.8281 73.151 43.6797 73.4505 43.6797 73.8203C43.6797 74.1693 43.8177 74.4323 44.0938 74.6094C44.3698 74.7865 44.8672 74.9557 45.5859 75.1172C46.3099 75.2786 46.8958 75.4714 47.3438 75.6953C47.7917 75.9193 48.1224 76.1901 48.3359 76.5078C48.5547 76.8203 48.6641 77.2031 48.6641 77.6562C48.6641 78.4115 48.362 79.0182 47.7578 79.4766C47.1536 79.9297 46.3698 80.1562 45.4062 80.1562C44.7292 80.1562 44.1302 80.0365 43.6094 79.7969C43.0885 79.5573 42.6797 79.224 42.3828 78.7969C42.0911 78.3646 41.9453 77.8984 41.9453 77.3984H43.3906C43.4167 77.8828 43.6094 78.2682 43.9688 78.5547C44.3333 78.8359 44.8125 78.9766 45.4062 78.9766C45.9531 78.9766 46.3906 78.8672 46.7188 78.6484C47.0521 78.4245 47.2188 78.1276 47.2188 77.7578ZM51.9062 71.5469L51.9453 72.4844C52.5651 71.7552 53.401 71.3906 54.4531 71.3906C55.6354 71.3906 56.4401 71.8438 56.8672 72.75C57.1484 72.3438 57.513 72.0156 57.9609 71.7656C58.4141 71.5156 58.9479 71.3906 59.5625 71.3906C61.4167 71.3906 62.3594 72.3724 62.3906 74.3359V80H60.9453V74.4219C60.9453 73.8177 60.8073 73.3672 60.5312 73.0703C60.2552 72.7682 59.7917 72.6172 59.1406 72.6172C58.6042 72.6172 58.1589 72.7786 57.8047 73.1016C57.4505 73.4193 57.2448 73.849 57.1875 74.3906V80H55.7344V74.4609C55.7344 73.2318 55.1328 72.6172 53.9297 72.6172C52.9818 72.6172 52.3333 73.0208 51.9844 73.8281V80H50.5391V71.5469H51.9062ZM64.1953 75.6953C64.1953 74.8672 64.3568 74.1224 64.6797 73.4609C65.0078 72.7995 65.4609 72.2891 66.0391 71.9297C66.6224 71.5703 67.2865 71.3906 68.0312 71.3906C69.1823 71.3906 70.112 71.7891 70.8203 72.5859C71.5339 73.3828 71.8906 74.4427 71.8906 75.7656V75.8672C71.8906 76.6901 71.7318 77.4297 71.4141 78.0859C71.1016 78.737 70.651 79.2448 70.0625 79.6094C69.4792 79.974 68.8073 80.1562 68.0469 80.1562C66.901 80.1562 65.9714 79.7578 65.2578 78.9609C64.5495 78.1641 64.1953 77.1094 64.1953 75.7969V75.6953ZM65.6484 75.8672C65.6484 76.8047 65.8646 77.5573 66.2969 78.125C66.7344 78.6927 67.3177 78.9766 68.0469 78.9766C68.7812 78.9766 69.3646 78.6901 69.7969 78.1172C70.2292 77.5391 70.4453 76.7318 70.4453 75.6953C70.4453 74.7682 70.224 74.0182 69.7812 73.4453C69.3438 72.8672 68.7604 72.5781 68.0312 72.5781C67.3177 72.5781 66.7422 72.862 66.3047 73.4297C65.8672 73.9974 65.6484 74.8099 65.6484 75.8672ZM73.3516 75.7031C73.3516 74.4062 73.6589 73.3646 74.2734 72.5781C74.888 71.7865 75.6927 71.3906 76.6875 71.3906C77.6771 71.3906 78.4609 71.7292 79.0391 72.4062V68H80.4844V80H79.1562L79.0859 79.0938C78.5078 79.8021 77.7031 80.1562 76.6719 80.1562C75.6927 80.1562 74.8932 79.7552 74.2734 78.9531C73.6589 78.151 73.3516 77.1042 73.3516 75.8125V75.7031ZM74.7969 75.8672C74.7969 76.8255 74.9948 77.5755 75.3906 78.1172C75.7865 78.6589 76.3333 78.9297 77.0312 78.9297C77.9479 78.9297 78.6172 78.5182 79.0391 77.6953V73.8125C78.6068 73.0156 77.9427 72.6172 77.0469 72.6172C76.3385 72.6172 75.7865 72.8906 75.3906 73.4375C74.9948 73.9844 74.7969 74.7943 74.7969 75.8672ZM88.6641 69.5V71.5469H90.2422V72.6641H88.6641V77.9062C88.6641 78.2448 88.7344 78.5 88.875 78.6719C89.0156 78.8385 89.2552 78.9219 89.5938 78.9219C89.7604 78.9219 89.9896 78.8906 90.2812 78.8281V80C89.901 80.1042 89.5312 80.1562 89.1719 80.1562C88.526 80.1562 88.0391 79.9609 87.7109 79.5703C87.3828 79.1797 87.2188 78.625 87.2188 77.9062V72.6641H85.6797V71.5469H87.2188V69.5H88.6641ZM95.4453 80.1562C94.2995 80.1562 93.3672 79.7812 92.6484 79.0312C91.9297 78.276 91.5703 77.2682 91.5703 76.0078V75.7422C91.5703 74.9036 91.7292 74.1562 92.0469 73.5C92.3698 72.8385 92.8177 72.3229 93.3906 71.9531C93.9688 71.5781 94.5938 71.3906 95.2656 71.3906C96.3646 71.3906 97.2188 71.7526 97.8281 72.4766C98.4375 73.2005 98.7422 74.237 98.7422 75.5859V76.1875H93.0156C93.0365 77.0208 93.2786 77.6953 93.7422 78.2109C94.2109 78.7214 94.8047 78.9766 95.5234 78.9766C96.0339 78.9766 96.4661 78.8724 96.8203 78.6641C97.1745 78.4557 97.4844 78.1797 97.75 77.8359L98.6328 78.5234C97.9245 79.612 96.862 80.1562 95.4453 80.1562ZM95.2656 72.5781C94.6823 72.5781 94.1927 72.7917 93.7969 73.2188C93.401 73.6406 93.1562 74.2344 93.0625 75H97.2969V74.8906C97.2552 74.1562 97.0573 73.5885 96.7031 73.1875C96.349 72.7812 95.8698 72.5781 95.2656 72.5781ZM101.781 71.5469L101.82 72.4844C102.44 71.7552 103.276 71.3906 104.328 71.3906C105.51 71.3906 106.315 71.8438 106.742 72.75C107.023 72.3438 107.388 72.0156 107.836 71.7656C108.289 71.5156 108.823 71.3906 109.438 71.3906C111.292 71.3906 112.234 72.3724 112.266 74.3359V80H110.82V74.4219C110.82 73.8177 110.682 73.3672 110.406 73.0703C110.13 72.7682 109.667 72.6172 109.016 72.6172C108.479 72.6172 108.034 72.7786 107.68 73.1016C107.326 73.4193 107.12 73.849 107.062 74.3906V80H105.609V74.4609C105.609 73.2318 105.008 72.6172 103.805 72.6172C102.857 72.6172 102.208 73.0208 101.859 73.8281V80H100.414V71.5469H101.781ZM121.594 75.8672C121.594 77.1536 121.299 78.1901 120.711 78.9766C120.122 79.763 119.326 80.1562 118.32 80.1562C117.294 80.1562 116.487 79.8307 115.898 79.1797V83.25H114.453V71.5469H115.773L115.844 72.4844C116.432 71.7552 117.25 71.3906 118.297 71.3906C119.312 71.3906 120.115 71.7734 120.703 72.5391C121.297 73.3047 121.594 74.3698 121.594 75.7344V75.8672ZM120.148 75.7031C120.148 74.75 119.945 73.9974 119.539 73.4453C119.133 72.8932 118.576 72.6172 117.867 72.6172C116.992 72.6172 116.336 73.0052 115.898 73.7812V77.8203C116.331 78.5911 116.992 78.9766 117.883 78.9766C118.576 78.9766 119.125 78.7031 119.531 78.1562C119.943 77.6042 120.148 76.7865 120.148 75.7031ZM123.055 75.6953C123.055 74.8672 123.216 74.1224 123.539 73.4609C123.867 72.7995 124.32 72.2891 124.898 71.9297C125.482 71.5703 126.146 71.3906 126.891 71.3906C128.042 71.3906 128.971 71.7891 129.68 72.5859C130.393 73.3828 130.75 74.4427 130.75 75.7656V75.8672C130.75 76.6901 130.591 77.4297 130.273 78.0859C129.961 78.737 129.51 79.2448 128.922 79.6094C128.339 79.974 127.667 80.1562 126.906 80.1562C125.76 80.1562 124.831 79.7578 124.117 78.9609C123.409 78.1641 123.055 77.1094 123.055 75.7969V75.6953ZM124.508 75.8672C124.508 76.8047 124.724 77.5573 125.156 78.125C125.594 78.6927 126.177 78.9766 126.906 78.9766C127.641 78.9766 128.224 78.6901 128.656 78.1172C129.089 77.5391 129.305 76.7318 129.305 75.6953C129.305 74.7682 129.083 74.0182 128.641 73.4453C128.203 72.8672 127.62 72.5781 126.891 72.5781C126.177 72.5781 125.602 72.862 125.164 73.4297C124.727 73.9974 124.508 74.8099 124.508 75.8672ZM136.648 72.8438C136.43 72.8073 136.193 72.7891 135.938 72.7891C134.99 72.7891 134.346 73.1927 134.008 74V80H132.562V71.5469H133.969L133.992 72.5234C134.466 71.7682 135.138 71.3906 136.008 71.3906C136.289 71.3906 136.503 71.4271 136.648 71.5V72.8438ZM143.523 80H142.078V71.5469H143.523V80ZM141.961 69.3047C141.961 69.0703 142.031 68.8724 142.172 68.7109C142.318 68.5495 142.531 68.4688 142.812 68.4688C143.094 68.4688 143.307 68.5495 143.453 68.7109C143.599 68.8724 143.672 69.0703 143.672 69.3047C143.672 69.5391 143.599 69.7344 143.453 69.8906C143.307 70.0469 143.094 70.125 142.812 70.125C142.531 70.125 142.318 70.0469 142.172 69.8906C142.031 69.7344 141.961 69.5391 141.961 69.3047ZM147.211 71.5469L147.258 72.6094C147.904 71.7969 148.747 71.3906 149.789 71.3906C151.576 71.3906 152.477 72.3984 152.492 74.4141V80H151.047V74.4062C151.042 73.7969 150.901 73.3464 150.625 73.0547C150.354 72.763 149.93 72.6172 149.352 72.6172C148.883 72.6172 148.471 72.7422 148.117 72.9922C147.763 73.2422 147.487 73.5703 147.289 73.9766V80H145.844V71.5469H147.211ZM158.062 78.9766C158.578 78.9766 159.029 78.8203 159.414 78.5078C159.799 78.1953 160.013 77.8047 160.055 77.3359H161.422C161.396 77.8203 161.229 78.2812 160.922 78.7188C160.615 79.1562 160.203 79.5052 159.688 79.7656C159.177 80.026 158.635 80.1562 158.062 80.1562C156.911 80.1562 155.995 79.7734 155.312 79.0078C154.635 78.237 154.297 77.1849 154.297 75.8516V75.6094C154.297 74.7865 154.448 74.0547 154.75 73.4141C155.052 72.7734 155.484 72.276 156.047 71.9219C156.615 71.5677 157.284 71.3906 158.055 71.3906C159.003 71.3906 159.789 71.6745 160.414 72.2422C161.044 72.8099 161.38 73.5469 161.422 74.4531H160.055C160.013 73.9062 159.805 73.4583 159.43 73.1094C159.06 72.7552 158.602 72.5781 158.055 72.5781C157.32 72.5781 156.75 72.8438 156.344 73.375C155.943 73.901 155.742 74.6641 155.742 75.6641V75.9375C155.742 76.9115 155.943 77.6615 156.344 78.1875C156.745 78.7135 157.318 78.9766 158.062 78.9766ZM164.617 80H163.172V71.5469H164.617V80ZM163.055 69.3047C163.055 69.0703 163.125 68.8724 163.266 68.7109C163.411 68.5495 163.625 68.4688 163.906 68.4688C164.188 68.4688 164.401 68.5495 164.547 68.7109C164.693 68.8724 164.766 69.0703 164.766 69.3047C164.766 69.5391 164.693 69.7344 164.547 69.8906C164.401 70.0469 164.188 70.125 163.906 70.125C163.625 70.125 163.411 70.0469 163.266 69.8906C163.125 69.7344 163.055 69.5391 163.055 69.3047ZM166.586 75.7031C166.586 74.4062 166.893 73.3646 167.508 72.5781C168.122 71.7865 168.927 71.3906 169.922 71.3906C170.911 71.3906 171.695 71.7292 172.273 72.4062V68H173.719V80H172.391L172.32 79.0938C171.742 79.8021 170.938 80.1562 169.906 80.1562C168.927 80.1562 168.128 79.7552 167.508 78.9531C166.893 78.151 166.586 77.1042 166.586 75.8125V75.7031ZM168.031 75.8672C168.031 76.8255 168.229 77.5755 168.625 78.1172C169.021 78.6589 169.568 78.9297 170.266 78.9297C171.182 78.9297 171.852 78.5182 172.273 77.6953V73.8125C171.841 73.0156 171.177 72.6172 170.281 72.6172C169.573 72.6172 169.021 72.8906 168.625 73.4375C168.229 73.9844 168.031 74.7943 168.031 75.8672ZM177.539 80H176.094V71.5469H177.539V80ZM175.977 69.3047C175.977 69.0703 176.047 68.8724 176.188 68.7109C176.333 68.5495 176.547 68.4688 176.828 68.4688C177.109 68.4688 177.323 68.5495 177.469 68.7109C177.615 68.8724 177.688 69.0703 177.688 69.3047C177.688 69.5391 177.615 69.7344 177.469 69.8906C177.323 70.0469 177.109 70.125 176.828 70.125C176.547 70.125 176.333 70.0469 176.188 69.8906C176.047 69.7344 175.977 69.5391 175.977 69.3047ZM179.508 75.7031C179.508 74.4062 179.815 73.3646 180.43 72.5781C181.044 71.7865 181.849 71.3906 182.844 71.3906C183.833 71.3906 184.617 71.7292 185.195 72.4062V68H186.641V80H185.312L185.242 79.0938C184.664 79.8021 183.859 80.1562 182.828 80.1562C181.849 80.1562 181.049 79.7552 180.43 78.9531C179.815 78.151 179.508 77.1042 179.508 75.8125V75.7031ZM180.953 75.8672C180.953 76.8255 181.151 77.5755 181.547 78.1172C181.943 78.6589 182.49 78.9297 183.188 78.9297C184.104 78.9297 184.773 78.5182 185.195 77.6953V73.8125C184.763 73.0156 184.099 72.6172 183.203 72.6172C182.495 72.6172 181.943 72.8906 181.547 73.4375C181.151 73.9844 180.953 74.7943 180.953 75.8672ZM194.109 79.1641C193.547 79.8255 192.721 80.1562 191.633 80.1562C190.732 80.1562 190.044 79.8958 189.57 79.375C189.102 78.849 188.865 78.0729 188.859 77.0469V71.5469H190.305V77.0078C190.305 78.2891 190.826 78.9297 191.867 78.9297C192.971 78.9297 193.706 78.5182 194.07 77.6953V71.5469H195.516V80H194.141L194.109 79.1641ZM199.086 71.5469L199.133 72.6094C199.779 71.7969 200.622 71.3906 201.664 71.3906C203.451 71.3906 204.352 72.3984 204.367 74.4141V80H202.922V74.4062C202.917 73.7969 202.776 73.3464 202.5 73.0547C202.229 72.763 201.805 72.6172 201.227 72.6172C200.758 72.6172 200.346 72.7422 199.992 72.9922C199.638 73.2422 199.362 73.5703 199.164 73.9766V80H197.719V71.5469H199.086ZM208.508 69.5V71.5469H210.086V72.6641H208.508V77.9062C208.508 78.2448 208.578 78.5 208.719 78.6719C208.859 78.8385 209.099 78.9219 209.438 78.9219C209.604 78.9219 209.833 78.8906 210.125 78.8281V80C209.745 80.1042 209.375 80.1562 209.016 80.1562C208.37 80.1562 207.883 79.9609 207.555 79.5703C207.227 79.1797 207.062 78.625 207.062 77.9062V72.6641H205.523V71.5469H207.062V69.5H208.508ZM220.969 79.1641C220.406 79.8255 219.581 80.1562 218.492 80.1562C217.591 80.1562 216.904 79.8958 216.43 79.375C215.961 78.849 215.724 78.0729 215.719 77.0469V71.5469H217.164V77.0078C217.164 78.2891 217.685 78.9297 218.727 78.9297C219.831 78.9297 220.565 78.5182 220.93 77.6953V71.5469H222.375V80H221L220.969 79.1641ZM226.539 69.5V71.5469H228.117V72.6641H226.539V77.9062C226.539 78.2448 226.609 78.5 226.75 78.6719C226.891 78.8385 227.13 78.9219 227.469 78.9219C227.635 78.9219 227.865 78.8906 228.156 78.8281V80C227.776 80.1042 227.406 80.1562 227.047 80.1562C226.401 80.1562 225.914 79.9609 225.586 79.5703C225.258 79.1797 225.094 78.625 225.094 77.9062V72.6641H223.555V71.5469H225.094V69.5H226.539ZM235.352 80H233.906V68H235.352V80ZM242.891 80C242.807 79.8333 242.74 79.5365 242.688 79.1094C242.016 79.8073 241.214 80.1562 240.281 80.1562C239.448 80.1562 238.763 79.9219 238.227 79.4531C237.695 78.9792 237.43 78.3802 237.43 77.6562C237.43 76.776 237.763 76.0938 238.43 75.6094C239.102 75.1198 240.044 74.875 241.258 74.875H242.664V74.2109C242.664 73.7057 242.513 73.3047 242.211 73.0078C241.909 72.7057 241.464 72.5547 240.875 72.5547C240.359 72.5547 239.927 72.6849 239.578 72.9453C239.229 73.2057 239.055 73.5208 239.055 73.8906H237.602C237.602 73.4688 237.75 73.0625 238.047 72.6719C238.349 72.276 238.755 71.9635 239.266 71.7344C239.781 71.5052 240.346 71.3906 240.961 71.3906C241.935 71.3906 242.698 71.6354 243.25 72.125C243.802 72.6094 244.089 73.2786 244.109 74.1328V78.0234C244.109 78.7995 244.208 79.4167 244.406 79.875V80H242.891ZM240.492 78.8984C240.945 78.8984 241.375 78.7812 241.781 78.5469C242.188 78.3125 242.482 78.0078 242.664 77.6328V75.8984H241.531C239.76 75.8984 238.875 76.4167 238.875 77.4531C238.875 77.9062 239.026 78.2604 239.328 78.5156C239.63 78.7708 240.018 78.8984 240.492 78.8984ZM253.531 75.8672C253.531 77.1589 253.234 78.1979 252.641 78.9844C252.047 79.7656 251.25 80.1562 250.25 80.1562C249.182 80.1562 248.357 79.7786 247.773 79.0234L247.703 80H246.375V68H247.82V72.4766C248.404 71.7526 249.208 71.3906 250.234 71.3906C251.26 71.3906 252.065 71.7786 252.648 72.5547C253.237 73.3307 253.531 74.3932 253.531 75.7422V75.8672ZM252.086 75.7031C252.086 74.7188 251.896 73.9583 251.516 73.4219C251.135 72.8854 250.589 72.6172 249.875 72.6172C248.922 72.6172 248.237 73.0599 247.82 73.9453V77.6016C248.263 78.487 248.953 78.9297 249.891 78.9297C250.583 78.9297 251.122 78.6615 251.508 78.125C251.893 77.5885 252.086 76.7812 252.086 75.7031ZM254.977 75.6953C254.977 74.8672 255.138 74.1224 255.461 73.4609C255.789 72.7995 256.242 72.2891 256.82 71.9297C257.404 71.5703 258.068 71.3906 258.812 71.3906C259.964 71.3906 260.893 71.7891 261.602 72.5859C262.315 73.3828 262.672 74.4427 262.672 75.7656V75.8672C262.672 76.6901 262.513 77.4297 262.195 78.0859C261.883 78.737 261.432 79.2448 260.844 79.6094C260.26 79.974 259.589 80.1562 258.828 80.1562C257.682 80.1562 256.753 79.7578 256.039 78.9609C255.331 78.1641 254.977 77.1094 254.977 75.7969V75.6953ZM256.43 75.8672C256.43 76.8047 256.646 77.5573 257.078 78.125C257.516 78.6927 258.099 78.9766 258.828 78.9766C259.562 78.9766 260.146 78.6901 260.578 78.1172C261.01 77.5391 261.227 76.7318 261.227 75.6953C261.227 74.7682 261.005 74.0182 260.562 73.4453C260.125 72.8672 259.542 72.5781 258.812 72.5781C258.099 72.5781 257.523 72.862 257.086 73.4297C256.648 73.9974 256.43 74.8099 256.43 75.8672ZM268.57 72.8438C268.352 72.8073 268.115 72.7891 267.859 72.7891C266.911 72.7891 266.268 73.1927 265.93 74V80H264.484V71.5469H265.891L265.914 72.5234C266.388 71.7682 267.06 71.3906 267.93 71.3906C268.211 71.3906 268.424 71.4271 268.57 71.5V72.8438ZM273.258 80.1562C272.112 80.1562 271.18 79.7812 270.461 79.0312C269.742 78.276 269.383 77.2682 269.383 76.0078V75.7422C269.383 74.9036 269.542 74.1562 269.859 73.5C270.182 72.8385 270.63 72.3229 271.203 71.9531C271.781 71.5781 272.406 71.3906 273.078 71.3906C274.177 71.3906 275.031 71.7526 275.641 72.4766C276.25 73.2005 276.555 74.237 276.555 75.5859V76.1875H270.828C270.849 77.0208 271.091 77.6953 271.555 78.2109C272.023 78.7214 272.617 78.9766 273.336 78.9766C273.846 78.9766 274.279 78.8724 274.633 78.6641C274.987 78.4557 275.297 78.1797 275.562 77.8359L276.445 78.5234C275.737 79.612 274.674 80.1562 273.258 80.1562ZM273.078 72.5781C272.495 72.5781 272.005 72.7917 271.609 73.2188C271.214 73.6406 270.969 74.2344 270.875 75H275.109V74.8906C275.068 74.1562 274.87 73.5885 274.516 73.1875C274.161 72.7812 273.682 72.5781 273.078 72.5781ZM24.6016 99.1562C23.4557 99.1562 22.5234 98.7812 21.8047 98.0312C21.0859 97.276 20.7266 96.2682 20.7266 95.0078V94.7422C20.7266 93.9036 20.8854 93.1562 21.2031 92.5C21.526 91.8385 21.974 91.3229 22.5469 90.9531C23.125 90.5781 23.75 90.3906 24.4219 90.3906C25.5208 90.3906 26.375 90.7526 26.9844 91.4766C27.5938 92.2005 27.8984 93.237 27.8984 94.5859V95.1875H22.1719C22.1927 96.0208 22.4349 96.6953 22.8984 97.2109C23.3672 97.7214 23.9609 97.9766 24.6797 97.9766C25.1901 97.9766 25.6224 97.8724 25.9766 97.6641C26.3307 97.4557 26.6406 97.1797 26.9062 96.8359L27.7891 97.5234C27.0807 98.612 26.0182 99.1562 24.6016 99.1562ZM24.4219 91.5781C23.8385 91.5781 23.349 91.7917 22.9531 92.2188C22.5573 92.6406 22.3125 93.2344 22.2188 94H26.4531V93.8906C26.4115 93.1562 26.2135 92.5885 25.8594 92.1875C25.5052 91.7812 25.026 91.5781 24.4219 91.5781ZM31.5391 88.5V90.5469H33.1172V91.6641H31.5391V96.9062C31.5391 97.2448 31.6094 97.5 31.75 97.6719C31.8906 97.8385 32.1302 97.9219 32.4688 97.9219C32.6354 97.9219 32.8646 97.8906 33.1562 97.8281V99C32.776 99.1042 32.4062 99.1562 32.0469 99.1562C31.401 99.1562 30.9141 98.9609 30.5859 98.5703C30.2578 98.1797 30.0938 97.625 30.0938 96.9062V91.6641H28.5547V90.5469H30.0938V88.5H31.5391ZM38.4297 94.7031C38.4297 93.4062 38.737 92.3646 39.3516 91.5781C39.9661 90.7865 40.7708 90.3906 41.7656 90.3906C42.7552 90.3906 43.5391 90.7292 44.1172 91.4062V87H45.5625V99H44.2344L44.1641 98.0938C43.5859 98.8021 42.7812 99.1562 41.75 99.1562C40.7708 99.1562 39.9714 98.7552 39.3516 97.9531C38.737 97.151 38.4297 96.1042 38.4297 94.8125V94.7031ZM39.875 94.8672C39.875 95.8255 40.0729 96.5755 40.4688 97.1172C40.8646 97.6589 41.4115 97.9297 42.1094 97.9297C43.026 97.9297 43.6953 97.5182 44.1172 96.6953V92.8125C43.6849 92.0156 43.0208 91.6172 42.125 91.6172C41.4167 91.6172 40.8646 91.8906 40.4688 92.4375C40.0729 92.9844 39.875 93.7943 39.875 94.8672ZM47.4297 94.6953C47.4297 93.8672 47.5911 93.1224 47.9141 92.4609C48.2422 91.7995 48.6953 91.2891 49.2734 90.9297C49.8568 90.5703 50.5208 90.3906 51.2656 90.3906C52.4167 90.3906 53.3464 90.7891 54.0547 91.5859C54.7682 92.3828 55.125 93.4427 55.125 94.7656V94.8672C55.125 95.6901 54.9661 96.4297 54.6484 97.0859C54.3359 97.737 53.8854 98.2448 53.2969 98.6094C52.7135 98.974 52.0417 99.1562 51.2812 99.1562C50.1354 99.1562 49.2057 98.7578 48.4922 97.9609C47.7839 97.1641 47.4297 96.1094 47.4297 94.7969V94.6953ZM48.8828 94.8672C48.8828 95.8047 49.099 96.5573 49.5312 97.125C49.9688 97.6927 50.5521 97.9766 51.2812 97.9766C52.0156 97.9766 52.599 97.6901 53.0312 97.1172C53.4635 96.5391 53.6797 95.7318 53.6797 94.6953C53.6797 93.7682 53.4583 93.0182 53.0156 92.4453C52.5781 91.8672 51.9948 91.5781 51.2656 91.5781C50.5521 91.5781 49.9766 91.862 49.5391 92.4297C49.1016 92.9974 48.8828 93.8099 48.8828 94.8672ZM58.5078 99H57.0625V87H58.5078V99ZM60.4453 94.6953C60.4453 93.8672 60.6068 93.1224 60.9297 92.4609C61.2578 91.7995 61.7109 91.2891 62.2891 90.9297C62.8724 90.5703 63.5365 90.3906 64.2812 90.3906C65.4323 90.3906 66.362 90.7891 67.0703 91.5859C67.7839 92.3828 68.1406 93.4427 68.1406 94.7656V94.8672C68.1406 95.6901 67.9818 96.4297 67.6641 97.0859C67.3516 97.737 66.901 98.2448 66.3125 98.6094C65.7292 98.974 65.0573 99.1562 64.2969 99.1562C63.151 99.1562 62.2214 98.7578 61.5078 97.9609C60.7995 97.1641 60.4453 96.1094 60.4453 94.7969V94.6953ZM61.8984 94.8672C61.8984 95.8047 62.1146 96.5573 62.5469 97.125C62.9844 97.6927 63.5677 97.9766 64.2969 97.9766C65.0312 97.9766 65.6146 97.6901 66.0469 97.1172C66.4792 96.5391 66.6953 95.7318 66.6953 94.6953C66.6953 93.7682 66.474 93.0182 66.0312 92.4453C65.5938 91.8672 65.0104 91.5781 64.2812 91.5781C63.5677 91.5781 62.9922 91.862 62.5547 92.4297C62.1172 92.9974 61.8984 93.8099 61.8984 94.8672ZM74.0391 91.8438C73.8203 91.8073 73.5833 91.7891 73.3281 91.7891C72.3802 91.7891 71.737 92.1927 71.3984 93V99H69.9531V90.5469H71.3594L71.3828 91.5234C71.8568 90.7682 72.5286 90.3906 73.3984 90.3906C73.6797 90.3906 73.8932 90.4271 74.0391 90.5V91.8438ZM78.7266 99.1562C77.5807 99.1562 76.6484 98.7812 75.9297 98.0312C75.2109 97.276 74.8516 96.2682 74.8516 95.0078V94.7422C74.8516 93.9036 75.0104 93.1562 75.3281 92.5C75.651 91.8385 76.099 91.3229 76.6719 90.9531C77.25 90.5781 77.875 90.3906 78.5469 90.3906C79.6458 90.3906 80.5 90.7526 81.1094 91.4766C81.7188 92.2005 82.0234 93.237 82.0234 94.5859V95.1875H76.2969C76.3177 96.0208 76.5599 96.6953 77.0234 97.2109C77.4922 97.7214 78.0859 97.9766 78.8047 97.9766C79.3151 97.9766 79.7474 97.8724 80.1016 97.6641C80.4557 97.4557 80.7656 97.1797 81.0312 96.8359L81.9141 97.5234C81.2057 98.612 80.1432 99.1562 78.7266 99.1562ZM78.5469 91.5781C77.9635 91.5781 77.474 91.7917 77.0781 92.2188C76.6823 92.6406 76.4375 93.2344 76.3438 94H80.5781V93.8906C80.5365 93.1562 80.3385 92.5885 79.9844 92.1875C79.6302 91.7812 79.151 91.5781 78.5469 91.5781ZM89.0312 90.5469L89.0703 91.4844C89.6901 90.7552 90.526 90.3906 91.5781 90.3906C92.7604 90.3906 93.5651 90.8438 93.9922 91.75C94.2734 91.3438 94.638 91.0156 95.0859 90.7656C95.5391 90.5156 96.0729 90.3906 96.6875 90.3906C98.5417 90.3906 99.4844 91.3724 99.5156 93.3359V99H98.0703V93.4219C98.0703 92.8177 97.9323 92.3672 97.6562 92.0703C97.3802 91.7682 96.9167 91.6172 96.2656 91.6172C95.7292 91.6172 95.2839 91.7786 94.9297 92.1016C94.5755 92.4193 94.3698 92.849 94.3125 93.3906V99H92.8594V93.4609C92.8594 92.2318 92.2578 91.6172 91.0547 91.6172C90.1068 91.6172 89.4583 92.0208 89.1094 92.8281V99H87.6641V90.5469H89.0312ZM106.922 99C106.839 98.8333 106.771 98.5365 106.719 98.1094C106.047 98.8073 105.245 99.1562 104.312 99.1562C103.479 99.1562 102.794 98.9219 102.258 98.4531C101.727 97.9792 101.461 97.3802 101.461 96.6562C101.461 95.776 101.794 95.0938 102.461 94.6094C103.133 94.1198 104.076 93.875 105.289 93.875H106.695V93.2109C106.695 92.7057 106.544 92.3047 106.242 92.0078C105.94 91.7057 105.495 91.5547 104.906 91.5547C104.391 91.5547 103.958 91.6849 103.609 91.9453C103.26 92.2057 103.086 92.5208 103.086 92.8906H101.633C101.633 92.4688 101.781 92.0625 102.078 91.6719C102.38 91.276 102.786 90.9635 103.297 90.7344C103.812 90.5052 104.378 90.3906 104.992 90.3906C105.966 90.3906 106.729 90.6354 107.281 91.125C107.833 91.6094 108.12 92.2786 108.141 93.1328V97.0234C108.141 97.7995 108.24 98.4167 108.438 98.875V99H106.922ZM104.523 97.8984C104.977 97.8984 105.406 97.7812 105.812 97.5469C106.219 97.3125 106.513 97.0078 106.695 96.6328V94.8984H105.562C103.792 94.8984 102.906 95.4167 102.906 96.4531C102.906 96.9062 103.057 97.2604 103.359 97.5156C103.661 97.7708 104.049 97.8984 104.523 97.8984ZM110.062 94.7031C110.062 93.3854 110.367 92.3385 110.977 91.5625C111.586 90.7812 112.393 90.3906 113.398 90.3906C114.43 90.3906 115.234 90.7552 115.812 91.4844L115.883 90.5469H117.203V98.7969C117.203 99.8906 116.878 100.753 116.227 101.383C115.581 102.013 114.711 102.328 113.617 102.328C113.008 102.328 112.411 102.198 111.828 101.938C111.245 101.677 110.799 101.32 110.492 100.867L111.242 100C111.862 100.766 112.62 101.148 113.516 101.148C114.219 101.148 114.766 100.951 115.156 100.555C115.552 100.159 115.75 99.6016 115.75 98.8828V98.1562C115.172 98.8229 114.383 99.1562 113.383 99.1562C112.393 99.1562 111.591 98.7578 110.977 97.9609C110.367 97.1641 110.062 96.0781 110.062 94.7031ZM111.516 94.8672C111.516 95.8203 111.711 96.5703 112.102 97.1172C112.492 97.6589 113.039 97.9297 113.742 97.9297C114.654 97.9297 115.323 97.5156 115.75 96.6875V92.8281C115.307 92.0208 114.643 91.6172 113.758 91.6172C113.055 91.6172 112.505 91.8906 112.109 92.4375C111.714 92.9844 111.516 93.7943 111.516 94.8672ZM120.758 90.5469L120.805 91.6094C121.451 90.7969 122.294 90.3906 123.336 90.3906C125.122 90.3906 126.023 91.3984 126.039 93.4141V99H124.594V93.4062C124.589 92.7969 124.448 92.3464 124.172 92.0547C123.901 91.763 123.477 91.6172 122.898 91.6172C122.43 91.6172 122.018 91.7422 121.664 91.9922C121.31 92.2422 121.034 92.5703 120.836 92.9766V99H119.391V90.5469H120.758ZM133.438 99C133.354 98.8333 133.286 98.5365 133.234 98.1094C132.562 98.8073 131.76 99.1562 130.828 99.1562C129.995 99.1562 129.31 98.9219 128.773 98.4531C128.242 97.9792 127.977 97.3802 127.977 96.6562C127.977 95.776 128.31 95.0938 128.977 94.6094C129.648 94.1198 130.591 93.875 131.805 93.875H133.211V93.2109C133.211 92.7057 133.06 92.3047 132.758 92.0078C132.456 91.7057 132.01 91.5547 131.422 91.5547C130.906 91.5547 130.474 91.6849 130.125 91.9453C129.776 92.2057 129.602 92.5208 129.602 92.8906H128.148C128.148 92.4688 128.297 92.0625 128.594 91.6719C128.896 91.276 129.302 90.9635 129.812 90.7344C130.328 90.5052 130.893 90.3906 131.508 90.3906C132.482 90.3906 133.245 90.6354 133.797 91.125C134.349 91.6094 134.635 92.2786 134.656 93.1328V97.0234C134.656 97.7995 134.755 98.4167 134.953 98.875V99H133.438ZM131.039 97.8984C131.492 97.8984 131.922 97.7812 132.328 97.5469C132.734 97.3125 133.029 97.0078 133.211 96.6328V94.8984H132.078C130.307 94.8984 129.422 95.4167 129.422 96.4531C129.422 96.9062 129.573 97.2604 129.875 97.5156C130.177 97.7708 130.565 97.8984 131.039 97.8984ZM146.109 99C146.026 98.8333 145.958 98.5365 145.906 98.1094C145.234 98.8073 144.432 99.1562 143.5 99.1562C142.667 99.1562 141.982 98.9219 141.445 98.4531C140.914 97.9792 140.648 97.3802 140.648 96.6562C140.648 95.776 140.982 95.0938 141.648 94.6094C142.32 94.1198 143.263 93.875 144.477 93.875H145.883V93.2109C145.883 92.7057 145.732 92.3047 145.43 92.0078C145.128 91.7057 144.682 91.5547 144.094 91.5547C143.578 91.5547 143.146 91.6849 142.797 91.9453C142.448 92.2057 142.273 92.5208 142.273 92.8906H140.82C140.82 92.4688 140.969 92.0625 141.266 91.6719C141.568 91.276 141.974 90.9635 142.484 90.7344C143 90.5052 143.565 90.3906 144.18 90.3906C145.154 90.3906 145.917 90.6354 146.469 91.125C147.021 91.6094 147.307 92.2786 147.328 93.1328V97.0234C147.328 97.7995 147.427 98.4167 147.625 98.875V99H146.109ZM143.711 97.8984C144.164 97.8984 144.594 97.7812 145 97.5469C145.406 97.3125 145.701 97.0078 145.883 96.6328V94.8984H144.75C142.979 94.8984 142.094 95.4167 142.094 96.4531C142.094 96.9062 142.245 97.2604 142.547 97.5156C142.849 97.7708 143.237 97.8984 143.711 97.8984ZM151.164 99H149.719V87H151.164V99ZM155.055 99H153.609V90.5469H155.055V99ZM153.492 88.3047C153.492 88.0703 153.562 87.8724 153.703 87.7109C153.849 87.5495 154.062 87.4688 154.344 87.4688C154.625 87.4688 154.839 87.5495 154.984 87.7109C155.13 87.8724 155.203 88.0703 155.203 88.3047C155.203 88.5391 155.13 88.7344 154.984 88.8906C154.839 89.0469 154.625 89.125 154.344 89.125C154.062 89.125 153.849 89.0469 153.703 88.8906C153.562 88.7344 153.492 88.5391 153.492 88.3047ZM157.023 94.7031C157.023 93.375 157.328 92.3255 157.938 91.5547C158.547 90.7786 159.365 90.3906 160.391 90.3906C161.391 90.3906 162.18 90.7266 162.758 91.3984L162.82 90.5469H164.148V102.25H162.703V98.2188C162.12 98.8438 161.344 99.1562 160.375 99.1562C159.354 99.1562 158.539 98.7604 157.93 97.9688C157.326 97.1719 157.023 96.1172 157.023 94.8047V94.7031ZM158.469 94.8672C158.469 95.8359 158.672 96.5964 159.078 97.1484C159.49 97.7005 160.042 97.9766 160.734 97.9766C161.594 97.9766 162.25 97.5964 162.703 96.8359V92.6953C162.245 91.9505 161.594 91.5781 160.75 91.5781C160.052 91.5781 159.497 91.8568 159.086 92.4141C158.674 92.9661 158.469 93.7839 158.469 94.8672ZM171.688 98.1641C171.125 98.8255 170.299 99.1562 169.211 99.1562C168.31 99.1562 167.622 98.8958 167.148 98.375C166.68 97.849 166.443 97.0729 166.438 96.0469V90.5469H167.883V96.0078C167.883 97.2891 168.404 97.9297 169.445 97.9297C170.549 97.9297 171.284 97.5182 171.648 96.6953V90.5469H173.094V99H171.719L171.688 98.1641ZM180.516 99C180.432 98.8333 180.365 98.5365 180.312 98.1094C179.641 98.8073 178.839 99.1562 177.906 99.1562C177.073 99.1562 176.388 98.9219 175.852 98.4531C175.32 97.9792 175.055 97.3802 175.055 96.6562C175.055 95.776 175.388 95.0938 176.055 94.6094C176.727 94.1198 177.669 93.875 178.883 93.875H180.289V93.2109C180.289 92.7057 180.138 92.3047 179.836 92.0078C179.534 91.7057 179.089 91.5547 178.5 91.5547C177.984 91.5547 177.552 91.6849 177.203 91.9453C176.854 92.2057 176.68 92.5208 176.68 92.8906H175.227C175.227 92.4688 175.375 92.0625 175.672 91.6719C175.974 91.276 176.38 90.9635 176.891 90.7344C177.406 90.5052 177.971 90.3906 178.586 90.3906C179.56 90.3906 180.323 90.6354 180.875 91.125C181.427 91.6094 181.714 92.2786 181.734 93.1328V97.0234C181.734 97.7995 181.833 98.4167 182.031 98.875V99H180.516ZM178.117 97.8984C178.57 97.8984 179 97.7812 179.406 97.5469C179.812 97.3125 180.107 97.0078 180.289 96.6328V94.8984H179.156C177.385 94.8984 176.5 95.4167 176.5 96.4531C176.5 96.9062 176.651 97.2604 176.953 97.5156C177.255 97.7708 177.643 97.8984 178.117 97.8984ZM184.031 98.2422C184.031 97.9922 184.104 97.7839 184.25 97.6172C184.401 97.4505 184.625 97.3672 184.922 97.3672C185.219 97.3672 185.443 97.4505 185.594 97.6172C185.75 97.7839 185.828 97.9922 185.828 98.2422C185.828 98.4818 185.75 98.6823 185.594 98.8438C185.443 99.0052 185.219 99.0859 184.922 99.0859C184.625 99.0859 184.401 99.0052 184.25 98.8438C184.104 98.6823 184.031 98.4818 184.031 98.2422ZM29.3281 106.625V114.359C29.3229 115.432 28.9844 116.31 28.3125 116.992C27.6458 117.674 26.7396 118.057 25.5938 118.141L25.1953 118.156C23.9505 118.156 22.9583 117.82 22.2188 117.148C21.4792 116.477 21.1042 115.552 21.0938 114.375V106.625H22.5781V114.328C22.5781 115.151 22.8047 115.792 23.2578 116.25C23.7109 116.703 24.3568 116.93 25.1953 116.93C26.0443 116.93 26.6927 116.703 27.1406 116.25C27.5938 115.797 27.8203 115.159 27.8203 114.336V106.625H29.3281ZM33.4297 107.5V109.547H35.0078V110.664H33.4297V115.906C33.4297 116.245 33.5 116.5 33.6406 116.672C33.7812 116.839 34.0208 116.922 34.3594 116.922C34.526 116.922 34.7552 116.891 35.0469 116.828V118C34.6667 118.104 34.2969 118.156 33.9375 118.156C33.2917 118.156 32.8047 117.961 32.4766 117.57C32.1484 117.18 31.9844 116.625 31.9844 115.906V110.664H30.4453V109.547H31.9844V107.5H33.4297ZM44.1797 118.156C43.0339 118.156 42.1016 117.781 41.3828 117.031C40.6641 116.276 40.3047 115.268 40.3047 114.008V113.742C40.3047 112.904 40.4635 112.156 40.7812 111.5C41.1042 110.839 41.5521 110.323 42.125 109.953C42.7031 109.578 43.3281 109.391 44 109.391C45.099 109.391 45.9531 109.753 46.5625 110.477C47.1719 111.201 47.4766 112.237 47.4766 113.586V114.188H41.75C41.7708 115.021 42.013 115.695 42.4766 116.211C42.9453 116.721 43.5391 116.977 44.2578 116.977C44.7682 116.977 45.2005 116.872 45.5547 116.664C45.9089 116.456 46.2188 116.18 46.4844 115.836L47.3672 116.523C46.6589 117.612 45.5964 118.156 44.1797 118.156ZM44 110.578C43.4167 110.578 42.9271 110.792 42.5312 111.219C42.1354 111.641 41.8906 112.234 41.7969 113H46.0312V112.891C45.9896 112.156 45.7917 111.589 45.4375 111.188C45.0833 110.781 44.6042 110.578 44 110.578ZM50.5234 109.547L50.5703 110.609C51.2161 109.797 52.0599 109.391 53.1016 109.391C54.888 109.391 55.7891 110.398 55.8047 112.414V118H54.3594V112.406C54.3542 111.797 54.2135 111.346 53.9375 111.055C53.6667 110.763 53.2422 110.617 52.6641 110.617C52.1953 110.617 51.7839 110.742 51.4297 110.992C51.0755 111.242 50.7995 111.57 50.6016 111.977V118H49.1562V109.547H50.5234ZM59.5547 118H58.1094V109.547H59.5547V118ZM57.9922 107.305C57.9922 107.07 58.0625 106.872 58.2031 106.711C58.349 106.549 58.5625 106.469 58.8438 106.469C59.125 106.469 59.3385 106.549 59.4844 106.711C59.6302 106.872 59.7031 107.07 59.7031 107.305C59.7031 107.539 59.6302 107.734 59.4844 107.891C59.3385 108.047 59.125 108.125 58.8438 108.125C58.5625 108.125 58.349 108.047 58.2031 107.891C58.0625 107.734 57.9922 107.539 57.9922 107.305ZM63.2344 109.547L63.2734 110.484C63.8932 109.755 64.7292 109.391 65.7812 109.391C66.9635 109.391 67.7682 109.844 68.1953 110.75C68.4766 110.344 68.8411 110.016 69.2891 109.766C69.7422 109.516 70.276 109.391 70.8906 109.391C72.7448 109.391 73.6875 110.372 73.7188 112.336V118H72.2734V112.422C72.2734 111.818 72.1354 111.367 71.8594 111.07C71.5833 110.768 71.1198 110.617 70.4688 110.617C69.9323 110.617 69.487 110.779 69.1328 111.102C68.7786 111.419 68.5729 111.849 68.5156 112.391V118H67.0625V112.461C67.0625 111.232 66.4609 110.617 65.2578 110.617C64.3099 110.617 63.6615 111.021 63.3125 111.828V118H61.8672V109.547H63.2344ZM85.0938 118C85.0104 117.833 84.9427 117.536 84.8906 117.109C84.2188 117.807 83.4167 118.156 82.4844 118.156C81.651 118.156 80.9661 117.922 80.4297 117.453C79.8984 116.979 79.6328 116.38 79.6328 115.656C79.6328 114.776 79.9661 114.094 80.6328 113.609C81.3047 113.12 82.2474 112.875 83.4609 112.875H84.8672V112.211C84.8672 111.706 84.7161 111.305 84.4141 111.008C84.112 110.706 83.6667 110.555 83.0781 110.555C82.5625 110.555 82.1302 110.685 81.7812 110.945C81.4323 111.206 81.2578 111.521 81.2578 111.891H79.8047C79.8047 111.469 79.9531 111.062 80.25 110.672C80.5521 110.276 80.9583 109.964 81.4688 109.734C81.9844 109.505 82.5495 109.391 83.1641 109.391C84.138 109.391 84.901 109.635 85.4531 110.125C86.0052 110.609 86.2917 111.279 86.3125 112.133V116.023C86.3125 116.799 86.4115 117.417 86.6094 117.875V118H85.0938ZM82.6953 116.898C83.1484 116.898 83.5781 116.781 83.9844 116.547C84.3906 116.312 84.6849 116.008 84.8672 115.633V113.898H83.7344C81.9635 113.898 81.0781 114.417 81.0781 115.453C81.0781 115.906 81.2292 116.26 81.5312 116.516C81.8333 116.771 82.2214 116.898 82.6953 116.898ZM88.2266 113.703C88.2266 112.406 88.5339 111.365 89.1484 110.578C89.763 109.786 90.5677 109.391 91.5625 109.391C92.5521 109.391 93.3359 109.729 93.9141 110.406V106H95.3594V118H94.0312L93.9609 117.094C93.3828 117.802 92.5781 118.156 91.5469 118.156C90.5677 118.156 89.7682 117.755 89.1484 116.953C88.5339 116.151 88.2266 115.104 88.2266 113.812V113.703ZM89.6719 113.867C89.6719 114.826 89.8698 115.576 90.2656 116.117C90.6615 116.659 91.2083 116.93 91.9062 116.93C92.8229 116.93 93.4922 116.518 93.9141 115.695V111.812C93.4818 111.016 92.8177 110.617 91.9219 110.617C91.2135 110.617 90.6615 110.891 90.2656 111.438C89.8698 111.984 89.6719 112.794 89.6719 113.867ZM102.938 109.547L102.977 110.484C103.596 109.755 104.432 109.391 105.484 109.391C106.667 109.391 107.471 109.844 107.898 110.75C108.18 110.344 108.544 110.016 108.992 109.766C109.445 109.516 109.979 109.391 110.594 109.391C112.448 109.391 113.391 110.372 113.422 112.336V118H111.977V112.422C111.977 111.818 111.839 111.367 111.562 111.07C111.286 110.768 110.823 110.617 110.172 110.617C109.635 110.617 109.19 110.779 108.836 111.102C108.482 111.419 108.276 111.849 108.219 112.391V118H106.766V112.461C106.766 111.232 106.164 110.617 104.961 110.617C104.013 110.617 103.365 111.021 103.016 111.828V118H101.57V109.547H102.938ZM117.18 118H115.734V109.547H117.18V118ZM115.617 107.305C115.617 107.07 115.688 106.872 115.828 106.711C115.974 106.549 116.188 106.469 116.469 106.469C116.75 106.469 116.964 106.549 117.109 106.711C117.255 106.872 117.328 107.07 117.328 107.305C117.328 107.539 117.255 107.734 117.109 107.891C116.964 108.047 116.75 108.125 116.469 108.125C116.188 108.125 115.974 108.047 115.828 107.891C115.688 107.734 115.617 107.539 115.617 107.305ZM120.867 109.547L120.914 110.609C121.56 109.797 122.404 109.391 123.445 109.391C125.232 109.391 126.133 110.398 126.148 112.414V118H124.703V112.406C124.698 111.797 124.557 111.346 124.281 111.055C124.01 110.763 123.586 110.617 123.008 110.617C122.539 110.617 122.128 110.742 121.773 110.992C121.419 111.242 121.143 111.57 120.945 111.977V118H119.5V109.547H120.867ZM129.898 118H128.453V109.547H129.898V118ZM128.336 107.305C128.336 107.07 128.406 106.872 128.547 106.711C128.693 106.549 128.906 106.469 129.188 106.469C129.469 106.469 129.682 106.549 129.828 106.711C129.974 106.872 130.047 107.07 130.047 107.305C130.047 107.539 129.974 107.734 129.828 107.891C129.682 108.047 129.469 108.125 129.188 108.125C128.906 108.125 128.693 108.047 128.547 107.891C128.406 107.734 128.336 107.539 128.336 107.305ZM133.578 109.547L133.617 110.484C134.237 109.755 135.073 109.391 136.125 109.391C137.307 109.391 138.112 109.844 138.539 110.75C138.82 110.344 139.185 110.016 139.633 109.766C140.086 109.516 140.62 109.391 141.234 109.391C143.089 109.391 144.031 110.372 144.062 112.336V118H142.617V112.422C142.617 111.818 142.479 111.367 142.203 111.07C141.927 110.768 141.464 110.617 140.812 110.617C140.276 110.617 139.831 110.779 139.477 111.102C139.122 111.419 138.917 111.849 138.859 112.391V118H137.406V112.461C137.406 111.232 136.805 110.617 135.602 110.617C134.654 110.617 134.005 111.021 133.656 111.828V118H132.211V109.547H133.578ZM153.008 116.039L155.102 109.547H156.578L153.547 118H152.445L149.383 109.547H150.859L153.008 116.039ZM161.367 118.156C160.221 118.156 159.289 117.781 158.57 117.031C157.852 116.276 157.492 115.268 157.492 114.008V113.742C157.492 112.904 157.651 112.156 157.969 111.5C158.292 110.839 158.74 110.323 159.312 109.953C159.891 109.578 160.516 109.391 161.188 109.391C162.286 109.391 163.141 109.753 163.75 110.477C164.359 111.201 164.664 112.237 164.664 113.586V114.188H158.938C158.958 115.021 159.201 115.695 159.664 116.211C160.133 116.721 160.727 116.977 161.445 116.977C161.956 116.977 162.388 116.872 162.742 116.664C163.096 116.456 163.406 116.18 163.672 115.836L164.555 116.523C163.846 117.612 162.784 118.156 161.367 118.156ZM161.188 110.578C160.604 110.578 160.115 110.792 159.719 111.219C159.323 111.641 159.078 112.234 158.984 113H163.219V112.891C163.177 112.156 162.979 111.589 162.625 111.188C162.271 110.781 161.792 110.578 161.188 110.578ZM167.711 109.547L167.758 110.609C168.404 109.797 169.247 109.391 170.289 109.391C172.076 109.391 172.977 110.398 172.992 112.414V118H171.547V112.406C171.542 111.797 171.401 111.346 171.125 111.055C170.854 110.763 170.43 110.617 169.852 110.617C169.383 110.617 168.971 110.742 168.617 110.992C168.263 111.242 167.987 111.57 167.789 111.977V118H166.344V109.547H167.711ZM176.742 118H175.297V109.547H176.742V118ZM175.18 107.305C175.18 107.07 175.25 106.872 175.391 106.711C175.536 106.549 175.75 106.469 176.031 106.469C176.312 106.469 176.526 106.549 176.672 106.711C176.818 106.872 176.891 107.07 176.891 107.305C176.891 107.539 176.818 107.734 176.672 107.891C176.526 108.047 176.312 108.125 176.031 108.125C175.75 108.125 175.536 108.047 175.391 107.891C175.25 107.734 175.18 107.539 175.18 107.305ZM184.281 118C184.198 117.833 184.13 117.536 184.078 117.109C183.406 117.807 182.604 118.156 181.672 118.156C180.839 118.156 180.154 117.922 179.617 117.453C179.086 116.979 178.82 116.38 178.82 115.656C178.82 114.776 179.154 114.094 179.82 113.609C180.492 113.12 181.435 112.875 182.648 112.875H184.055V112.211C184.055 111.706 183.904 111.305 183.602 111.008C183.299 110.706 182.854 110.555 182.266 110.555C181.75 110.555 181.318 110.685 180.969 110.945C180.62 111.206 180.445 111.521 180.445 111.891H178.992C178.992 111.469 179.141 111.062 179.438 110.672C179.74 110.276 180.146 109.964 180.656 109.734C181.172 109.505 181.737 109.391 182.352 109.391C183.326 109.391 184.089 109.635 184.641 110.125C185.193 110.609 185.479 111.279 185.5 112.133V116.023C185.5 116.799 185.599 117.417 185.797 117.875V118H184.281ZM181.883 116.898C182.336 116.898 182.766 116.781 183.172 116.547C183.578 116.312 183.872 116.008 184.055 115.633V113.898H182.922C181.151 113.898 180.266 114.417 180.266 115.453C180.266 115.906 180.417 116.26 180.719 116.516C181.021 116.771 181.409 116.898 181.883 116.898ZM189.125 109.547L189.164 110.484C189.784 109.755 190.62 109.391 191.672 109.391C192.854 109.391 193.659 109.844 194.086 110.75C194.367 110.344 194.732 110.016 195.18 109.766C195.633 109.516 196.167 109.391 196.781 109.391C198.635 109.391 199.578 110.372 199.609 112.336V118H198.164V112.422C198.164 111.818 198.026 111.367 197.75 111.07C197.474 110.768 197.01 110.617 196.359 110.617C195.823 110.617 195.378 110.779 195.023 111.102C194.669 111.419 194.464 111.849 194.406 112.391V118H192.953V112.461C192.953 111.232 192.352 110.617 191.148 110.617C190.201 110.617 189.552 111.021 189.203 111.828V118H187.758V109.547H189.125ZM201.75 120.266L200.93 119.703C201.419 119.021 201.674 118.318 201.695 117.594V116.289H203.109V117.422C203.109 117.948 202.979 118.474 202.719 119C202.464 119.526 202.141 119.948 201.75 120.266ZM208.555 113.703C208.555 112.375 208.859 111.326 209.469 110.555C210.078 109.779 210.896 109.391 211.922 109.391C212.922 109.391 213.711 109.727 214.289 110.398L214.352 109.547H215.68V121.25H214.234V117.219C213.651 117.844 212.875 118.156 211.906 118.156C210.885 118.156 210.07 117.76 209.461 116.969C208.857 116.172 208.555 115.117 208.555 113.805V113.703ZM210 113.867C210 114.836 210.203 115.596 210.609 116.148C211.021 116.701 211.573 116.977 212.266 116.977C213.125 116.977 213.781 116.596 214.234 115.836V111.695C213.776 110.951 213.125 110.578 212.281 110.578C211.583 110.578 211.029 110.857 210.617 111.414C210.206 111.966 210 112.784 210 113.867ZM223.219 117.164C222.656 117.826 221.831 118.156 220.742 118.156C219.841 118.156 219.154 117.896 218.68 117.375C218.211 116.849 217.974 116.073 217.969 115.047V109.547H219.414V115.008C219.414 116.289 219.935 116.93 220.977 116.93C222.081 116.93 222.815 116.518 223.18 115.695V109.547H224.625V118H223.25L223.219 117.164ZM228.398 118H226.953V109.547H228.398V118ZM226.836 107.305C226.836 107.07 226.906 106.872 227.047 106.711C227.193 106.549 227.406 106.469 227.688 106.469C227.969 106.469 228.182 106.549 228.328 106.711C228.474 106.872 228.547 107.07 228.547 107.305C228.547 107.539 228.474 107.734 228.328 107.891C228.182 108.047 227.969 108.125 227.688 108.125C227.406 108.125 227.193 108.047 227.047 107.891C226.906 107.734 226.836 107.539 226.836 107.305ZM235.641 115.758C235.641 115.367 235.492 115.065 235.195 114.852C234.904 114.633 234.391 114.445 233.656 114.289C232.927 114.133 232.346 113.945 231.914 113.727C231.487 113.508 231.169 113.247 230.961 112.945C230.758 112.643 230.656 112.284 230.656 111.867C230.656 111.174 230.948 110.589 231.531 110.109C232.12 109.63 232.87 109.391 233.781 109.391C234.74 109.391 235.516 109.638 236.109 110.133C236.708 110.628 237.008 111.26 237.008 112.031H235.555C235.555 111.635 235.385 111.294 235.047 111.008C234.714 110.721 234.292 110.578 233.781 110.578C233.255 110.578 232.844 110.693 232.547 110.922C232.25 111.151 232.102 111.451 232.102 111.82C232.102 112.169 232.24 112.432 232.516 112.609C232.792 112.786 233.289 112.956 234.008 113.117C234.732 113.279 235.318 113.471 235.766 113.695C236.214 113.919 236.544 114.19 236.758 114.508C236.977 114.82 237.086 115.203 237.086 115.656C237.086 116.411 236.784 117.018 236.18 117.477C235.576 117.93 234.792 118.156 233.828 118.156C233.151 118.156 232.552 118.036 232.031 117.797C231.51 117.557 231.102 117.224 230.805 116.797C230.513 116.365 230.367 115.898 230.367 115.398H231.812C231.839 115.883 232.031 116.268 232.391 116.555C232.755 116.836 233.234 116.977 233.828 116.977C234.375 116.977 234.812 116.867 235.141 116.648C235.474 116.424 235.641 116.128 235.641 115.758ZM22.4609 128.547L22.5078 129.609C23.1536 128.797 23.9974 128.391 25.0391 128.391C26.8255 128.391 27.7266 129.398 27.7422 131.414V137H26.2969V131.406C26.2917 130.797 26.151 130.346 25.875 130.055C25.6042 129.763 25.1797 129.617 24.6016 129.617C24.1328 129.617 23.7214 129.742 23.3672 129.992C23.013 130.242 22.737 130.57 22.5391 130.977V137H21.0938V128.547H22.4609ZM29.5391 132.695C29.5391 131.867 29.7005 131.122 30.0234 130.461C30.3516 129.799 30.8047 129.289 31.3828 128.93C31.9661 128.57 32.6302 128.391 33.375 128.391C34.526 128.391 35.4557 128.789 36.1641 129.586C36.8776 130.383 37.2344 131.443 37.2344 132.766V132.867C37.2344 133.69 37.0755 134.43 36.7578 135.086C36.4453 135.737 35.9948 136.245 35.4062 136.609C34.8229 136.974 34.151 137.156 33.3906 137.156C32.2448 137.156 31.3151 136.758 30.6016 135.961C29.8932 135.164 29.5391 134.109 29.5391 132.797V132.695ZM30.9922 132.867C30.9922 133.805 31.2083 134.557 31.6406 135.125C32.0781 135.693 32.6615 135.977 33.3906 135.977C34.125 135.977 34.7083 135.69 35.1406 135.117C35.5729 134.539 35.7891 133.732 35.7891 132.695C35.7891 131.768 35.5677 131.018 35.125 130.445C34.6875 129.867 34.1042 129.578 33.375 129.578C32.6615 129.578 32.0859 129.862 31.6484 130.43C31.2109 130.997 30.9922 131.81 30.9922 132.867ZM43.9688 134.758C43.9688 134.367 43.8203 134.065 43.5234 133.852C43.2318 133.633 42.7188 133.445 41.9844 133.289C41.2552 133.133 40.6745 132.945 40.2422 132.727C39.8151 132.508 39.4974 132.247 39.2891 131.945C39.0859 131.643 38.9844 131.284 38.9844 130.867C38.9844 130.174 39.276 129.589 39.8594 129.109C40.4479 128.63 41.1979 128.391 42.1094 128.391C43.0677 128.391 43.8438 128.638 44.4375 129.133C45.0365 129.628 45.3359 130.26 45.3359 131.031H43.8828C43.8828 130.635 43.7135 130.294 43.375 130.008C43.0417 129.721 42.6198 129.578 42.1094 129.578C41.5833 129.578 41.1719 129.693 40.875 129.922C40.5781 130.151 40.4297 130.451 40.4297 130.82C40.4297 131.169 40.5677 131.432 40.8438 131.609C41.1198 131.786 41.6172 131.956 42.3359 132.117C43.0599 132.279 43.6458 132.471 44.0938 132.695C44.5417 132.919 44.8724 133.19 45.0859 133.508C45.3047 133.82 45.4141 134.203 45.4141 134.656C45.4141 135.411 45.112 136.018 44.5078 136.477C43.9036 136.93 43.1198 137.156 42.1562 137.156C41.4792 137.156 40.8802 137.036 40.3594 136.797C39.8385 136.557 39.4297 136.224 39.1328 135.797C38.8411 135.365 38.6953 134.898 38.6953 134.398H40.1406C40.1667 134.883 40.3594 135.268 40.7188 135.555C41.0833 135.836 41.5625 135.977 42.1562 135.977C42.7031 135.977 43.1406 135.867 43.4688 135.648C43.8021 135.424 43.9688 135.128 43.9688 134.758ZM49.2578 126.5V128.547H50.8359V129.664H49.2578V134.906C49.2578 135.245 49.3281 135.5 49.4688 135.672C49.6094 135.839 49.849 135.922 50.1875 135.922C50.3542 135.922 50.5833 135.891 50.875 135.828V137C50.4948 137.104 50.125 137.156 49.7656 137.156C49.1198 137.156 48.6328 136.961 48.3047 136.57C47.9766 136.18 47.8125 135.625 47.8125 134.906V129.664H46.2734V128.547H47.8125V126.5H49.2578ZM56.6172 129.844C56.3984 129.807 56.1615 129.789 55.9062 129.789C54.9583 129.789 54.3151 130.193 53.9766 131V137H52.5312V128.547H53.9375L53.9609 129.523C54.4349 128.768 55.1068 128.391 55.9766 128.391C56.2578 128.391 56.4714 128.427 56.6172 128.5V129.844ZM63.1719 136.164C62.6094 136.826 61.7839 137.156 60.6953 137.156C59.7943 137.156 59.1068 136.896 58.6328 136.375C58.1641 135.849 57.9271 135.073 57.9219 134.047V128.547H59.3672V134.008C59.3672 135.289 59.888 135.93 60.9297 135.93C62.0339 135.93 62.7682 135.518 63.1328 134.695V128.547H64.5781V137H63.2031L63.1719 136.164ZM66.4297 132.703C66.4297 131.406 66.737 130.365 67.3516 129.578C67.9661 128.786 68.7708 128.391 69.7656 128.391C70.7552 128.391 71.5391 128.729 72.1172 129.406V125H73.5625V137H72.2344L72.1641 136.094C71.5859 136.802 70.7812 137.156 69.75 137.156C68.7708 137.156 67.9714 136.755 67.3516 135.953C66.737 135.151 66.4297 134.104 66.4297 132.812V132.703ZM67.875 132.867C67.875 133.826 68.0729 134.576 68.4688 135.117C68.8646 135.659 69.4115 135.93 70.1094 135.93C71.026 135.93 71.6953 135.518 72.1172 134.695V130.812C71.6849 130.016 71.0208 129.617 70.125 129.617C69.4167 129.617 68.8646 129.891 68.4688 130.438C68.0729 130.984 67.875 131.794 67.875 132.867ZM83.2891 137.156C82.1432 137.156 81.2109 136.781 80.4922 136.031C79.7734 135.276 79.4141 134.268 79.4141 133.008V132.742C79.4141 131.904 79.5729 131.156 79.8906 130.5C80.2135 129.839 80.6615 129.323 81.2344 128.953C81.8125 128.578 82.4375 128.391 83.1094 128.391C84.2083 128.391 85.0625 128.753 85.6719 129.477C86.2812 130.201 86.5859 131.237 86.5859 132.586V133.188H80.8594C80.8802 134.021 81.1224 134.695 81.5859 135.211C82.0547 135.721 82.6484 135.977 83.3672 135.977C83.8776 135.977 84.3099 135.872 84.6641 135.664C85.0182 135.456 85.3281 135.18 85.5938 134.836L86.4766 135.523C85.7682 136.612 84.7057 137.156 83.2891 137.156ZM83.1094 129.578C82.526 129.578 82.0365 129.792 81.6406 130.219C81.2448 130.641 81 131.234 80.9062 132H85.1406V131.891C85.099 131.156 84.901 130.589 84.5469 130.188C84.1927 129.781 83.7135 129.578 83.1094 129.578ZM91.1016 131.633L92.9766 128.547H94.6641L91.8984 132.727L94.75 137H93.0781L91.125 133.836L89.1719 137H87.4922L90.3438 132.727L87.5781 128.547H89.25L91.1016 131.633ZM99.5547 137.156C98.4089 137.156 97.4766 136.781 96.7578 136.031C96.0391 135.276 95.6797 134.268 95.6797 133.008V132.742C95.6797 131.904 95.8385 131.156 96.1562 130.5C96.4792 129.839 96.9271 129.323 97.5 128.953C98.0781 128.578 98.7031 128.391 99.375 128.391C100.474 128.391 101.328 128.753 101.938 129.477C102.547 130.201 102.852 131.237 102.852 132.586V133.188H97.125C97.1458 134.021 97.388 134.695 97.8516 135.211C98.3203 135.721 98.9141 135.977 99.6328 135.977C100.143 135.977 100.576 135.872 100.93 135.664C101.284 135.456 101.594 135.18 101.859 134.836L102.742 135.523C102.034 136.612 100.971 137.156 99.5547 137.156ZM99.375 129.578C98.7917 129.578 98.3021 129.792 97.9062 130.219C97.5104 130.641 97.2656 131.234 97.1719 132H101.406V131.891C101.365 131.156 101.167 130.589 100.812 130.188C100.458 129.781 99.9792 129.578 99.375 129.578ZM108.617 129.844C108.398 129.807 108.161 129.789 107.906 129.789C106.958 129.789 106.315 130.193 105.977 131V137H104.531V128.547H105.938L105.961 129.523C106.435 128.768 107.107 128.391 107.977 128.391C108.258 128.391 108.471 128.427 108.617 128.5V129.844ZM113.188 135.977C113.703 135.977 114.154 135.82 114.539 135.508C114.924 135.195 115.138 134.805 115.18 134.336H116.547C116.521 134.82 116.354 135.281 116.047 135.719C115.74 136.156 115.328 136.505 114.812 136.766C114.302 137.026 113.76 137.156 113.188 137.156C112.036 137.156 111.12 136.773 110.438 136.008C109.76 135.237 109.422 134.185 109.422 132.852V132.609C109.422 131.786 109.573 131.055 109.875 130.414C110.177 129.773 110.609 129.276 111.172 128.922C111.74 128.568 112.409 128.391 113.18 128.391C114.128 128.391 114.914 128.674 115.539 129.242C116.169 129.81 116.505 130.547 116.547 131.453H115.18C115.138 130.906 114.93 130.458 114.555 130.109C114.185 129.755 113.727 129.578 113.18 129.578C112.445 129.578 111.875 129.844 111.469 130.375C111.068 130.901 110.867 131.664 110.867 132.664V132.938C110.867 133.911 111.068 134.661 111.469 135.188C111.87 135.714 112.443 135.977 113.188 135.977ZM119.742 137H118.297V128.547H119.742V137ZM118.18 126.305C118.18 126.07 118.25 125.872 118.391 125.711C118.536 125.549 118.75 125.469 119.031 125.469C119.312 125.469 119.526 125.549 119.672 125.711C119.818 125.872 119.891 126.07 119.891 126.305C119.891 126.539 119.818 126.734 119.672 126.891C119.526 127.047 119.312 127.125 119.031 127.125C118.75 127.125 118.536 127.047 118.391 126.891C118.25 126.734 118.18 126.539 118.18 126.305ZM124.023 126.5V128.547H125.602V129.664H124.023V134.906C124.023 135.245 124.094 135.5 124.234 135.672C124.375 135.839 124.615 135.922 124.953 135.922C125.12 135.922 125.349 135.891 125.641 135.828V137C125.26 137.104 124.891 137.156 124.531 137.156C123.885 137.156 123.398 136.961 123.07 136.57C122.742 136.18 122.578 135.625 122.578 134.906V129.664H121.039V128.547H122.578V126.5H124.023ZM132.516 137C132.432 136.833 132.365 136.536 132.312 136.109C131.641 136.807 130.839 137.156 129.906 137.156C129.073 137.156 128.388 136.922 127.852 136.453C127.32 135.979 127.055 135.38 127.055 134.656C127.055 133.776 127.388 133.094 128.055 132.609C128.727 132.12 129.669 131.875 130.883 131.875H132.289V131.211C132.289 130.706 132.138 130.305 131.836 130.008C131.534 129.706 131.089 129.555 130.5 129.555C129.984 129.555 129.552 129.685 129.203 129.945C128.854 130.206 128.68 130.521 128.68 130.891H127.227C127.227 130.469 127.375 130.062 127.672 129.672C127.974 129.276 128.38 128.964 128.891 128.734C129.406 128.505 129.971 128.391 130.586 128.391C131.56 128.391 132.323 128.635 132.875 129.125C133.427 129.609 133.714 130.279 133.734 131.133V135.023C133.734 135.799 133.833 136.417 134.031 136.875V137H132.516ZM130.117 135.898C130.57 135.898 131 135.781 131.406 135.547C131.812 135.312 132.107 135.008 132.289 134.633V132.898H131.156C129.385 132.898 128.5 133.417 128.5 134.453C128.5 134.906 128.651 135.26 128.953 135.516C129.255 135.771 129.643 135.898 130.117 135.898ZM137.961 126.5V128.547H139.539V129.664H137.961V134.906C137.961 135.245 138.031 135.5 138.172 135.672C138.312 135.839 138.552 135.922 138.891 135.922C139.057 135.922 139.286 135.891 139.578 135.828V137C139.198 137.104 138.828 137.156 138.469 137.156C137.823 137.156 137.336 136.961 137.008 136.57C136.68 136.18 136.516 135.625 136.516 134.906V129.664H134.977V128.547H136.516V126.5H137.961ZM142.805 137H141.359V128.547H142.805V137ZM141.242 126.305C141.242 126.07 141.312 125.872 141.453 125.711C141.599 125.549 141.812 125.469 142.094 125.469C142.375 125.469 142.589 125.549 142.734 125.711C142.88 125.872 142.953 126.07 142.953 126.305C142.953 126.539 142.88 126.734 142.734 126.891C142.589 127.047 142.375 127.125 142.094 127.125C141.812 127.125 141.599 127.047 141.453 126.891C141.312 126.734 141.242 126.539 141.242 126.305ZM144.742 132.695C144.742 131.867 144.904 131.122 145.227 130.461C145.555 129.799 146.008 129.289 146.586 128.93C147.169 128.57 147.833 128.391 148.578 128.391C149.729 128.391 150.659 128.789 151.367 129.586C152.081 130.383 152.438 131.443 152.438 132.766V132.867C152.438 133.69 152.279 134.43 151.961 135.086C151.648 135.737 151.198 136.245 150.609 136.609C150.026 136.974 149.354 137.156 148.594 137.156C147.448 137.156 146.518 136.758 145.805 135.961C145.096 135.164 144.742 134.109 144.742 132.797V132.695ZM146.195 132.867C146.195 133.805 146.411 134.557 146.844 135.125C147.281 135.693 147.865 135.977 148.594 135.977C149.328 135.977 149.911 135.69 150.344 135.117C150.776 134.539 150.992 133.732 150.992 132.695C150.992 131.768 150.771 131.018 150.328 130.445C149.891 129.867 149.307 129.578 148.578 129.578C147.865 129.578 147.289 129.862 146.852 130.43C146.414 130.997 146.195 131.81 146.195 132.867ZM155.617 128.547L155.664 129.609C156.31 128.797 157.154 128.391 158.195 128.391C159.982 128.391 160.883 129.398 160.898 131.414V137H159.453V131.406C159.448 130.797 159.307 130.346 159.031 130.055C158.76 129.763 158.336 129.617 157.758 129.617C157.289 129.617 156.878 129.742 156.523 129.992C156.169 130.242 155.893 130.57 155.695 130.977V137H154.25V128.547H155.617ZM172.266 136.164C171.703 136.826 170.878 137.156 169.789 137.156C168.888 137.156 168.201 136.896 167.727 136.375C167.258 135.849 167.021 135.073 167.016 134.047V128.547H168.461V134.008C168.461 135.289 168.982 135.93 170.023 135.93C171.128 135.93 171.862 135.518 172.227 134.695V128.547H173.672V137H172.297L172.266 136.164ZM177.445 137H176V125H177.445V137ZM181.336 137H179.891V125H181.336V137ZM188.875 137C188.792 136.833 188.724 136.536 188.672 136.109C188 136.807 187.198 137.156 186.266 137.156C185.432 137.156 184.747 136.922 184.211 136.453C183.68 135.979 183.414 135.38 183.414 134.656C183.414 133.776 183.747 133.094 184.414 132.609C185.086 132.12 186.029 131.875 187.242 131.875H188.648V131.211C188.648 130.706 188.497 130.305 188.195 130.008C187.893 129.706 187.448 129.555 186.859 129.555C186.344 129.555 185.911 129.685 185.562 129.945C185.214 130.206 185.039 130.521 185.039 130.891H183.586C183.586 130.469 183.734 130.062 184.031 129.672C184.333 129.276 184.74 128.964 185.25 128.734C185.766 128.505 186.331 128.391 186.945 128.391C187.919 128.391 188.682 128.635 189.234 129.125C189.786 129.609 190.073 130.279 190.094 131.133V135.023C190.094 135.799 190.193 136.417 190.391 136.875V137H188.875ZM186.477 135.898C186.93 135.898 187.359 135.781 187.766 135.547C188.172 135.312 188.466 135.008 188.648 134.633V132.898H187.516C185.745 132.898 184.859 133.417 184.859 134.453C184.859 134.906 185.01 135.26 185.312 135.516C185.615 135.771 186.003 135.898 186.477 135.898ZM193.719 128.547L193.758 129.484C194.378 128.755 195.214 128.391 196.266 128.391C197.448 128.391 198.253 128.844 198.68 129.75C198.961 129.344 199.326 129.016 199.773 128.766C200.227 128.516 200.76 128.391 201.375 128.391C203.229 128.391 204.172 129.372 204.203 131.336V137H202.758V131.422C202.758 130.818 202.62 130.367 202.344 130.07C202.068 129.768 201.604 129.617 200.953 129.617C200.417 129.617 199.971 129.779 199.617 130.102C199.263 130.419 199.057 130.849 199 131.391V137H197.547V131.461C197.547 130.232 196.945 129.617 195.742 129.617C194.794 129.617 194.146 130.021 193.797 130.828V137H192.352V128.547H193.719ZM209.781 135.977C210.297 135.977 210.747 135.82 211.133 135.508C211.518 135.195 211.732 134.805 211.773 134.336H213.141C213.115 134.82 212.948 135.281 212.641 135.719C212.333 136.156 211.922 136.505 211.406 136.766C210.896 137.026 210.354 137.156 209.781 137.156C208.63 137.156 207.714 136.773 207.031 136.008C206.354 135.237 206.016 134.185 206.016 132.852V132.609C206.016 131.786 206.167 131.055 206.469 130.414C206.771 129.773 207.203 129.276 207.766 128.922C208.333 128.568 209.003 128.391 209.773 128.391C210.721 128.391 211.508 128.674 212.133 129.242C212.763 129.81 213.099 130.547 213.141 131.453H211.773C211.732 130.906 211.523 130.458 211.148 130.109C210.779 129.755 210.32 129.578 209.773 129.578C209.039 129.578 208.469 129.844 208.062 130.375C207.661 130.901 207.461 131.664 207.461 132.664V132.938C207.461 133.911 207.661 134.661 208.062 135.188C208.464 135.714 209.036 135.977 209.781 135.977ZM214.383 132.695C214.383 131.867 214.544 131.122 214.867 130.461C215.195 129.799 215.648 129.289 216.227 128.93C216.81 128.57 217.474 128.391 218.219 128.391C219.37 128.391 220.299 128.789 221.008 129.586C221.721 130.383 222.078 131.443 222.078 132.766V132.867C222.078 133.69 221.919 134.43 221.602 135.086C221.289 135.737 220.839 136.245 220.25 136.609C219.667 136.974 218.995 137.156 218.234 137.156C217.089 137.156 216.159 136.758 215.445 135.961C214.737 135.164 214.383 134.109 214.383 132.797V132.695ZM215.836 132.867C215.836 133.805 216.052 134.557 216.484 135.125C216.922 135.693 217.505 135.977 218.234 135.977C218.969 135.977 219.552 135.69 219.984 135.117C220.417 134.539 220.633 133.732 220.633 132.695C220.633 131.768 220.411 131.018 219.969 130.445C219.531 129.867 218.948 129.578 218.219 129.578C217.505 129.578 216.93 129.862 216.492 130.43C216.055 130.997 215.836 131.81 215.836 132.867ZM223.922 136.242C223.922 135.992 223.995 135.784 224.141 135.617C224.292 135.451 224.516 135.367 224.812 135.367C225.109 135.367 225.333 135.451 225.484 135.617C225.641 135.784 225.719 135.992 225.719 136.242C225.719 136.482 225.641 136.682 225.484 136.844C225.333 137.005 225.109 137.086 224.812 137.086C224.516 137.086 224.292 137.005 224.141 136.844C223.995 136.682 223.922 136.482 223.922 136.242Z" fill="black"/>
</svg>
